<svg xmlns="http://www.w3.org/2000/svg" viewBox="0 0 118.52 121.89"><title>Recurso 1</title><g id="b6fb130d-df93-4968-9cf4-cadd7ee05cc2" data-name="Capa 2"><g id="e85b2d4d-dd18-4e6e-a46a-a2389b888189" data-name="Layer 1"><path d="M109.45,61a36.76,36.76,0,0,1-27.7,60.94H28.13A28.13,28.13,0,0,1,0,93.76V28.13A28.14,28.14,0,0,1,28.13,0H81.75a36.77,36.77,0,0,1,27.7,61Z" style="fill:#ff3823"/><path d="M28.11,13.47A14.57,14.57,0,1,0,42.66,28,14.56,14.56,0,0,0,28.11,13.47Z" style="fill:#dfddcd"/><path d="M19.73,28a8.37,8.37,0,1,0,16.74,0H28.1V19.67A8.36,8.36,0,0,0,19.73,28Z" style="fill:#5b3f34"/></g></g></svg>