<svg xmlns="http://www.w3.org/2000/svg" width="213.633" height="232.926" viewBox="0 0 213.633 232.926"><defs><style>.a{fill:#32b9fd;}.b{fill:#dfddcd;}.c{fill:#5b3f34;}.d{fill:#ffd32f;}.e{fill:#ff3823;}.f{fill:#fda9d1;}</style></defs><g transform="translate(42.794)"><path class="a" d="M170.936,222.45a39.8,39.8,0,0,1-29.985,65.981H82.9A30.455,30.455,0,0,1,52.448,257.98V186.92A30.456,30.456,0,0,1,82.9,156.472h58.047a39.8,39.8,0,0,1,29.985,65.978Z" transform="translate(-52.448 -156.472)"/><g transform="translate(14.656 14.581)"><path class="b" d="M77.831,166.036A15.768,15.768,0,1,0,93.593,181.8,15.766,15.766,0,0,0,77.831,166.036Z" transform="translate(-62.061 -166.036)"/></g><path class="c" d="M66.46,179.492a9.058,9.058,0,1,0,18.116,0H75.517v-9.057A9.059,9.059,0,0,0,66.46,179.492Z" transform="translate(-45.098 -149.148)"/></g><g transform="translate(0 65.98)"><path class="d" d="M142.868,265.73a39.8,39.8,0,0,1-29.985,65.98H54.836a30.455,30.455,0,0,1-30.458-30.451V230.2a30.457,30.457,0,0,1,30.458-30.45h58.047a39.8,39.8,0,0,1,29.985,65.98Z" transform="translate(-24.378 -199.75)"/><g transform="translate(14.657 14.582)"><path class="b" d="M49.762,209.315a15.767,15.767,0,1,0,15.762,15.762A15.766,15.766,0,0,0,49.762,209.315Z" transform="translate(-33.992 -209.315)"/></g><path class="c" d="M38.391,222.77a9.058,9.058,0,1,0,18.116,0H47.448v-9.057A9.058,9.058,0,0,0,38.391,222.77Z" transform="translate(-17.027 -192.426)"/></g><g transform="translate(85.32 43.249)"><path class="e" d="M198.832,250.82a39.8,39.8,0,0,1-29.983,65.975H110.8a30.453,30.453,0,0,1-30.458-30.448V215.293A30.458,30.458,0,0,1,110.8,184.84h58.049a39.8,39.8,0,0,1,29.983,65.98Z" transform="translate(-80.342 -184.84)"/><g transform="translate(14.66 14.584)"><path class="b" d="M105.725,194.406a15.765,15.765,0,1,0,15.762,15.765A15.764,15.764,0,0,0,105.725,194.406Z" transform="translate(-89.958 -194.406)"/></g><path class="c" d="M94.355,207.863a9.06,9.06,0,0,0,18.119,0h-9.06v-9.056A9.052,9.052,0,0,0,94.355,207.863Z" transform="translate(-72.991 -177.514)"/></g><g transform="translate(42.794 100.967)"><path class="f" d="M170.936,288.682a39.795,39.795,0,0,1-29.983,65.977H82.9a30.456,30.456,0,0,1-30.456-30.451V253.152A30.458,30.458,0,0,1,82.9,222.7h58.049a39.8,39.8,0,0,1,29.983,65.983Z" transform="translate(-52.448 -222.699)"/><g transform="translate(14.656 14.582)"><path class="b" d="M77.833,232.264a15.766,15.766,0,1,0,15.761,15.764A15.765,15.765,0,0,0,77.833,232.264Z" transform="translate(-62.061 -232.264)"/></g><path class="c" d="M66.46,245.719a9.06,9.06,0,0,0,18.119,0H75.517v-9.054A9.055,9.055,0,0,0,66.46,245.719Z" transform="translate(-45.098 -215.373)"/></g></svg>