<svg xmlns="http://www.w3.org/2000/svg" xmlns:xlink="http://www.w3.org/1999/xlink" width="615.968" height="344.764" viewBox="0 0 615.968 344.764"><defs><style>.a{fill:#ffd32f;}.b{clip-path:url(#a);}.c{fill:#ff3823;}.d{fill:#32b9fd;}</style><clipPath id="a"><rect class="a" width="615.968" height="344.765"/></clipPath></defs><g transform="translate(0 -2154.588)"><rect class="a" width="615.968" height="344.765" transform="translate(0 2154.588)"/><g class="b" transform="translate(0 2154.588)"><g transform="translate(-11.76 -13.485)"><g transform="translate(0)"><g transform="translate(0 348.828)"><path class="c" d="M432.2,833.723a8.659,8.659,0,1,1-8.659,8.659A8.657,8.657,0,0,1,432.2,833.723Z" transform="translate(-327.823 -833.723)"/><path class="d" d="M445.469,833.723a8.659,8.659,0,1,1-8.663,8.659A8.662,8.662,0,0,1,445.469,833.723Z" transform="translate(-293.229 -833.723)"/><path class="c" d="M405.672,833.723a8.659,8.659,0,1,1-8.659,8.659A8.66,8.66,0,0,1,405.672,833.723Z" transform="translate(-397.013 -833.723)"/><path class="d" d="M418.944,833.723a8.661,8.661,0,1,1-8.667,8.659A8.659,8.659,0,0,1,418.944,833.723Z" transform="translate(-362.419 -833.723)"/><path class="d" d="M471.994,833.723a8.661,8.661,0,1,1-8.659,8.659A8.66,8.66,0,0,1,471.994,833.723Z" transform="translate(-224.038 -833.723)"/><path class="c" d="M485.259,833.723a8.659,8.659,0,1,1-8.659,8.659A8.66,8.66,0,0,1,485.259,833.723Z" transform="translate(-189.444 -833.723)"/><path class="c" d="M458.736,833.723a8.659,8.659,0,1,1-8.667,8.659A8.658,8.658,0,0,1,458.736,833.723Z" transform="translate(-258.637 -833.723)"/><path class="c" d="M511.788,833.723a8.659,8.659,0,1,1-8.659,8.659A8.66,8.66,0,0,1,511.788,833.723Z" transform="translate(-120.254 -833.723)"/><path class="d" d="M525.051,833.723a8.659,8.659,0,1,1-8.659,8.659A8.66,8.66,0,0,1,525.051,833.723Z" transform="translate(-85.66 -833.723)"/><path class="d" d="M498.526,833.723a8.659,8.659,0,1,1-8.663,8.659A8.658,8.658,0,0,1,498.526,833.723Z" transform="translate(-154.85 -833.723)"/><path class="d" d="M551.58,833.723a8.659,8.659,0,1,1-8.659,8.659A8.66,8.66,0,0,1,551.58,833.723Z" transform="translate(-16.469 -833.723)"/><path class="c" d="M564.845,833.723a8.659,8.659,0,1,1-8.66,8.659A8.657,8.657,0,0,1,564.845,833.723Z" transform="translate(18.125 -833.723)"/><path class="d" d="M578.109,833.723a8.659,8.659,0,1,1-8.659,8.659A8.654,8.654,0,0,1,578.109,833.723Z" transform="translate(52.721 -833.723)"/><path class="c" d="M538.32,833.723a8.659,8.659,0,1,1-8.663,8.659A8.661,8.661,0,0,1,538.32,833.723Z" transform="translate(-51.063 -833.723)"/></g><g transform="translate(23.929 321.991)"><path class="c" d="M425.572,826.285a8.665,8.665,0,1,1-8.663,8.67A8.663,8.663,0,0,1,425.572,826.285Z" transform="translate(-369.051 -826.285)"/><path class="d" d="M438.831,826.285a8.665,8.665,0,1,1-8.656,8.67A8.666,8.666,0,0,1,438.831,826.285Z" transform="translate(-334.452 -826.285)"/><path class="d" d="M412.308,826.285a8.665,8.665,0,1,1-8.663,8.67A8.662,8.662,0,0,1,412.308,826.285Z" transform="translate(-403.645 -826.285)"/><path class="d" d="M465.361,826.285a8.665,8.665,0,1,1-8.659,8.67A8.668,8.668,0,0,1,465.361,826.285Z" transform="translate(-265.267 -826.285)"/><path class="c" d="M478.628,826.285a8.665,8.665,0,1,1-8.66,8.67A8.667,8.667,0,0,1,478.628,826.285Z" transform="translate(-230.667 -826.285)"/><path class="c" d="M452.1,826.285a8.665,8.665,0,1,1-8.663,8.67A8.667,8.667,0,0,1,452.1,826.285Z" transform="translate(-299.861 -826.285)"/><path class="c" d="M505.154,826.285a8.665,8.665,0,1,1-8.659,8.67A8.673,8.673,0,0,1,505.154,826.285Z" transform="translate(-161.482 -826.285)"/><path class="d" d="M518.422,826.285a8.665,8.665,0,1,1-8.663,8.67A8.664,8.664,0,0,1,518.422,826.285Z" transform="translate(-126.888 -826.285)"/><path class="d" d="M491.894,826.285a8.665,8.665,0,1,1-8.663,8.67A8.662,8.662,0,0,1,491.894,826.285Z" transform="translate(-196.076 -826.285)"/><path class="d" d="M544.948,826.285a8.665,8.665,0,1,1-8.66,8.67A8.662,8.662,0,0,1,544.948,826.285Z" transform="translate(-57.697 -826.285)"/><path class="c" d="M558.215,826.285a8.665,8.665,0,1,1-8.663,8.67A8.664,8.664,0,0,1,558.215,826.285Z" transform="translate(-23.104 -826.285)"/><path class="d" d="M571.48,826.286a8.663,8.663,0,1,1-8.663,8.667A8.658,8.658,0,0,1,571.48,826.286Z" transform="translate(11.493 -826.282)"/><path class="c" d="M531.69,826.285a8.665,8.665,0,1,1-8.667,8.67A8.662,8.662,0,0,1,531.69,826.285Z" transform="translate(-92.294 -826.285)"/></g><g transform="translate(0 292.519)"><circle class="d" cx="8.661" cy="8.661" r="8.661" transform="translate(95.719 2.645)"/><path class="c" d="M445.465,818.85a8.659,8.659,0,1,1-8.659,8.66A8.66,8.66,0,0,1,445.465,818.85Z" transform="translate(-293.229 -816.204)"/><path class="d" d="M405.676,818.85a8.659,8.659,0,1,1-8.663,8.66A8.66,8.66,0,0,1,405.676,818.85Z" transform="translate(-397.013 -816.204)"/><circle class="c" cx="8.661" cy="8.661" r="8.661" transform="translate(47.863 2.645)"/><path class="c" d="M471.994,818.85a8.659,8.659,0,1,1-8.659,8.66A8.66,8.66,0,0,1,471.994,818.85Z" transform="translate(-224.038 -816.204)"/><path class="d" d="M485.259,818.85a8.659,8.659,0,1,1-8.659,8.66A8.66,8.66,0,0,1,485.259,818.85Z" transform="translate(-189.444 -816.204)"/><circle class="d" cx="8.663" cy="8.663" r="8.663" transform="translate(191.435 2.643)"/><path class="d" d="M511.788,818.85a8.659,8.659,0,1,1-8.659,8.66A8.665,8.665,0,0,1,511.788,818.85Z" transform="translate(-120.254 -816.204)"/><circle class="c" cx="8.661" cy="8.661" r="8.661" transform="matrix(0.381, -0.925, 0.925, 0.381, 428.087, 16.019)"/><circle class="c" cx="8.661" cy="8.661" r="8.661" transform="translate(335.014 2.645)"/><circle class="c" cx="8.661" cy="8.661" r="8.661" transform="translate(526.452 2.645)"/><circle class="d" cx="8.661" cy="8.661" r="8.661" transform="translate(571.663 16.017) rotate(-67.623)"/><path class="c" d="M578.106,818.85a8.659,8.659,0,1,1-8.656,8.66A8.66,8.66,0,0,1,578.106,818.85Z" transform="translate(52.721 -816.204)"/><ellipse class="d" cx="8.661" cy="8.661" rx="8.661" ry="8.661" transform="translate(477.313 18.459) rotate(-80.731)"/></g><g transform="translate(23.929 268.328)"><path class="d" d="M425.572,811.412a8.663,8.663,0,1,1-8.663,8.663A8.662,8.662,0,0,1,425.572,811.412Z" transform="translate(-369.051 -811.412)"/><path class="c" d="M438.831,811.412a8.663,8.663,0,1,1-8.656,8.663A8.664,8.664,0,0,1,438.831,811.412Z" transform="translate(-334.452 -811.412)"/><path class="c" d="M412.308,811.412a8.663,8.663,0,1,1-8.663,8.663A8.66,8.66,0,0,1,412.308,811.412Z" transform="translate(-403.645 -811.412)"/><path class="c" d="M465.361,811.412a8.663,8.663,0,1,1-8.659,8.663A8.664,8.664,0,0,1,465.361,811.412Z" transform="translate(-265.267 -811.412)"/><path class="d" d="M478.628,811.412a8.663,8.663,0,1,1-8.66,8.663A8.664,8.664,0,0,1,478.628,811.412Z" transform="translate(-230.667 -811.412)"/><path class="d" d="M452.1,811.412a8.663,8.663,0,1,1-8.663,8.663A8.66,8.66,0,0,1,452.1,811.412Z" transform="translate(-299.861 -811.412)"/><path class="d" d="M505.154,811.412a8.663,8.663,0,1,1-8.659,8.663A8.662,8.662,0,0,1,505.154,811.412Z" transform="translate(-161.482 -811.412)"/><path class="c" d="M518.422,811.412a8.661,8.661,0,1,1-8.663,8.663A8.661,8.661,0,0,1,518.422,811.412Z" transform="translate(-126.888 -811.412)"/><path class="c" d="M491.894,811.412a8.663,8.663,0,1,1-8.663,8.663A8.66,8.66,0,0,1,491.894,811.412Z" transform="translate(-196.076 -811.412)"/><path class="c" d="M544.948,811.412a8.663,8.663,0,1,1-8.66,8.663A8.661,8.661,0,0,1,544.948,811.412Z" transform="translate(-57.697 -811.412)"/><path class="d" d="M558.215,811.412a8.661,8.661,0,1,1-8.663,8.663A8.661,8.661,0,0,1,558.215,811.412Z" transform="translate(-23.104 -811.412)"/><path class="c" d="M571.48,811.412a8.663,8.663,0,1,1-8.663,8.663A8.66,8.66,0,0,1,571.48,811.412Z" transform="translate(11.493 -811.412)"/><path class="d" d="M531.687,811.412a8.663,8.663,0,1,1-8.663,8.663A8.658,8.658,0,0,1,531.687,811.412Z" transform="translate(-92.292 -811.412)"/></g><g transform="translate(0 241.498)"><path class="c" d="M432.2,803.976a8.661,8.661,0,1,1-8.659,8.659A8.66,8.66,0,0,1,432.2,803.976Z" transform="translate(-327.823 -803.976)"/><path class="d" d="M445.465,803.976a8.661,8.661,0,1,1-8.659,8.659A8.662,8.662,0,0,1,445.465,803.976Z" transform="translate(-293.229 -803.976)"/><path class="c" d="M405.672,803.976a8.661,8.661,0,1,1-8.659,8.659A8.663,8.663,0,0,1,405.672,803.976Z" transform="translate(-397.013 -803.976)"/><path class="d" d="M418.941,803.976a8.661,8.661,0,1,1-8.663,8.659A8.657,8.657,0,0,1,418.941,803.976Z" transform="translate(-362.416 -803.976)"/><path class="d" d="M471.994,803.976a8.661,8.661,0,1,1-8.659,8.659A8.662,8.662,0,0,1,471.994,803.976Z" transform="translate(-224.038 -803.976)"/><path class="c" d="M485.259,803.976a8.661,8.661,0,1,1-8.659,8.659A8.662,8.662,0,0,1,485.259,803.976Z" transform="translate(-189.444 -803.976)"/><path class="c" d="M458.736,803.976a8.661,8.661,0,1,1-8.667,8.659A8.658,8.658,0,0,1,458.736,803.976Z" transform="translate(-258.637 -803.976)"/><path class="c" d="M511.788,803.976a8.661,8.661,0,1,1-8.659,8.659A8.66,8.66,0,0,1,511.788,803.976Z" transform="translate(-120.254 -803.976)"/><path class="d" d="M525.051,803.976a8.661,8.661,0,1,1-8.659,8.659A8.662,8.662,0,0,1,525.051,803.976Z" transform="translate(-85.66 -803.976)"/><path class="d" d="M498.526,803.976a8.661,8.661,0,1,1-8.663,8.659A8.66,8.66,0,0,1,498.526,803.976Z" transform="translate(-154.85 -803.976)"/><path class="d" d="M551.58,803.976a8.661,8.661,0,1,1-8.659,8.659A8.663,8.663,0,0,1,551.58,803.976Z" transform="translate(-16.469 -803.976)"/><path class="c" d="M564.845,803.976a8.661,8.661,0,1,1-8.66,8.659A8.659,8.659,0,0,1,564.845,803.976Z" transform="translate(18.125 -803.976)"/><path class="d" d="M578.106,803.976a8.661,8.661,0,1,1-8.656,8.659A8.663,8.663,0,0,1,578.106,803.976Z" transform="translate(52.721 -803.976)"/><path class="c" d="M538.32,803.976a8.661,8.661,0,1,1-8.663,8.659A8.66,8.66,0,0,1,538.32,803.976Z" transform="translate(-51.063 -803.976)"/></g><g transform="translate(23.929 214.661)"><path class="c" d="M425.572,796.539a8.661,8.661,0,1,1-8.663,8.663A8.662,8.662,0,0,1,425.572,796.539Z" transform="translate(-369.051 -796.535)"/><path class="d" d="M438.831,796.539a8.661,8.661,0,1,1-8.656,8.663A8.662,8.662,0,0,1,438.831,796.539Z" transform="translate(-334.452 -796.535)"/><path class="d" d="M412.308,796.539a8.661,8.661,0,1,1-8.663,8.663A8.658,8.658,0,0,1,412.308,796.539Z" transform="translate(-403.645 -796.535)"/><path class="d" d="M465.361,796.538A8.663,8.663,0,1,1,456.7,805.2,8.667,8.667,0,0,1,465.361,796.538Z" transform="translate(-265.267 -796.538)"/><path class="c" d="M478.628,796.539a8.661,8.661,0,1,1-8.66,8.663A8.666,8.666,0,0,1,478.628,796.539Z" transform="translate(-230.667 -796.535)"/><path class="c" d="M452.1,796.539a8.661,8.661,0,1,1-8.663,8.663A8.656,8.656,0,0,1,452.1,796.539Z" transform="translate(-299.861 -796.535)"/><path class="c" d="M505.154,796.539a8.661,8.661,0,1,1-8.659,8.663A8.662,8.662,0,0,1,505.154,796.539Z" transform="translate(-161.482 -796.535)"/><path class="d" d="M518.422,796.539a8.661,8.661,0,1,1-8.663,8.663A8.66,8.66,0,0,1,518.422,796.539Z" transform="translate(-126.888 -796.535)"/><path class="d" d="M491.894,796.539a8.661,8.661,0,1,1-8.663,8.663A8.658,8.658,0,0,1,491.894,796.539Z" transform="translate(-196.076 -796.535)"/><path class="d" d="M544.948,796.539a8.661,8.661,0,1,1-8.66,8.663A8.659,8.659,0,0,1,544.948,796.539Z" transform="translate(-57.697 -796.535)"/><path class="c" d="M558.215,796.539a8.661,8.661,0,1,1-8.663,8.663A8.665,8.665,0,0,1,558.215,796.539Z" transform="translate(-23.104 -796.535)"/><path class="d" d="M571.48,796.539a8.661,8.661,0,1,1-8.663,8.663A8.658,8.658,0,0,1,571.48,796.539Z" transform="translate(11.493 -796.535)"/><path class="c" d="M531.687,796.539a8.661,8.661,0,1,1-8.663,8.663A8.658,8.658,0,0,1,531.687,796.539Z" transform="translate(-92.292 -796.535)"/></g><g transform="translate(0 187.831)"><path class="d" d="M432.2,789.1a8.661,8.661,0,1,1-8.659,8.663A8.661,8.661,0,0,1,432.2,789.1Z" transform="translate(-327.823 -789.102)"/><path class="c" d="M445.469,789.1a8.661,8.661,0,1,1-8.663,8.663A8.658,8.658,0,0,1,445.469,789.1Z" transform="translate(-293.229 -789.102)"/><path class="d" d="M405.672,789.1a8.661,8.661,0,1,1-8.659,8.663A8.663,8.663,0,0,1,405.672,789.1Z" transform="translate(-397.013 -789.102)"/><path class="c" d="M418.941,789.1a8.661,8.661,0,1,1-8.663,8.663A8.663,8.663,0,0,1,418.941,789.1Z" transform="translate(-362.416 -789.102)"/><path class="c" d="M471.994,789.1a8.661,8.661,0,1,1-8.659,8.663A8.663,8.663,0,0,1,471.994,789.1Z" transform="translate(-224.038 -789.102)"/><path class="d" d="M485.259,789.1a8.661,8.661,0,1,1-8.659,8.663A8.661,8.661,0,0,1,485.259,789.1Z" transform="translate(-189.444 -789.102)"/><path class="d" d="M458.736,789.1a8.661,8.661,0,1,1-8.667,8.663A8.663,8.663,0,0,1,458.736,789.1Z" transform="translate(-258.637 -789.102)"/><path class="d" d="M511.788,789.1a8.661,8.661,0,1,1-8.659,8.663A8.663,8.663,0,0,1,511.788,789.1Z" transform="translate(-120.254 -789.102)"/><path class="c" d="M525.051,789.1a8.661,8.661,0,1,1-8.659,8.663A8.663,8.663,0,0,1,525.051,789.1Z" transform="translate(-85.66 -789.102)"/><path class="c" d="M498.529,789.1a8.661,8.661,0,1,1-8.667,8.663A8.661,8.661,0,0,1,498.529,789.1Z" transform="translate(-154.853 -789.102)"/><path class="c" d="M551.58,789.1a8.661,8.661,0,1,1-8.659,8.663A8.663,8.663,0,0,1,551.58,789.1Z" transform="translate(-16.469 -789.102)"/><path class="d" d="M564.845,789.1a8.661,8.661,0,1,1-8.66,8.663A8.658,8.658,0,0,1,564.845,789.1Z" transform="translate(18.125 -789.102)"/><path class="c" d="M578.109,789.1a8.661,8.661,0,1,1-8.659,8.663A8.661,8.661,0,0,1,578.109,789.1Z" transform="translate(52.719 -789.102)"/><path class="d" d="M538.32,789.1a8.661,8.661,0,1,1-8.663,8.663A8.66,8.66,0,0,1,538.32,789.1Z" transform="translate(-51.063 -789.102)"/></g><g transform="translate(23.929 160.997)"><path class="d" d="M425.572,781.665a8.663,8.663,0,1,1-8.663,8.66A8.658,8.658,0,0,1,425.572,781.665Z" transform="translate(-369.051 -781.665)"/><path class="c" d="M438.831,781.665a8.663,8.663,0,1,1-8.656,8.66A8.661,8.661,0,0,1,438.831,781.665Z" transform="translate(-334.452 -781.665)"/><path class="c" d="M412.308,781.665a8.663,8.663,0,1,1-8.663,8.66A8.657,8.657,0,0,1,412.308,781.665Z" transform="translate(-403.645 -781.665)"/><path class="c" d="M465.361,781.665a8.663,8.663,0,1,1-8.659,8.66A8.661,8.661,0,0,1,465.361,781.665Z" transform="translate(-265.267 -781.665)"/><path class="d" d="M478.628,781.665a8.663,8.663,0,1,1-8.66,8.66A8.663,8.663,0,0,1,478.628,781.665Z" transform="translate(-230.667 -781.665)"/><path class="d" d="M452.1,781.665a8.663,8.663,0,1,1-8.663,8.66A8.663,8.663,0,0,1,452.1,781.665Z" transform="translate(-299.861 -781.665)"/><path class="d" d="M505.154,781.665a8.663,8.663,0,1,1-8.659,8.66A8.661,8.661,0,0,1,505.154,781.665Z" transform="translate(-161.482 -781.665)"/><path class="c" d="M518.422,781.665a8.663,8.663,0,1,1-8.663,8.66A8.66,8.66,0,0,1,518.422,781.665Z" transform="translate(-126.888 -781.665)"/><path class="c" d="M491.894,781.665a8.663,8.663,0,1,1-8.663,8.66A8.657,8.657,0,0,1,491.894,781.665Z" transform="translate(-196.076 -781.665)"/><path class="c" d="M544.948,781.665a8.663,8.663,0,1,1-8.66,8.66A8.658,8.658,0,0,1,544.948,781.665Z" transform="translate(-57.697 -781.665)"/><path class="d" d="M558.212,781.665a8.663,8.663,0,1,1-8.659,8.66A8.656,8.656,0,0,1,558.212,781.665Z" transform="translate(-23.104 -781.665)"/><path class="c" d="M571.48,781.665a8.663,8.663,0,1,1-8.663,8.66A8.657,8.657,0,0,1,571.48,781.665Z" transform="translate(11.493 -781.665)"/><path class="d" d="M531.69,781.665a8.663,8.663,0,1,1-8.667,8.66A8.658,8.658,0,0,1,531.69,781.665Z" transform="translate(-92.294 -781.665)"/></g><g transform="translate(0 134.164)"><path class="c" d="M432.2,774.228a8.661,8.661,0,1,1-8.659,8.663A8.661,8.661,0,0,1,432.2,774.228Z" transform="translate(-327.823 -774.228)"/><path class="d" d="M445.465,774.228a8.661,8.661,0,1,1-8.659,8.663A8.663,8.663,0,0,1,445.465,774.228Z" transform="translate(-293.229 -774.228)"/><path class="c" d="M405.676,774.228a8.661,8.661,0,1,1-8.663,8.663A8.662,8.662,0,0,1,405.676,774.228Z" transform="translate(-397.013 -774.228)"/><path class="d" d="M418.941,774.228a8.661,8.661,0,1,1-8.663,8.663A8.66,8.66,0,0,1,418.941,774.228Z" transform="translate(-362.416 -774.228)"/><path class="d" d="M471.994,774.228a8.661,8.661,0,1,1-8.659,8.663A8.663,8.663,0,0,1,471.994,774.228Z" transform="translate(-224.038 -774.228)"/><path class="c" d="M485.259,774.228a8.661,8.661,0,1,1-8.659,8.663A8.663,8.663,0,0,1,485.259,774.228Z" transform="translate(-189.444 -774.228)"/><path class="c" d="M458.736,774.228a8.661,8.661,0,1,1-8.667,8.663A8.661,8.661,0,0,1,458.736,774.228Z" transform="translate(-258.637 -774.228)"/><path class="c" d="M511.788,774.228a8.661,8.661,0,1,1-8.659,8.663A8.666,8.666,0,0,1,511.788,774.228Z" transform="translate(-120.254 -774.228)"/><path class="d" d="M525.055,774.228a8.661,8.661,0,1,1-8.663,8.663A8.662,8.662,0,0,1,525.055,774.228Z" transform="translate(-85.66 -774.228)"/><path class="d" d="M498.53,774.228a8.661,8.661,0,1,1-8.667,8.663A8.66,8.66,0,0,1,498.53,774.228Z" transform="translate(-154.85 -774.228)"/><path class="d" d="M551.58,774.228a8.661,8.661,0,1,1-8.659,8.663A8.663,8.663,0,0,1,551.58,774.228Z" transform="translate(-16.469 -774.228)"/><path class="c" d="M564.845,774.228a8.661,8.661,0,1,1-8.66,8.663A8.66,8.66,0,0,1,564.845,774.228Z" transform="translate(18.125 -774.228)"/><path class="d" d="M578.106,774.228a8.661,8.661,0,1,1-8.656,8.663A8.663,8.663,0,0,1,578.106,774.228Z" transform="translate(52.721 -774.228)"/><path class="c" d="M538.32,774.228a8.661,8.661,0,1,1-8.663,8.663A8.662,8.662,0,0,1,538.32,774.228Z" transform="translate(-51.063 -774.228)"/></g><g transform="translate(23.929 107.33)"><path class="c" d="M425.572,766.791a8.663,8.663,0,1,1-8.663,8.663A8.656,8.656,0,0,1,425.572,766.791Z" transform="translate(-369.051 -766.791)"/><path class="d" d="M438.831,766.791a8.663,8.663,0,1,1-8.656,8.663A8.664,8.664,0,0,1,438.831,766.791Z" transform="translate(-334.452 -766.791)"/><path class="d" d="M412.308,766.791a8.663,8.663,0,1,1-8.663,8.663A8.66,8.66,0,0,1,412.308,766.791Z" transform="translate(-403.645 -766.791)"/><path class="d" d="M465.361,766.791a8.663,8.663,0,1,1-8.659,8.663A8.664,8.664,0,0,1,465.361,766.791Z" transform="translate(-265.267 -766.791)"/><path class="c" d="M478.628,766.791a8.663,8.663,0,1,1-8.66,8.663A8.663,8.663,0,0,1,478.628,766.791Z" transform="translate(-230.667 -766.791)"/><path class="c" d="M452.1,766.791a8.663,8.663,0,1,1-8.663,8.663A8.665,8.665,0,0,1,452.1,766.791Z" transform="translate(-299.861 -766.791)"/><path class="c" d="M505.154,766.791a8.663,8.663,0,1,1-8.659,8.663A8.662,8.662,0,0,1,505.154,766.791Z" transform="translate(-161.482 -766.791)"/><path class="d" d="M518.422,766.791a8.663,8.663,0,1,1-8.663,8.663A8.66,8.66,0,0,1,518.422,766.791Z" transform="translate(-126.888 -766.791)"/><path class="d" d="M491.894,766.791a8.663,8.663,0,1,1-8.663,8.663A8.66,8.66,0,0,1,491.894,766.791Z" transform="translate(-196.076 -766.791)"/><path class="d" d="M544.948,766.791a8.663,8.663,0,1,1-8.66,8.663A8.658,8.658,0,0,1,544.948,766.791Z" transform="translate(-57.697 -766.791)"/><path class="c" d="M558.215,766.791a8.663,8.663,0,1,1-8.663,8.663A8.656,8.656,0,0,1,558.215,766.791Z" transform="translate(-23.104 -766.791)"/><path class="d" d="M571.48,766.791a8.663,8.663,0,1,1-8.663,8.663A8.658,8.658,0,0,1,571.48,766.791Z" transform="translate(11.493 -766.791)"/><path class="c" d="M531.69,766.791a8.663,8.663,0,1,1-8.667,8.663A8.658,8.658,0,0,1,531.69,766.791Z" transform="translate(-92.294 -766.791)"/></g><g transform="translate(0 80.497)"><path class="d" d="M432.2,759.354a8.663,8.663,0,1,1-8.659,8.663A8.663,8.663,0,0,1,432.2,759.354Z" transform="translate(-327.823 -759.354)"/><path class="c" d="M445.465,759.354a8.663,8.663,0,1,1-8.659,8.663A8.665,8.665,0,0,1,445.465,759.354Z" transform="translate(-293.229 -759.354)"/><path class="d" d="M405.676,759.354a8.663,8.663,0,1,1-8.663,8.663A8.67,8.67,0,0,1,405.676,759.354Z" transform="translate(-397.013 -759.354)"/><path class="c" d="M418.941,759.354a8.663,8.663,0,1,1-8.663,8.663A8.66,8.66,0,0,1,418.941,759.354Z" transform="translate(-362.416 -759.354)"/><path class="c" d="M471.994,759.354a8.663,8.663,0,1,1-8.659,8.663A8.665,8.665,0,0,1,471.994,759.354Z" transform="translate(-224.038 -759.354)"/><path class="d" d="M485.259,759.354a8.663,8.663,0,1,1-8.659,8.663A8.665,8.665,0,0,1,485.259,759.354Z" transform="translate(-189.444 -759.354)"/><path class="d" d="M458.736,759.354a8.663,8.663,0,1,1-8.667,8.663A8.661,8.661,0,0,1,458.736,759.354Z" transform="translate(-258.637 -759.354)"/><path class="d" d="M511.788,759.354a8.663,8.663,0,1,1-8.659,8.663A8.669,8.669,0,0,1,511.788,759.354Z" transform="translate(-120.254 -759.354)"/><path class="c" d="M525.051,759.354a8.663,8.663,0,1,1-8.659,8.663A8.66,8.66,0,0,1,525.051,759.354Z" transform="translate(-85.66 -759.354)"/><path class="c" d="M498.526,759.354a8.663,8.663,0,1,1-8.663,8.663A8.658,8.658,0,0,1,498.526,759.354Z" transform="translate(-154.85 -759.354)"/><path class="c" d="M551.58,759.354a8.663,8.663,0,1,1-8.659,8.663A8.666,8.666,0,0,1,551.58,759.354Z" transform="translate(-16.469 -759.354)"/><path class="d" d="M564.845,759.354a8.663,8.663,0,1,1-8.66,8.663A8.66,8.66,0,0,1,564.845,759.354Z" transform="translate(18.125 -759.354)"/><path class="c" d="M578.106,759.354a8.663,8.663,0,1,1-8.656,8.663A8.666,8.666,0,0,1,578.106,759.354Z" transform="translate(52.721 -759.354)"/><path class="d" d="M538.32,759.354a8.663,8.663,0,1,1-8.663,8.663A8.663,8.663,0,0,1,538.32,759.354Z" transform="translate(-51.063 -759.354)"/></g><g transform="translate(23.931 53.667)"><path class="d" d="M425.572,751.918a8.661,8.661,0,1,1-8.663,8.659A8.663,8.663,0,0,1,425.572,751.918Z" transform="translate(-369.053 -751.918)"/><path class="c" d="M438.831,751.918a8.661,8.661,0,1,1-8.656,8.659A8.661,8.661,0,0,1,438.831,751.918Z" transform="translate(-334.454 -751.918)"/><circle class="c" cx="8.661" cy="8.661" r="8.661"/><path class="c" d="M465.361,751.918a8.661,8.661,0,1,1-8.659,8.659A8.661,8.661,0,0,1,465.361,751.918Z" transform="translate(-265.268 -751.918)"/><path class="d" d="M478.628,751.918a8.661,8.661,0,1,1-8.66,8.659A8.662,8.662,0,0,1,478.628,751.918Z" transform="translate(-230.669 -751.918)"/><circle class="d" cx="8.661" cy="8.661" r="8.661" transform="translate(143.577)"/><path class="d" d="M505.154,751.918a8.661,8.661,0,1,1-8.659,8.659A8.661,8.661,0,0,1,505.154,751.918Z" transform="translate(-161.484 -751.918)"/><path class="c" d="M518.422,751.918a8.661,8.661,0,1,1-8.663,8.659A8.659,8.659,0,0,1,518.422,751.918Z" transform="translate(-126.89 -751.918)"/><circle class="c" cx="8.661" cy="8.661" r="8.661" transform="translate(287.155)"/><circle class="c" cx="8.661" cy="8.661" r="8.661" transform="translate(478.589)"/><path class="d" d="M558.215,751.918a8.661,8.661,0,1,1-8.663,8.659A8.662,8.662,0,0,1,558.215,751.918Z" transform="translate(-23.106 -751.918)"/><circle class="c" cx="8.661" cy="8.661" r="8.661" transform="translate(574.31)"/><path class="d" d="M531.687,751.918a8.661,8.661,0,1,1-8.663,8.659A8.657,8.657,0,0,1,531.687,751.918Z" transform="translate(-92.294 -751.918)"/></g><g transform="translate(0 26.83)"><path class="c" d="M432.2,744.481a8.663,8.663,0,1,1-8.659,8.663A8.661,8.661,0,0,1,432.2,744.481Z" transform="translate(-327.823 -744.477)"/><path class="d" d="M445.469,744.481a8.661,8.661,0,1,1-8.663,8.663A8.662,8.662,0,0,1,445.469,744.481Z" transform="translate(-293.229 -744.477)"/><path class="c" d="M405.676,744.481a8.661,8.661,0,1,1-8.663,8.663A8.663,8.663,0,0,1,405.676,744.481Z" transform="translate(-397.013 -744.477)"/><circle class="d" cx="8.661" cy="8.661" r="8.661" transform="translate(47.863 0.005)"/><path class="d" d="M471.994,744.481a8.661,8.661,0,1,1-8.659,8.663A8.663,8.663,0,0,1,471.994,744.481Z" transform="translate(-224.038 -744.477)"/><path class="c" d="M485.259,744.48a8.663,8.663,0,1,1-8.659,8.667A8.669,8.669,0,0,1,485.259,744.48Z" transform="translate(-189.444 -744.48)"/><path class="c" d="M458.736,744.481a8.663,8.663,0,1,1-8.667,8.663A8.661,8.661,0,0,1,458.736,744.481Z" transform="translate(-258.637 -744.477)"/><path class="c" d="M511.788,744.481a8.663,8.663,0,1,1-8.659,8.663A8.663,8.663,0,0,1,511.788,744.481Z" transform="translate(-120.254 -744.477)"/><path class="d" d="M525.055,744.481a8.661,8.661,0,1,1-8.663,8.663A8.662,8.662,0,0,1,525.055,744.481Z" transform="translate(-85.66 -744.477)"/><path class="d" d="M498.529,744.481a8.663,8.663,0,1,1-8.667,8.663A8.656,8.656,0,0,1,498.529,744.481Z" transform="translate(-154.853 -744.477)"/><path class="d" d="M551.58,744.481a8.663,8.663,0,1,1-8.659,8.663A8.663,8.663,0,0,1,551.58,744.481Z" transform="translate(-16.469 -744.477)"/><path class="c" d="M564.845,744.48a8.663,8.663,0,1,1-8.66,8.667A8.671,8.671,0,0,1,564.845,744.48Z" transform="translate(18.125 -744.48)"/><path class="d" d="M578.106,744.481a8.661,8.661,0,1,1-8.656,8.663A8.663,8.663,0,0,1,578.106,744.481Z" transform="translate(52.721 -744.477)"/><path class="c" d="M538.32,744.48a8.663,8.663,0,1,1-8.663,8.667A8.668,8.668,0,0,1,538.32,744.48Z" transform="translate(-51.063 -744.48)"/></g><g transform="translate(23.929)"><path class="c" d="M425.572,737.044a8.663,8.663,0,1,1-8.663,8.663A8.666,8.666,0,0,1,425.572,737.044Z" transform="translate(-369.051 -737.044)"/><path class="d" d="M438.835,737.044a8.663,8.663,0,1,1-8.659,8.663A8.661,8.661,0,0,1,438.835,737.044Z" transform="translate(-334.452 -737.044)"/><path class="d" d="M412.308,737.044a8.663,8.663,0,1,1-8.663,8.663A8.658,8.658,0,0,1,412.308,737.044Z" transform="translate(-403.645 -737.044)"/><path class="d" d="M465.363,737.044a8.663,8.663,0,1,1-8.659,8.663A8.664,8.664,0,0,1,465.363,737.044Z" transform="translate(-265.264 -737.044)"/><path class="c" d="M478.628,737.044a8.663,8.663,0,1,1-8.66,8.663A8.663,8.663,0,0,1,478.628,737.044Z" transform="translate(-230.667 -737.044)"/><path class="c" d="M452.1,737.044a8.663,8.663,0,1,1-8.667,8.663A8.66,8.66,0,0,1,452.1,737.044Z" transform="translate(-299.861 -737.044)"/><path class="c" d="M505.154,737.044a8.663,8.663,0,1,1-8.659,8.663A8.662,8.662,0,0,1,505.154,737.044Z" transform="translate(-161.482 -737.044)"/><path class="d" d="M518.423,737.044a8.663,8.663,0,1,1-8.663,8.663A8.657,8.657,0,0,1,518.423,737.044Z" transform="translate(-126.886 -737.044)"/><path class="d" d="M491.894,737.044a8.663,8.663,0,1,1-8.663,8.663A8.661,8.661,0,0,1,491.894,737.044Z" transform="translate(-196.076 -737.044)"/><path class="d" d="M544.951,737.044a8.663,8.663,0,1,1-8.663,8.663A8.666,8.666,0,0,1,544.951,737.044Z" transform="translate(-57.697 -737.044)"/><path class="c" d="M558.215,737.044a8.663,8.663,0,1,1-8.663,8.663A8.666,8.666,0,0,1,558.215,737.044Z" transform="translate(-23.104 -737.044)"/><path class="d" d="M571.48,737.044a8.663,8.663,0,1,1-8.663,8.663A8.658,8.658,0,0,1,571.48,737.044Z" transform="translate(11.493 -737.044)"/><path class="c" d="M531.687,737.044a8.663,8.663,0,1,1-8.663,8.663A8.658,8.658,0,0,1,531.687,737.044Z" transform="translate(-92.292 -737.044)"/></g></g></g></g></g></svg>