<svg xmlns="http://www.w3.org/2000/svg" xmlns:xlink="http://www.w3.org/1999/xlink" width="615.968" height="344.764" viewBox="0 0 615.968 344.764"><defs><style>.a{fill:#525fbe;}.b{clip-path:url(#a);}.c{fill:#32b9fd;}.d{fill:#ff3823;}</style><clipPath id="a"><rect class="a" width="615.968" height="344.765" transform="translate(750.032 2499.588)"/></clipPath></defs><g transform="translate(-750.032 -2499.588)"><rect class="a" width="615.968" height="344.765" transform="translate(750.032 2499.588)"/><g class="b"><g transform="translate(757)"><g transform="translate(-79.764 2673.759)"><path class="c" d="M222.314,798.109h0v-19.1h0a19.081,19.081,0,0,0-19.073,19.077v.02h0v19.057h18.4c.229,0,.447.016.676.016Z" transform="translate(-184.152 -779.012)"/><path class="d" d="M236.651,789.17c.008-.23.016-.451.016-.676H198.5a19.084,19.084,0,0,0,19.081,19.073h19.073Z" transform="translate(-198.497 -750.34)"/><path class="c" d="M227.054,807.567V788.51h-18.4c-.221-.008-.447-.016-.676-.016v19.073h0V826.66h0a19.078,19.078,0,0,0,19.073-19.077v-.016Z" transform="translate(-169.819 -750.34)"/><path class="d" d="M227.068,783.761h-.016v0l-.06,0H208v18.4c-.008.229-.016.446-.016.676h38.17A19.077,19.077,0,0,0,227.068,783.761Z" transform="translate(-169.825 -764.664)"/><g transform="translate(92.13)"><path class="c" d="M241.294,798.109h-.008v-19.1h0a19.081,19.081,0,0,0-19.077,19.077v.02h0v19.057h18.4c.225,0,.455.016.684.016Z" transform="translate(-203.128 -779.012)"/><path class="d" d="M255.617,789.17c.008-.23.016-.451.016-.676H217.467a19.075,19.075,0,0,0,19.073,19.073h19.077Z" transform="translate(-217.467 -750.34)"/><path class="c" d="M246.031,807.567l-.008-.069.008-18.989h-18.4c-.221-.008-.451-.016-.676-.016v19.073h0V826.66h0a19.073,19.073,0,0,0,19.073-19.077v-.016Z" transform="translate(-188.792 -750.34)"/><path class="d" d="M246.045,783.761h-.024v0l-.064,0H226.964v18.4c0,.229-.016.446-.016.676h38.17A19.075,19.075,0,0,0,246.045,783.761Z" transform="translate(-188.798 -764.664)"/></g><g transform="translate(190.813)"><path class="c" d="M260.251,798.109h0v-19.1h0a19.075,19.075,0,0,0-19.073,19.077v.02h0v19.057h18.4c.229,0,.451.016.676.016Z" transform="translate(-222.089 -779.012)"/><path class="d" d="M274.588,789.17c.008-.23.016-.451.016-.676h-38.17a19.087,19.087,0,0,0,19.081,19.073h19.073Z" transform="translate(-236.434 -750.34)"/><path class="c" d="M264.995,807.567V788.51h-18.4c-.225-.008-.447-.016-.676-.016v19.073h0V826.66h0a19.079,19.079,0,0,0,19.077-19.077v-.016Z" transform="translate(-207.756 -750.34)"/><path class="d" d="M265.009,783.761h-.016v0l-.072,0H245.932v18.4c-.008.229-.016.446-.016.676H284.09A19.077,19.077,0,0,0,265.009,783.761Z" transform="translate(-207.762 -764.664)"/></g><g transform="translate(286.222)"><path class="c" d="M279.22,798.109h0v-19.1h0a19.081,19.081,0,0,0-19.073,19.077v.02h0v19.057h18.4c.229,0,.455.016.676.016Z" transform="translate(-241.058 -779.012)"/><path class="d" d="M293.557,789.17c.008-.23.016-.451.016-.676H255.4a19.087,19.087,0,0,0,19.081,19.073h19.073Z" transform="translate(-255.403 -750.34)"/><path class="c" d="M283.968,807.567l-.008-.069.008-18.989h-18.4c-.221-.008-.447-.016-.676-.016v19.073h0V826.66h0a19.073,19.073,0,0,0,19.073-19.077v-.016Z" transform="translate(-226.725 -750.34)"/><path class="d" d="M283.974,783.761h-.016v0l-.06,0h-19v18.4c-.008.229-.016.446-.016.676h38.174A19.077,19.077,0,0,0,283.974,783.761Z" transform="translate(-226.731 -764.664)"/></g><g transform="translate(381.63)"><path class="c" d="M298.189,798.109h0v-19.1h0a19.081,19.081,0,0,0-19.073,19.077v.02h0v19.057h18.4c.229,0,.447.016.676.016Z" transform="translate(-260.027 -779.012)"/><path class="d" d="M312.526,789.17c.008-.23.016-.451.016-.676h-38.17a19.084,19.084,0,0,0,19.081,19.073h19.073Z" transform="translate(-274.372 -750.34)"/><path class="c" d="M302.929,807.567V788.51h-18.4c-.221-.008-.447-.016-.676-.016v19.073h0V826.66h0a19.078,19.078,0,0,0,19.073-19.077v-.016Z" transform="translate(-245.694 -750.34)"/><path class="d" d="M302.943,783.761h-.016v0l-.06,0h-19v18.4c-.008.229-.016.446-.016.676h38.17A19.077,19.077,0,0,0,302.943,783.761Z" transform="translate(-245.7 -764.664)"/></g><g transform="translate(477.033)"><path class="c" d="M317.163,798.109h0v-19.1h0a19.07,19.07,0,0,0-19.073,19.077v.02h-.008l.008.068-.008,18.989h18.4c.221,0,.451.016.676.016Z" transform="translate(-279.001 -779.012)"/><path class="d" d="M331.494,789.17c.008-.23.016-.451.016-.676H293.34a19.076,19.076,0,0,0,19.077,19.073h19.077Z" transform="translate(-293.34 -750.34)"/><path class="c" d="M321.9,807.567V788.51H303.5c-.229-.008-.455-.016-.676-.016v19.073h0V826.66h0A19.083,19.083,0,0,0,321.9,807.583v-.016Z" transform="translate(-264.662 -750.34)"/><path class="d" d="M321.911,783.761h-.016v0l-.068,0H302.838v18.4c-.008.229-.016.446-.016.676h38.166A19.071,19.071,0,0,0,321.911,783.761Z" transform="translate(-264.668 -764.664)"/></g><g transform="translate(572.443)"><path class="c" d="M336.126,798.109h0v-19.1h0a19.075,19.075,0,0,0-19.073,19.077v.02h0v19.057h18.4c.229,0,.447.016.676.016Z" transform="translate(-297.964 -779.012)"/><path class="d" d="M350.463,789.17c.008-.23.016-.451.016-.676h-38.17a19.082,19.082,0,0,0,19.081,19.073h19.073Z" transform="translate(-312.309 -750.34)"/><path class="c" d="M340.866,807.567V788.51h-18.4c-.229-.008-.447-.016-.676-.016v19.073h0V826.66h0a19.083,19.083,0,0,0,19.073-19.077v-.016Z" transform="translate(-283.631 -750.34)"/><path class="d" d="M340.88,783.761h-.016v0l-.068,0H321.807v18.4c-.008.229-.016.446-.016.676h38.17A19.082,19.082,0,0,0,340.88,783.761Z" transform="translate(-283.637 -764.664)"/></g><g transform="translate(673.786)"><path class="c" d="M355.1,798.109h0v-19.1h0a19.086,19.086,0,0,0-19.085,19.077v.02h0v19.057h18.409c.217,0,.447.016.676.016Z" transform="translate(-316.938 -779.012)"/><path class="d" d="M369.427,789.17c.016-.23.024-.451.024-.676H331.277a19.076,19.076,0,0,0,19.077,19.073h19.081Z" transform="translate(-331.277 -750.34)"/><path class="c" d="M359.835,807.567V788.51h-18.4c-.229-.008-.459-.016-.676-.016v19.073h0V826.66h0a19.083,19.083,0,0,0,19.073-19.077v-.016Z" transform="translate(-302.596 -750.34)"/><path class="d" d="M359.849,783.761h-.016v0l-.073,0H340.776v18.4c-.008.229-.016.446-.016.676h38.162A19.07,19.07,0,0,0,359.849,783.761Z" transform="translate(-302.602 -764.664)"/></g><g transform="translate(766.927)"><path class="c" d="M374.069,798.109h0v-19.1h0A19.07,19.07,0,0,0,355,798.089v.02h-.008l.008.068-.008,18.989h18.405c.229,0,.451.016.676.016Z" transform="translate(-335.907 -779.012)"/><path class="d" d="M388.4,789.17c.008-.23.016-.451.016-.676h-38.17a19.082,19.082,0,0,0,19.081,19.073H388.4Z" transform="translate(-350.246 -750.34)"/><path class="c" d="M378.807,807.567V788.51h-18.4c-.225-.008-.455-.016-.676-.016v19.073h0V826.66h0a19.084,19.084,0,0,0,19.077-19.077v-.016Z" transform="translate(-321.568 -750.34)"/><path class="d" d="M378.821,783.761H378.8v0l-.073,0H359.744v18.4c-.008.229-.016.446-.016.676H397.9A19.082,19.082,0,0,0,378.821,783.761Z" transform="translate(-321.574 -764.664)"/></g><g transform="translate(859.283)"><path class="c" d="M374.069,798.109h0v-19.1h0A19.07,19.07,0,0,0,355,798.089v.02h-.008l.008.068-.008,18.989h18.405c.229,0,.451.016.676.016Z" transform="translate(-335.907 -779.012)"/><path class="d" d="M388.4,789.17c.008-.23.016-.451.016-.676h-38.17a19.082,19.082,0,0,0,19.081,19.073H388.4Z" transform="translate(-350.246 -750.34)"/><path class="c" d="M378.807,807.567V788.51h-18.4c-.225-.008-.455-.016-.676-.016v19.073h0V826.66h0a19.084,19.084,0,0,0,19.077-19.077v-.016Z" transform="translate(-321.568 -750.34)"/><path class="d" d="M378.821,783.761H378.8v0l-.073,0H359.744v18.4c-.008.229-.016.446-.016.676H397.9A19.082,19.082,0,0,0,378.821,783.761Z" transform="translate(-321.574 -764.664)"/></g></g><g transform="translate(-134.449 2576.542)"><g transform="translate(97.217)"><path class="c" d="M222.314,798.109h0v-19.1h0a19.081,19.081,0,0,0-19.073,19.077v.02h0v19.057h18.4c.229,0,.447.016.676.016Z" transform="translate(-184.152 -779.012)"/><path class="d" d="M236.651,789.17c.008-.23.016-.451.016-.676H198.5a19.084,19.084,0,0,0,19.081,19.073h19.073Z" transform="translate(-198.497 -750.34)"/><path class="c" d="M227.054,807.567V788.51h-18.4c-.221-.008-.447-.016-.676-.016v19.073h0V826.66h0a19.078,19.078,0,0,0,19.073-19.077v-.016Z" transform="translate(-169.819 -750.34)"/><path class="d" d="M227.068,783.761h-.016v0l-.06,0H208v18.4c-.008.229-.016.446-.016.676h38.17A19.077,19.077,0,0,0,227.068,783.761Z" transform="translate(-169.825 -764.664)"/></g><path class="c" d="M222.314,798.109h0v-19.1h0a19.081,19.081,0,0,0-19.073,19.077v.02h0v19.057h18.4c.229,0,.447.016.676.016Z" transform="translate(-184.152 -779.012)"/><path class="d" d="M236.651,789.17c.008-.23.016-.451.016-.676H198.5a19.084,19.084,0,0,0,19.081,19.073h19.073Z" transform="translate(-198.497 -750.34)"/><path class="c" d="M227.054,807.567V788.51h-18.4c-.221-.008-.447-.016-.676-.016v19.073h0V826.66h0a19.078,19.078,0,0,0,19.073-19.077v-.016Z" transform="translate(-169.819 -750.34)"/><path class="d" d="M227.068,783.761h-.016v0l-.06,0H208v18.4c-.008.229-.016.446-.016.676h38.17A19.077,19.077,0,0,0,227.068,783.761Z" transform="translate(-169.825 -764.664)"/><g transform="translate(196.828)"><path class="c" d="M241.294,798.109h-.008v-19.1h0a19.081,19.081,0,0,0-19.077,19.077v.02h0v19.057h18.4c.225,0,.455.016.684.016Z" transform="translate(-203.128 -779.012)"/><path class="d" d="M255.617,789.17c.008-.23.016-.451.016-.676H217.467a19.075,19.075,0,0,0,19.073,19.073h19.077Z" transform="translate(-217.467 -750.34)"/><path class="c" d="M246.031,807.567l-.008-.069.008-18.989h-18.4c-.221-.008-.451-.016-.676-.016v19.073h0V826.66h0a19.073,19.073,0,0,0,19.073-19.077v-.016Z" transform="translate(-188.792 -750.34)"/><path class="d" d="M246.045,783.761h-.024v0l-.064,0H226.964v18.4c0,.229-.016.446-.016.676h38.17A19.075,19.075,0,0,0,246.045,783.761Z" transform="translate(-188.798 -764.664)"/></g><g transform="translate(291.829)"><path class="c" d="M260.251,798.109h0v-19.1h0a19.075,19.075,0,0,0-19.073,19.077v.02h0v19.057h18.4c.229,0,.451.016.676.016Z" transform="translate(-222.089 -779.012)"/><path class="d" d="M274.588,789.17c.008-.23.016-.451.016-.676h-38.17a19.087,19.087,0,0,0,19.081,19.073h19.073Z" transform="translate(-236.434 -750.34)"/><path class="c" d="M264.995,807.567V788.51h-18.4c-.225-.008-.447-.016-.676-.016v19.073h0V826.66h0a19.079,19.079,0,0,0,19.077-19.077v-.016Z" transform="translate(-207.756 -750.34)"/><path class="d" d="M265.009,783.761h-.016v0l-.072,0H245.932v18.4c-.008.229-.016.446-.016.676H284.09A19.077,19.077,0,0,0,265.009,783.761Z" transform="translate(-207.762 -764.664)"/></g><g transform="translate(387.216)"><path class="c" d="M279.22,798.109h0v-19.1h0a19.081,19.081,0,0,0-19.073,19.077v.02h0v19.057h18.4c.229,0,.455.016.676.016Z" transform="translate(-241.058 -779.012)"/><path class="d" d="M293.557,789.17c.008-.23.016-.451.016-.676H255.4a19.087,19.087,0,0,0,19.081,19.073h19.073Z" transform="translate(-255.403 -750.34)"/><path class="c" d="M283.968,807.567l-.008-.069.008-18.989h-18.4c-.221-.008-.447-.016-.676-.016v19.073h0V826.66h0a19.073,19.073,0,0,0,19.073-19.077v-.016Z" transform="translate(-226.725 -750.34)"/><path class="d" d="M283.974,783.761h-.016v0l-.06,0h-19v18.4c-.008.229-.016.446-.016.676h38.174A19.077,19.077,0,0,0,283.974,783.761Z" transform="translate(-226.731 -764.664)"/></g><g transform="translate(482.603)"><path class="c" d="M298.189,798.109h0v-19.1h0a19.081,19.081,0,0,0-19.073,19.077v.02h0v19.057h18.4c.229,0,.447.016.676.016Z" transform="translate(-260.027 -779.012)"/><path class="d" d="M312.526,789.17c.008-.23.016-.451.016-.676h-38.17a19.084,19.084,0,0,0,19.081,19.073h19.073Z" transform="translate(-274.372 -750.34)"/><path class="c" d="M302.929,807.567V788.51h-18.4c-.221-.008-.447-.016-.676-.016v19.073h0V826.66h0a19.078,19.078,0,0,0,19.073-19.077v-.016Z" transform="translate(-245.694 -750.34)"/><path class="d" d="M302.943,783.761h-.016v0l-.06,0h-19v18.4c-.008.229-.016.446-.016.676h38.17A19.077,19.077,0,0,0,302.943,783.761Z" transform="translate(-245.7 -764.664)"/></g><g transform="translate(577.985)"><path class="c" d="M317.163,798.109h0v-19.1h0a19.07,19.07,0,0,0-19.073,19.077v.02h-.008l.008.068-.008,18.989h18.4c.221,0,.451.016.676.016Z" transform="translate(-279.001 -779.012)"/><path class="d" d="M331.494,789.17c.008-.23.016-.451.016-.676H293.34a19.076,19.076,0,0,0,19.077,19.073h19.077Z" transform="translate(-293.34 -750.34)"/><path class="c" d="M321.9,807.567V788.51H303.5c-.229-.008-.455-.016-.676-.016v19.073h0V826.66h0A19.083,19.083,0,0,0,321.9,807.583v-.016Z" transform="translate(-264.662 -750.34)"/><path class="d" d="M321.911,783.761h-.016v0l-.068,0H302.838v18.4c-.008.229-.016.446-.016.676h38.166A19.071,19.071,0,0,0,321.911,783.761Z" transform="translate(-264.668 -764.664)"/></g><g transform="translate(673.373)"><path class="c" d="M336.126,798.109h0v-19.1h0a19.075,19.075,0,0,0-19.073,19.077v.02h0v19.057h18.4c.229,0,.447.016.676.016Z" transform="translate(-297.964 -779.012)"/><path class="d" d="M350.463,789.17c.008-.23.016-.451.016-.676h-38.17a19.082,19.082,0,0,0,19.081,19.073h19.073Z" transform="translate(-312.309 -750.34)"/><path class="c" d="M340.866,807.567V788.51h-18.4c-.229-.008-.447-.016-.676-.016v19.073h0V826.66h0a19.083,19.083,0,0,0,19.073-19.077v-.016Z" transform="translate(-283.631 -750.34)"/><path class="d" d="M340.88,783.761h-.016v0l-.068,0H321.807v18.4c-.008.229-.016.446-.016.676h38.17A19.082,19.082,0,0,0,340.88,783.761Z" transform="translate(-283.637 -764.664)"/></g><g transform="translate(778.094)"><path class="c" d="M355.1,798.109h0v-19.1h0a19.086,19.086,0,0,0-19.085,19.077v.02h0v19.057h18.409c.217,0,.447.016.676.016Z" transform="translate(-316.938 -779.012)"/><path class="d" d="M369.427,789.17c.016-.23.024-.451.024-.676H331.277a19.076,19.076,0,0,0,19.077,19.073h19.081Z" transform="translate(-331.277 -750.34)"/><path class="c" d="M359.835,807.567V788.51h-18.4c-.229-.008-.459-.016-.676-.016v19.073h0V826.66h0a19.083,19.083,0,0,0,19.073-19.077v-.016Z" transform="translate(-302.596 -750.34)"/><path class="d" d="M359.849,783.761h-.016v0l-.073,0H340.776v18.4c-.008.229-.016.446-.016.676h38.162A19.07,19.07,0,0,0,359.849,783.761Z" transform="translate(-302.602 -764.664)"/></g><g transform="translate(864.144)"><path class="c" d="M374.069,798.109h0v-19.1h0A19.07,19.07,0,0,0,355,798.089v.02h-.008l.008.068-.008,18.989h18.405c.229,0,.451.016.676.016Z" transform="translate(-335.907 -779.012)"/><path class="d" d="M388.4,789.17c.008-.23.016-.451.016-.676h-38.17a19.082,19.082,0,0,0,19.081,19.073H388.4Z" transform="translate(-350.246 -750.34)"/><path class="c" d="M378.807,807.567V788.51h-18.4c-.225-.008-.455-.016-.676-.016v19.073h0V826.66h0a19.084,19.084,0,0,0,19.077-19.077v-.016Z" transform="translate(-321.568 -750.34)"/><path class="d" d="M378.821,783.761H378.8v0l-.073,0H359.744v18.4c-.008.229-.016.446-.016.676H397.9A19.082,19.082,0,0,0,378.821,783.761Z" transform="translate(-321.574 -764.664)"/></g></g><g transform="translate(-120.739 2489.046)"><path class="c" d="M222.314,798.109h0v-19.1h0a19.081,19.081,0,0,0-19.073,19.077v.02h0v19.057h18.4c.229,0,.447.016.676.016Z" transform="translate(-184.152 -779.012)"/><path class="d" d="M236.651,789.17c.008-.23.016-.451.016-.676H198.5a19.084,19.084,0,0,0,19.081,19.073h19.073Z" transform="translate(-198.497 -750.34)"/><path class="c" d="M227.054,807.567V788.51h-18.4c-.221-.008-.447-.016-.676-.016v19.073h0V826.66h0a19.078,19.078,0,0,0,19.073-19.077v-.016Z" transform="translate(-169.819 -750.34)"/><path class="d" d="M227.068,783.761h-.016v0l-.06,0H208v18.4c-.008.229-.016.446-.016.676h38.17A19.077,19.077,0,0,0,227.068,783.761Z" transform="translate(-169.825 -764.664)"/><g transform="translate(92.13)"><path class="c" d="M241.294,798.109h-.008v-19.1h0a19.081,19.081,0,0,0-19.077,19.077v.02h0v19.057h18.4c.225,0,.455.016.684.016Z" transform="translate(-203.128 -779.012)"/><path class="d" d="M255.617,789.17c.008-.23.016-.451.016-.676H217.467a19.075,19.075,0,0,0,19.073,19.073h19.077Z" transform="translate(-217.467 -750.34)"/><path class="c" d="M246.031,807.567l-.008-.069.008-18.989h-18.4c-.221-.008-.451-.016-.676-.016v19.073h0V826.66h0a19.073,19.073,0,0,0,19.073-19.077v-.016Z" transform="translate(-188.792 -750.34)"/><path class="d" d="M246.045,783.761h-.024v0l-.064,0H226.964v18.4c0,.229-.016.446-.016.676h38.17A19.075,19.075,0,0,0,246.045,783.761Z" transform="translate(-188.798 -764.664)"/></g><g transform="translate(190.698)"><path class="c" d="M260.251,798.109h0v-19.1h0a19.075,19.075,0,0,0-19.073,19.077v.02h0v19.057h18.4c.229,0,.451.016.676.016Z" transform="translate(-222.089 -779.012)"/><path class="d" d="M274.588,789.17c.008-.23.016-.451.016-.676h-38.17a19.087,19.087,0,0,0,19.081,19.073h19.073Z" transform="translate(-236.434 -750.34)"/><path class="c" d="M264.995,807.567V788.51h-18.4c-.225-.008-.447-.016-.676-.016v19.073h0V826.66h0a19.079,19.079,0,0,0,19.077-19.077v-.016Z" transform="translate(-207.756 -750.34)"/><path class="d" d="M265.009,783.761h-.016v0l-.072,0H245.932v18.4c-.008.229-.016.446-.016.676H284.09A19.077,19.077,0,0,0,265.009,783.761Z" transform="translate(-207.762 -764.664)"/></g><g transform="translate(286.049)"><path class="c" d="M279.22,798.109h0v-19.1h0a19.081,19.081,0,0,0-19.073,19.077v.02h0v19.057h18.4c.229,0,.455.016.676.016Z" transform="translate(-241.058 -779.012)"/><path class="d" d="M293.557,789.17c.008-.23.016-.451.016-.676H255.4a19.087,19.087,0,0,0,19.081,19.073h19.073Z" transform="translate(-255.403 -750.34)"/><path class="c" d="M283.968,807.567l-.008-.069.008-18.989h-18.4c-.221-.008-.447-.016-.676-.016v19.073h0V826.66h0a19.073,19.073,0,0,0,19.073-19.077v-.016Z" transform="translate(-226.725 -750.34)"/><path class="d" d="M283.974,783.761h-.016v0l-.06,0h-19v18.4c-.008.229-.016.446-.016.676h38.174A19.077,19.077,0,0,0,283.974,783.761Z" transform="translate(-226.731 -764.664)"/></g><g transform="translate(381.4)"><path class="c" d="M298.189,798.109h0v-19.1h0a19.081,19.081,0,0,0-19.073,19.077v.02h0v19.057h18.4c.229,0,.447.016.676.016Z" transform="translate(-260.027 -779.012)"/><path class="d" d="M312.526,789.17c.008-.23.016-.451.016-.676h-38.17a19.084,19.084,0,0,0,19.081,19.073h19.073Z" transform="translate(-274.372 -750.34)"/><path class="c" d="M302.929,807.567V788.51h-18.4c-.221-.008-.447-.016-.676-.016v19.073h0V826.66h0a19.078,19.078,0,0,0,19.073-19.077v-.016Z" transform="translate(-245.694 -750.34)"/><path class="d" d="M302.943,783.761h-.016v0l-.06,0h-19v18.4c-.008.229-.016.446-.016.676h38.17A19.077,19.077,0,0,0,302.943,783.761Z" transform="translate(-245.7 -764.664)"/></g><g transform="translate(476.745)"><path class="c" d="M317.163,798.109h0v-19.1h0a19.07,19.07,0,0,0-19.073,19.077v.02h-.008l.008.068-.008,18.989h18.4c.221,0,.451.016.676.016Z" transform="translate(-279.001 -779.012)"/><path class="d" d="M331.494,789.17c.008-.23.016-.451.016-.676H293.34a19.076,19.076,0,0,0,19.077,19.073h19.077Z" transform="translate(-293.34 -750.34)"/><path class="c" d="M321.9,807.567V788.51H303.5c-.229-.008-.455-.016-.676-.016v19.073h0V826.66h0A19.083,19.083,0,0,0,321.9,807.583v-.016Z" transform="translate(-264.662 -750.34)"/><path class="d" d="M321.911,783.761h-.016v0l-.068,0H302.838v18.4c-.008.229-.016.446-.016.676h38.166A19.071,19.071,0,0,0,321.911,783.761Z" transform="translate(-264.668 -764.664)"/></g><g transform="translate(572.097)"><path class="c" d="M336.126,798.109h0v-19.1h0a19.075,19.075,0,0,0-19.073,19.077v.02h0v19.057h18.4c.229,0,.447.016.676.016Z" transform="translate(-297.964 -779.012)"/><path class="d" d="M350.463,789.17c.008-.23.016-.451.016-.676h-38.17a19.082,19.082,0,0,0,19.081,19.073h19.073Z" transform="translate(-312.309 -750.34)"/><path class="c" d="M340.866,807.567V788.51h-18.4c-.229-.008-.447-.016-.676-.016v19.073h0V826.66h0a19.083,19.083,0,0,0,19.073-19.077v-.016Z" transform="translate(-283.631 -750.34)"/><path class="d" d="M340.88,783.761h-.016v0l-.068,0H321.807v18.4c-.008.229-.016.446-.016.676h38.17A19.082,19.082,0,0,0,340.88,783.761Z" transform="translate(-283.637 -764.664)"/></g><g transform="translate(673.379)"><path class="c" d="M355.1,798.109h0v-19.1h0a19.086,19.086,0,0,0-19.085,19.077v.02h0v19.057h18.409c.217,0,.447.016.676.016Z" transform="translate(-316.938 -779.012)"/><path class="d" d="M369.427,789.17c.016-.23.024-.451.024-.676H331.277a19.076,19.076,0,0,0,19.077,19.073h19.081Z" transform="translate(-331.277 -750.34)"/><path class="c" d="M359.835,807.567V788.51h-18.4c-.229-.008-.459-.016-.676-.016v19.073h0V826.66h0a19.083,19.083,0,0,0,19.073-19.077v-.016Z" transform="translate(-302.596 -750.34)"/><path class="d" d="M359.849,783.761h-.016v0l-.073,0H340.776v18.4c-.008.229-.016.446-.016.676h38.162A19.07,19.07,0,0,0,359.849,783.761Z" transform="translate(-302.602 -764.664)"/></g><g transform="translate(766.927)"><path class="c" d="M374.069,798.109h0v-19.1h0A19.07,19.07,0,0,0,355,798.089v.02h-.008l.008.068-.008,18.989h18.405c.229,0,.451.016.676.016Z" transform="translate(-335.907 -779.012)"/><path class="d" d="M388.4,789.17c.008-.23.016-.451.016-.676h-38.17a19.082,19.082,0,0,0,19.081,19.073H388.4Z" transform="translate(-350.246 -750.34)"/><path class="c" d="M378.807,807.567V788.51h-18.4c-.225-.008-.455-.016-.676-.016v19.073h0V826.66h0a19.084,19.084,0,0,0,19.077-19.077v-.016Z" transform="translate(-321.568 -750.34)"/><path class="d" d="M378.821,783.761H378.8v0l-.073,0H359.744v18.4c-.008.229-.016.446-.016.676H397.9A19.082,19.082,0,0,0,378.821,783.761Z" transform="translate(-321.574 -764.664)"/></g><g transform="translate(872.56)"><path class="c" d="M374.069,798.109h0v-19.1h0A19.07,19.07,0,0,0,355,798.089v.02h-.008l.008.068-.008,18.989h18.405c.229,0,.451.016.676.016Z" transform="translate(-335.907 -779.012)"/><path class="d" d="M388.4,789.17c.008-.23.016-.451.016-.676h-38.17a19.082,19.082,0,0,0,19.081,19.073H388.4Z" transform="translate(-350.246 -750.34)"/><path class="c" d="M378.807,807.567V788.51h-18.4c-.225-.008-.455-.016-.676-.016v19.073h0V826.66h0a19.084,19.084,0,0,0,19.077-19.077v-.016Z" transform="translate(-321.568 -750.34)"/><path class="d" d="M378.821,783.761H378.8v0l-.073,0H359.744v18.4c-.008.229-.016.446-.016.676H397.9A19.082,19.082,0,0,0,378.821,783.761Z" transform="translate(-321.574 -764.664)"/></g></g><g transform="translate(-141.398 2778.267)"><path class="c" d="M222.314,798.109h0v-19.1h0a19.081,19.081,0,0,0-19.073,19.077v.02h0v19.057h18.4c.229,0,.447.016.676.016Z" transform="translate(-184.152 -779.012)"/><path class="d" d="M236.651,789.17c.008-.23.016-.451.016-.676H198.5a19.084,19.084,0,0,0,19.081,19.073h19.073Z" transform="translate(-198.497 -750.34)"/><path class="c" d="M227.054,807.567V788.51h-18.4c-.221-.008-.447-.016-.676-.016v19.073h0V826.66h0a19.078,19.078,0,0,0,19.073-19.077v-.016Z" transform="translate(-169.819 -750.34)"/><path class="d" d="M227.068,783.761h-.016v0l-.06,0H208v18.4c-.008.229-.016.446-.016.676h38.17A19.077,19.077,0,0,0,227.068,783.761Z" transform="translate(-169.825 -764.664)"/><g transform="translate(92.13)"><path class="c" d="M241.294,798.109h-.008v-19.1h0a19.081,19.081,0,0,0-19.077,19.077v.02h0v19.057h18.4c.225,0,.455.016.684.016Z" transform="translate(-203.128 -779.012)"/><path class="d" d="M255.617,789.17c.008-.23.016-.451.016-.676H217.467a19.075,19.075,0,0,0,19.073,19.073h19.077Z" transform="translate(-217.467 -750.34)"/><path class="c" d="M246.031,807.567l-.008-.069.008-18.989h-18.4c-.221-.008-.451-.016-.676-.016v19.073h0V826.66h0a19.073,19.073,0,0,0,19.073-19.077v-.016Z" transform="translate(-188.792 -750.34)"/><path class="d" d="M246.045,783.761h-.024v0l-.064,0H226.964v18.4c0,.229-.016.446-.016.676h38.17A19.075,19.075,0,0,0,246.045,783.761Z" transform="translate(-188.798 -764.664)"/></g><g transform="translate(190.813)"><path class="c" d="M260.251,798.109h0v-19.1h0a19.075,19.075,0,0,0-19.073,19.077v.02h0v19.057h18.4c.229,0,.451.016.676.016Z" transform="translate(-222.089 -779.012)"/><path class="d" d="M274.588,789.17c.008-.23.016-.451.016-.676h-38.17a19.087,19.087,0,0,0,19.081,19.073h19.073Z" transform="translate(-236.434 -750.34)"/><path class="c" d="M264.995,807.567V788.51h-18.4c-.225-.008-.447-.016-.676-.016v19.073h0V826.66h0a19.079,19.079,0,0,0,19.077-19.077v-.016Z" transform="translate(-207.756 -750.34)"/><path class="d" d="M265.009,783.761h-.016v0l-.072,0H245.932v18.4c-.008.229-.016.446-.016.676H284.09A19.077,19.077,0,0,0,265.009,783.761Z" transform="translate(-207.762 -764.664)"/></g><g transform="translate(286.222)"><path class="c" d="M279.22,798.109h0v-19.1h0a19.081,19.081,0,0,0-19.073,19.077v.02h0v19.057h18.4c.229,0,.455.016.676.016Z" transform="translate(-241.058 -779.012)"/><path class="d" d="M293.557,789.17c.008-.23.016-.451.016-.676H255.4a19.087,19.087,0,0,0,19.081,19.073h19.073Z" transform="translate(-255.403 -750.34)"/><path class="c" d="M283.968,807.567l-.008-.069.008-18.989h-18.4c-.221-.008-.447-.016-.676-.016v19.073h0V826.66h0a19.073,19.073,0,0,0,19.073-19.077v-.016Z" transform="translate(-226.725 -750.34)"/><path class="d" d="M283.974,783.761h-.016v0l-.06,0h-19v18.4c-.008.229-.016.446-.016.676h38.174A19.077,19.077,0,0,0,283.974,783.761Z" transform="translate(-226.731 -764.664)"/></g><g transform="translate(381.63)"><path class="c" d="M298.189,798.109h0v-19.1h0a19.081,19.081,0,0,0-19.073,19.077v.02h0v19.057h18.4c.229,0,.447.016.676.016Z" transform="translate(-260.027 -779.012)"/><path class="d" d="M312.526,789.17c.008-.23.016-.451.016-.676h-38.17a19.084,19.084,0,0,0,19.081,19.073h19.073Z" transform="translate(-274.372 -750.34)"/><path class="c" d="M302.929,807.567V788.51h-18.4c-.221-.008-.447-.016-.676-.016v19.073h0V826.66h0a19.078,19.078,0,0,0,19.073-19.077v-.016Z" transform="translate(-245.694 -750.34)"/><path class="d" d="M302.943,783.761h-.016v0l-.06,0h-19v18.4c-.008.229-.016.446-.016.676h38.17A19.077,19.077,0,0,0,302.943,783.761Z" transform="translate(-245.7 -764.664)"/></g><g transform="translate(477.033)"><path class="c" d="M317.163,798.109h0v-19.1h0a19.07,19.07,0,0,0-19.073,19.077v.02h-.008l.008.068-.008,18.989h18.4c.221,0,.451.016.676.016Z" transform="translate(-279.001 -779.012)"/><path class="d" d="M331.494,789.17c.008-.23.016-.451.016-.676H293.34a19.076,19.076,0,0,0,19.077,19.073h19.077Z" transform="translate(-293.34 -750.34)"/><path class="c" d="M321.9,807.567V788.51H303.5c-.229-.008-.455-.016-.676-.016v19.073h0V826.66h0A19.083,19.083,0,0,0,321.9,807.583v-.016Z" transform="translate(-264.662 -750.34)"/><path class="d" d="M321.911,783.761h-.016v0l-.068,0H302.838v18.4c-.008.229-.016.446-.016.676h38.166A19.071,19.071,0,0,0,321.911,783.761Z" transform="translate(-264.668 -764.664)"/></g><g transform="translate(572.443)"><path class="c" d="M336.126,798.109h0v-19.1h0a19.075,19.075,0,0,0-19.073,19.077v.02h0v19.057h18.4c.229,0,.447.016.676.016Z" transform="translate(-297.964 -779.012)"/><path class="d" d="M350.463,789.17c.008-.23.016-.451.016-.676h-38.17a19.082,19.082,0,0,0,19.081,19.073h19.073Z" transform="translate(-312.309 -750.34)"/><path class="c" d="M340.866,807.567V788.51h-18.4c-.229-.008-.447-.016-.676-.016v19.073h0V826.66h0a19.083,19.083,0,0,0,19.073-19.077v-.016Z" transform="translate(-283.631 -750.34)"/><path class="d" d="M340.88,783.761h-.016v0l-.068,0H321.807v18.4c-.008.229-.016.446-.016.676h38.17A19.082,19.082,0,0,0,340.88,783.761Z" transform="translate(-283.637 -764.664)"/></g><g transform="translate(673.786)"><path class="c" d="M355.1,798.109h0v-19.1h0a19.086,19.086,0,0,0-19.085,19.077v.02h0v19.057h18.409c.217,0,.447.016.676.016Z" transform="translate(-316.938 -779.012)"/><path class="d" d="M369.427,789.17c.016-.23.024-.451.024-.676H331.277a19.076,19.076,0,0,0,19.077,19.073h19.081Z" transform="translate(-331.277 -750.34)"/><path class="c" d="M359.835,807.567V788.51h-18.4c-.229-.008-.459-.016-.676-.016v19.073h0V826.66h0a19.083,19.083,0,0,0,19.073-19.077v-.016Z" transform="translate(-302.596 -750.34)"/><path class="d" d="M359.849,783.761h-.016v0l-.073,0H340.776v18.4c-.008.229-.016.446-.016.676h38.162A19.07,19.07,0,0,0,359.849,783.761Z" transform="translate(-302.602 -764.664)"/></g><g transform="translate(766.927)"><path class="c" d="M374.069,798.109h0v-19.1h0A19.07,19.07,0,0,0,355,798.089v.02h-.008l.008.068-.008,18.989h18.405c.229,0,.451.016.676.016Z" transform="translate(-335.907 -779.012)"/><path class="d" d="M388.4,789.17c.008-.23.016-.451.016-.676h-38.17a19.082,19.082,0,0,0,19.081,19.073H388.4Z" transform="translate(-350.246 -750.34)"/><path class="c" d="M378.807,807.567V788.51h-18.4c-.225-.008-.455-.016-.676-.016v19.073h0V826.66h0a19.084,19.084,0,0,0,19.077-19.077v-.016Z" transform="translate(-321.568 -750.34)"/><path class="d" d="M378.821,783.761H378.8v0l-.073,0H359.744v18.4c-.008.229-.016.446-.016.676H397.9A19.082,19.082,0,0,0,378.821,783.761Z" transform="translate(-321.574 -764.664)"/></g><g transform="translate(859.283)"><path class="c" d="M374.069,798.109h0v-19.1h0A19.07,19.07,0,0,0,355,798.089v.02h-.008l.008.068-.008,18.989h18.405c.229,0,.451.016.676.016Z" transform="translate(-335.907 -779.012)"/><path class="d" d="M388.4,789.17c.008-.23.016-.451.016-.676h-38.17a19.082,19.082,0,0,0,19.081,19.073H388.4Z" transform="translate(-350.246 -750.34)"/><path class="c" d="M378.807,807.567V788.51h-18.4c-.225-.008-.455-.016-.676-.016v19.073h0V826.66h0a19.084,19.084,0,0,0,19.077-19.077v-.016Z" transform="translate(-321.568 -750.34)"/><path class="d" d="M378.821,783.761H378.8v0l-.073,0H359.744v18.4c-.008.229-.016.446-.016.676H397.9A19.082,19.082,0,0,0,378.821,783.761Z" transform="translate(-321.574 -764.664)"/></g></g></g></g></g></svg>