<svg xmlns="http://www.w3.org/2000/svg" width="242.326" height="242.319" viewBox="0 0 242.326 242.319"><defs><style>.a{fill:#ee4635;}.b{fill:#ff3823;}</style></defs><g transform="translate(0 0)"><path class="a" d="M1069,803.24a121.159,121.159,0,1,1,121.162-121.158A121.3,121.3,0,0,1,1069,803.24Zm0-239.373a118.215,118.215,0,1,0,118.218,118.215A118.35,118.35,0,0,0,1069,563.866Z" transform="translate(-947.835 -560.921)"/><g transform="translate(35.896 22.961)"><path class="b" d="M971.38,610.573l3.025-4.588c2.179-3.32,4.845-3.673,7.909-1.656a4.64,4.64,0,0,1,2.352,4.624c1.733-1.111,3.587-1.21,5.9.316,2.971,1.956,4.342,4.755,2.026,8.268l-3.218,4.885Zm9.416,1.762.738-1.118a2.447,2.447,0,0,0-.93-3.583c-1.672-1.1-2.973-1.026-3.874.345l-.771,1.174Zm8.076,5.324.852-1.3c1.085-1.65.531-2.869-1.291-4.064-1.843-1.221-3.223-1.127-4.438.719l-.657,1Z" transform="translate(-971.38 -561.765)"/><path class="b" d="M996.246,611.573,981.1,596.259l2.63-2.6,15.142,15.314Z" transform="translate(-966.28 -566.709)"/><path class="b" d="M1001.076,608.086l-11.852-17.993,8.275-5.453,1.772,2.692-5.183,3.413,3.054,4.639,3.988-2.63,1.773,2.691-3.988,2.631,3.484,5.283,5.533-3.644,1.771,2.694Z" transform="translate(-962.02 -571.44)"/><path class="b" d="M1009.407,602.44l-7.225-20.284,3.231-1.151,8.379,10.093.055-.021-4.131-11.6,3.144-1.121,7.225,20.292-3.032,1.073-8.955-11.088-.053.021,4.51,12.672Z" transform="translate(-955.223 -574.739)"/><path class="b" d="M1021.552,598l-3.558.367,1.735-21.816,4.571-.47,6.15,21.005-3.558.369-1.144-4.679-4.032.416Zm.367-8.068,2.965-.307-2.4-9.044-.057.009Z" transform="translate(-946.928 -575.932)"/><path class="b" d="M1030.369,597.394l2.468-21.412,3.672.422-2.093,18.206,5.781.669-.368,3.2Z" transform="translate(-940.437 -575.982)"/><path class="b" d="M1047.673,578.909l3.619,1.275c4.107,1.448,5.793,4.594,3.157,12.079s-5.921,8.88-10.035,7.432l-3.619-1.273Zm-4.141,18.468,1.136.4c3.076,1.09,5.314.425,7.668-6.249s1.029-8.6-2.055-9.687l-1.125-.406Z" transform="translate(-934.968 -574.447)"/><path class="b" d="M1071.129,590.026l-1.018,1.6-6.082-3.9-3.805,5.943,4.5,2.877-1.023,1.589-4.491-2.869-4.293,6.71,6.369,4.081-1.018,1.595-8.26-5.292,11.158-17.433Z" transform="translate(-929.088 -571.29)"/><path class="b" d="M1062.782,608.84l-2.517-2.546,18.106-12.317,3.229,3.267L1069.077,615.2l-2.523-2.546,2.938-3.817-2.855-2.885Zm6.523-4.77,2.093,2.122,5.554-7.545-.047-.038Z" transform="translate(-924.755 -566.543)"/><path class="b" d="M1070.516,618.275,1068.6,615.1l18.478-11.112,2.676,4.447c2.141,3.56,1.726,6.281-2.215,8.653-2.968,1.787-4.863,1.357-6,.575l-6.749,7.722-1.941-3.221,6.3-6.854a18.479,18.479,0,0,1-1.058-1.589Zm10.184-6.127.675,1.127c1.037,1.709,2.055,1.964,4.255.645s2.454-2.354,1.427-4.065l-.684-1.128Z" transform="translate(-920.381 -561.292)"/><path class="b" d="M1092.327,621.56l-1.1-3.412,3.066-.991,3.337,10.338-3.066.989-1.107-3.406-17.43,5.63-1.137-3.52Z" transform="translate(-917.082 -554.383)"/><path class="b" d="M1077.182,633.168l21.457-1.985.916,9.861-3.215.3-.569-6.182-5.528.515.436,4.754-3.206.3-.442-4.753-6.3.582.616,6.6-3.212.3Z" transform="translate(-915.881 -547.026)"/><path class="b" d="M1077.686,644.417l21.411,2.209-.375,3.674-21.415-2.2Z" transform="translate(-915.816 -540.084)"/><path class="b" d="M1077.609,652.355l20.51,6.62-1.063,3.267-13.113.5-.015.063,11.728,3.787-1.029,3.174-20.5-6.617.989-3.067,14.256-.354.014-.055-12.8-4.132Z" transform="translate(-917.483 -535.92)"/><path class="b" d="M1072.577,664.081l18.345,11.289-5.414,8.791-2.744-1.688,3.473-5.645-4.723-2.906-2.6,4.218-2.736-1.688,2.59-4.217-8.129-5.01Z" transform="translate(-919.315 -529.769)"/><path class="b" d="M1066.986,674.943l2.476-2.586,12.785,17.786-3.18,3.313-18.284-12.064,2.484-2.577,3.894,2.828,2.81-2.921Zm4.938,6.4-2.069,2.154,7.682,5.354.038-.044Z" transform="translate(-924.483 -525.428)"/><path class="b" d="M1060.763,680.93l11.6,18.168-2.891,1.849-10.431-7.969-.056.031,6.636,10.39-2.823,1.8-11.588-18.17,2.715-1.733,11.219,8.813.047-.032-7.24-11.35Z" transform="translate(-929.505 -520.931)"/><path class="b" d="M1052.49,704.81l3.374-1.188,1.064,3.045-10.245,3.6-1.067-3.038,3.377-1.188-6.069-17.295,3.491-1.221Z" transform="translate(-933.852 -517.473)"/><path class="b" d="M1037.294,690.044l3.2,21.328-3.665.546-3.2-21.322Z" transform="translate(-938.727 -516.15)"/><path class="b" d="M1031.514,690.969l-.779,21.54-3.7-.136.661-18.322-5.82-.207.119-3.221Z" transform="translate(-944.892 -515.847)"/><path class="b" d="M1022.953,690.279l-5.449,20.844-9.995-2.605.819-3.122,6.408,1.68,1.407-5.377-4.8-1.25.817-3.121,4.793,1.25,2.418-9.242Z" transform="translate(-952.428 -516.522)"/><path class="b" d="M1003.344,706.768,1000.087,705l7.74-14.3c.753-1.39.572-2.369-.611-3.008s-2.1-.252-2.851,1.136l-7.74,14.3-3.255-1.765,7.668-14.174c1.761-3.252,4.615-4.011,7.711-2.339s4.022,4.487,2.258,7.739Z" transform="translate(-959.845 -519.323)"/><path class="b" d="M987.9,687.487l-1.131,1.233c-1.236,1.342-1.143,2.477-.436,3.121,1.1,1.014,1.973.759,3.063-.428l7.391-8.044c1.09-1.191,1.261-2.081.162-3.092-.991-.912-1.843-.645-2.79.392l-1.759,1.916-2.726-2.508,1.675-1.826c2.061-2.24,5.055-2.851,7.783-.351,2.859,2.628,2.5,5.659.441,7.906l-7.508,8.184c-2.058,2.24-5.06,2.853-7.916.23-2.726-2.509-2.229-5.7-.049-8.069l1.072-1.166Z" transform="translate(-965.66 -523.37)"/><path class="b" d="M993.5,672.4l1.991,2.974-20.116,8.679-2.558-3.818,15.7-15.276,1.993,2.974-3.606,3.2,2.256,3.375Zm-7.315,3.458-1.66-2.485-6.874,6.356.035.053Z" transform="translate(-970.626 -529.307)"/></g></g><g transform="translate(84.317 84.309)"><path class="a" d="M1039.994,689.922a36.85,36.85,0,1,1,36.839-36.853A36.9,36.9,0,0,1,1039.994,689.922Zm0-70.756a33.905,33.905,0,1,0,33.9,33.9A33.943,33.943,0,0,0,1039.994,619.166Z" transform="translate(-1003.141 -616.222)"/><path class="b" d="M1013.974,647.383a20.329,20.329,0,0,0,40.658,0H1034.3V627.061A20.32,20.32,0,0,0,1013.974,647.383Z" transform="translate(-997.458 -610.536)"/></g></svg>