<svg xmlns="http://www.w3.org/2000/svg" width="153.605" height="68.455" viewBox="0 0 153.605 68.455"><defs><style>.a{fill:#ff3823;}.b{fill:#dfddcd;}.c{fill:#5b3f34;}</style></defs><g transform="translate(87.042)"><path class="a" d="M533.021,207.531a20.646,20.646,0,0,1-15.555,34.228H487.354a15.8,15.8,0,0,1-15.8-15.8V189.1a15.8,15.8,0,0,1,15.8-15.8h30.113a20.646,20.646,0,0,1,15.555,34.227Z" transform="translate(-471.555 -173.304)"/><g transform="translate(7.603 7.565)"><path class="b" d="M487.806,181.335a8.178,8.178,0,1,0,8.176,8.179A8.179,8.179,0,0,0,487.806,181.335Z" transform="translate(-479.626 -181.335)"/><path class="c" d="M483.318,189.728a4.7,4.7,0,0,0,9.4,0h-4.7v-4.7A4.7,4.7,0,0,0,483.318,189.728Z" transform="translate(-479.84 -181.549)"/></g></g><g transform="translate(0 3.164)"><g transform="translate(0 0.127)"><path class="a" d="M446.568,180.126l-2.021.7v-2.445l4.543-1.585v7.324H451v2.393h-6.375v-2.393h1.946Z" transform="translate(-382.947 -176.798)"/><path class="a" d="M403.517,193.532a2.225,2.225,0,0,1-1.271,2.016,2.234,2.234,0,0,1,1.461,2.055c0,1.7-1.119,2.748-3.653,2.748h-4.539v-9.566h4.29C402.376,190.785,403.517,191.835,403.517,193.532Zm-5.405.964h1.634c.718,0,1.08-.268,1.08-.8s-.356-.793-1.074-.793h-1.64Zm0,3.745,1.8.007c.75,0,1.127-.274,1.127-.826s-.377-.82-1.127-.82h-1.8Z" transform="translate(-380.104 -177.609)"/><path class="a" d="M406.761,200.351v-9.566h2.6v9.566Z" transform="translate(-380.756 -177.609)"/><path class="a" d="M412.425,200.351v-9.566H419.9v2.31h-4.878v1.264h4.537v2.308h-4.537v1.374H419.9v2.31Z" transform="translate(-381.084 -177.609)"/><path class="a" d="M429.664,200.351l-3.944-5.379v5.379h-2.6v-9.566h2.529l3.942,5.378v-5.378h2.6v9.566Z" transform="translate(-381.705 -177.609)"/><path class="a" d="M442.521,200.351l-.635-1.825h-3.573l-.628,1.825h-2.712l3.619-9.566h3.063l3.623,9.566Zm-1.44-4.141-.977-2.829-.984,2.829Z" transform="translate(-382.392 -177.609)"/><path class="a" d="M448.133,200.351v-9.566h2.6v7.174h4.605v2.392Z" transform="translate(-383.155 -177.609)"/><path class="a" d="M401.535,211c0,2.058-1.4,3.36-3.632,3.36h-2.452v-6.718H397.9C400.138,207.637,401.535,208.938,401.535,211Zm-5.5,2.8H397.9c1.952,0,3.019-1.1,3.019-2.8s-1.067-2.8-3.019-2.8h-1.868Z" transform="translate(-380.1 -178.586)"/><path class="a" d="M403.871,214.355v-6.718h4.591v.552h-4.006v2.51h3.891v.546h-3.891V213.8h4.04v.554Z" transform="translate(-380.588 -178.586)"/><path class="a" d="M420.438,214.18l-.635-1.827h-3.574l-.628,1.827h-2.712l3.619-9.568h3.063l3.622,9.568ZM419,210.037l-.978-2.828-.984,2.828Z" transform="translate(-381.111 -178.411)"/><path class="a" d="M434.023,207.8a2.79,2.79,0,0,1-2.473,2.87l2.6,3.513h-3.063l-2.3-3.4h-.143v3.4h-2.6v-9.568h4.264C432.745,204.612,434.023,205.863,434.023,207.8Zm-5.377.848h1.639c.637,0,1.113-.268,1.113-.848s-.477-.854-1.113-.854h-1.639Z" transform="translate(-381.874 -178.411)"/><path class="a" d="M441.862,207v7.177h-2.6V207h-2.721v-2.391h8.035V207Z" transform="translate(-382.483 -178.411)"/><path class="a" d="M447.4,214.18v-9.568h7.48v2.311H450v1.263h4.537v2.309H450v1.374h4.882v2.311Z" transform="translate(-383.113 -178.411)"/><path class="a" d="M379.155,228.007V218.44h2.6v9.567Z" transform="translate(-379.155 -179.213)"/><path class="a" d="M391.355,228.007l-3.943-5.379v5.379h-2.6V218.44h2.528l3.943,5.378V218.44h2.6v9.567Z" transform="translate(-379.483 -179.213)"/><path class="a" d="M399.949,224.528v3.479h-2.6V218.44h7.409v2.311h-4.812v1.468h4.469v2.31Z" transform="translate(-380.21 -179.213)"/><path class="a" d="M414.043,228.007l-.636-1.826h-3.573l-.627,1.826h-2.713l3.62-9.567h3.063l3.623,9.567Zm-1.441-4.143-.978-2.828-.984,2.828Z" transform="translate(-380.74 -179.213)"/><path class="a" d="M426.194,228.007l-3.943-5.379v5.379h-2.6V218.44h2.528l3.942,5.378V218.44h2.6v9.567Z" transform="translate(-381.503 -179.213)"/><path class="a" d="M436.927,220.832v7.175h-2.6v-7.175h-2.72V218.44h8.036v2.392Z" transform="translate(-382.197 -179.213)"/><path class="a" d="M442.47,228.007V218.44h2.6v9.567Z" transform="translate(-382.826 -179.213)"/><path class="a" d="M448.133,228.007V218.44h2.6v7.174h4.6v2.393Z" transform="translate(-383.155 -179.213)"/><path class="a" d="M414.163,238.356v3.48h-2.6v-9.567h7.408v2.311h-4.811v1.467h4.469v2.31Z" transform="translate(-381.034 -180.015)"/><path class="a" d="M426.214,242.013c-2.748,0-4.237-1.476-4.237-4.08v-5.664h2.6v5.589a1.635,1.635,0,1,0,3.269,0v-5.589h2.6v5.664C430.45,240.537,428.962,242.013,426.214,242.013Z" transform="translate(-381.638 -180.015)"/><path class="a" d="M442.863,234.507l-2.3,1.271a2.409,2.409,0,1,0-2.1,3.738,2.46,2.46,0,0,0,2.16-1.2l2.133,1.489A4.948,4.948,0,0,1,438.5,242a4.962,4.962,0,1,1,0-9.923A4.856,4.856,0,0,1,442.863,234.507Z" transform="translate(-382.303 -180.004)"/><path class="a" d="M452.5,241.836l-.636-1.826h-3.574l-.628,1.826h-2.713l3.621-9.567h3.062l3.622,9.567Zm-1.441-4.143-.977-2.828-.985,2.828Z" transform="translate(-382.97 -180.015)"/></g><path class="a" d="M452.4,178.624a1.961,1.961,0,0,0,3.923,0h-1.96v-1.961A1.962,1.962,0,0,0,452.4,178.624Z" transform="translate(-383.402 -176.663)"/></g></svg>