<svg xmlns="http://www.w3.org/2000/svg" width="167.788" height="84.999" viewBox="0 0 167.788 84.999"><defs><style>.a{fill:#ff3823;}.b{fill:#ffd32f;}.c{fill:#32b9fd;}.d{fill:none;}</style></defs><g transform="translate(-240.54 -387.322)"><rect class="a" width="41.949" height="14.143" transform="translate(324.433 443.901)"/><rect class="b" width="41.948" height="14.143" transform="translate(240.54 443.901)"/><rect class="c" width="41.946" height="14.143" transform="translate(282.488 443.901)"/><rect class="c" width="41.947" height="14.145" transform="translate(345.409 429.756)"/><rect class="a" width="41.948" height="14.145" transform="translate(261.514 429.756)"/><rect class="d" width="41.947" height="14.145" transform="translate(303.461 429.756)"/><rect class="a" width="41.949" height="14.144" transform="translate(324.433 415.612)"/><rect class="b" width="41.948" height="14.144" transform="translate(240.54 415.612)"/><rect class="d" width="41.946" height="14.144" transform="translate(282.488 415.612)"/><rect class="c" width="41.947" height="14.144" transform="translate(345.409 401.468)"/><rect class="c" width="20.715" height="14.145" transform="translate(240.796 429.756)"/><rect class="c" width="20.715" height="14.144" transform="translate(240.796 401.468)"/><rect class="a" width="41.948" height="14.144" transform="translate(261.514 401.468)"/><rect class="a" width="20.857" height="14.145" transform="translate(387.356 429.756)"/><rect class="c" width="41.947" height="14.145" transform="translate(345.409 458.176)"/><rect class="a" width="41.948" height="14.145" transform="translate(261.514 458.176)"/><rect class="b" width="41.947" height="14.145" transform="translate(303.461 458.176)"/><rect class="c" width="20.715" height="14.145" transform="translate(240.796 458.176)"/><rect class="a" width="20.857" height="14.145" transform="translate(387.356 458.176)"/><rect class="a" width="20.857" height="14.144" transform="translate(387.356 401.468)"/><rect class="d" width="41.947" height="14.144" transform="translate(303.461 401.468)"/><rect class="d" width="41.949" height="14.146" transform="translate(324.433 387.322)"/><rect class="b" width="41.948" height="14.146" transform="translate(240.54 387.322)"/><rect class="d" width="41.946" height="14.146" transform="translate(282.488 387.322)"/><g transform="translate(366.382 443.901)"><rect class="b" width="41.946" height="14.143"/></g><g transform="translate(366.382 415.612)"><rect class="b" width="41.946" height="14.144"/></g><g transform="translate(366.382 387.322)"><rect class="b" width="41.946" height="14.146"/></g></g></svg>