<svg xmlns="http://www.w3.org/2000/svg" width="132.735" height="105.375" viewBox="0 0 132.735 105.375"><defs><style>.a{fill:#22c253;}.b{fill:#dfddcd;}.c{fill:#5b3f34;}.d{fill:#2ac4f3;}</style></defs><path class="a" d="M1621.243,109.681a30.552,30.552,0,0,0-30.553-30.55h-71.627a30.551,30.551,0,0,0-30.552,30.55v9.69h0v34.589a30.544,30.544,0,0,0,30.551,30.547h71.631a30.546,30.546,0,0,0,30.553-30.547v-9.69h0Z" transform="translate(-1488.508 -79.131)"/><g transform="translate(30.705 17.029)"><path class="b" d="M1544.344,90.313A35.661,35.661,0,1,0,1580,125.972,35.66,35.66,0,0,0,1544.344,90.313Z" transform="translate(-1508.671 -90.313)"/><path class="c" d="M1518.631,120.764a20.494,20.494,0,0,0,40.988,0h-20.5v-20.49A20.487,20.487,0,0,0,1518.631,120.764Z" transform="translate(-1503.464 -85.105)"/></g><path class="d" d="M1564.252,104.692a8.853,8.853,0,1,1,8.851-8.849A8.85,8.85,0,0,1,1564.252,104.692Z" transform="translate(-1453.534 -75.024)"/></svg>