<svg xmlns="http://www.w3.org/2000/svg" width="315" height="323.954" viewBox="0 0 315 323.954"><defs><style>.a{fill:#ffd32f;}.b{fill:#dfddcd;}.c{fill:#5b3f34;}.d{fill:#54443c;}</style></defs><path class="a" d="M330.745,890.43a97.7,97.7,0,0,1-73.608,161.978h-142.5a74.769,74.769,0,0,1-74.771-74.756V803.2a74.771,74.771,0,0,1,74.771-74.749h142.5A97.7,97.7,0,0,1,330.745,890.43Z" transform="translate(-39.862 -728.455)"/><g transform="translate(36.084 35.895)"><path class="b" d="M104.751,754.383A38.819,38.819,0,1,0,143.558,793.2,38.821,38.821,0,0,0,104.751,754.383Z" transform="translate(-65.926 -754.383)"/></g><path class="c" d="M77.853,788.611a22.3,22.3,0,1,0,44.6,0h-22.3v-22.3A22.3,22.3,0,0,0,77.853,788.611Z" transform="translate(-25.431 -714.076)"/><g transform="translate(36.864 171.11)"><path class="b" d="M184.835,911.892a59.172,59.172,0,1,1-59.173-59.173A59.171,59.171,0,0,1,184.835,911.892Z" transform="translate(-66.49 -852.719)"/><path class="d" d="M-16.82.812C-6.322.812-.29-7.772-.29-20.3S-6.322-41.412-16.82-41.412-33.35-32.828-33.35-20.3-27.318.812-16.82.812Zm0-9.048c-4.872,0-7.25-4.234-7.25-12.064s2.378-12.064,7.25-12.064S-9.57-28.13-9.57-20.3-11.948-8.236-16.82-8.236ZM34.51-15.08H30.45v-8.7h-9.4v8.7H12.586L25.52-40.6H15.544L2.61-15.08V-6.5H21.054V0h9.4V-6.5h4.06Z" transform="translate(58.7 74.85)"/><g transform="translate(122.928)"><path class="b" d="M274.275,911.892A59.172,59.172,0,1,1,215.1,852.719,59.171,59.171,0,0,1,274.275,911.892Z" transform="translate(-155.932 -852.719)"/><path class="d" d="M-16.52.826C-5.841.826.295-7.906.295-20.65S-5.841-42.126-16.52-42.126-33.335-33.394-33.335-20.65-27.2.826-16.52.826Zm0-9.2c-4.956,0-7.375-4.307-7.375-12.272s2.419-12.272,7.375-12.272,7.375,4.307,7.375,12.272S-11.564-8.378-16.52-8.378Zm36.7-19.883L29.146-41.3H18.29L5.664-22.125a15.046,15.046,0,0,0-2.419,8.378C3.245-5.192,9.44.826,18.585.826c9.086,0,15.34-6.018,15.34-14.573C33.925-21.771,28.379-27.612,20.178-28.261ZM18.585-8.024a5.556,5.556,0,0,1-5.9-5.723,5.556,5.556,0,0,1,5.9-5.723,5.622,5.622,0,0,1,5.9,5.723A5.622,5.622,0,0,1,18.585-8.024Z" transform="translate(58.699 75.85)"/></g></g><path class="c" d="M6.165.165A5.127,5.127,0,0,0,10.7-2.4l-.705-.4A4.287,4.287,0,0,1,6.165-.6,4.537,4.537,0,0,1,1.5-5.25,4.537,4.537,0,0,1,6.165-9.9a4.278,4.278,0,0,1,3.8,2.16l.7-.4a5.124,5.124,0,0,0-4.5-2.52A5.321,5.321,0,0,0,.705-5.25,5.321,5.321,0,0,0,6.165.165ZM18.945-7.5v1.695a3.606,3.606,0,0,0-3.225-1.86A3.873,3.873,0,0,0,11.835-3.75,3.873,3.873,0,0,0,15.72.165,3.606,3.606,0,0,0,18.945-1.7V0h.765V-7.5ZM15.78-.555A3.157,3.157,0,0,1,12.6-3.75a3.157,3.157,0,0,1,3.18-3.2,3.144,3.144,0,0,1,3.165,3.2A3.144,3.144,0,0,1,15.78-.555Zm10.08-6.21V-7.5H23.625V-9.6l-.765.225V-7.5H21.21v.735h1.65V-1.89C22.86-.18,23.9.3,25.86,0V-.675c-1.53.135-2.235.1-2.235-1.215V-6.765Zm4.725-.9A3.783,3.783,0,0,0,26.7-3.75,3.79,3.79,0,0,0,30.645.165a3.7,3.7,0,0,0,3.27-1.7l-.66-.39a2.854,2.854,0,0,1-2.6,1.365A3.053,3.053,0,0,1,27.48-3.36h6.8c0-.12.015-.24.015-.36A3.757,3.757,0,0,0,30.585-7.665Zm0,.72A2.912,2.912,0,0,1,33.51-4.1H27.48A3.023,3.023,0,0,1,30.585-6.945ZM42.705-7.5v1.74A3.554,3.554,0,0,0,39.48-7.665,3.864,3.864,0,0,0,35.6-3.75,3.864,3.864,0,0,0,39.48.165,3.554,3.554,0,0,0,42.705-1.74V-.36a2.683,2.683,0,0,1-2.985,2.8A2.884,2.884,0,0,1,36.84.99l-.66.375a3.694,3.694,0,0,0,3.54,1.8A3.449,3.449,0,0,0,43.455-.36V-7.5ZM39.525-.555a3.157,3.157,0,0,1-3.18-3.195,3.157,3.157,0,0,1,3.18-3.2,3.157,3.157,0,0,1,3.18,3.2A3.157,3.157,0,0,1,39.525-.555ZM49.2.165A3.883,3.883,0,0,0,53.13-3.75,3.883,3.883,0,0,0,49.2-7.665,3.887,3.887,0,0,0,45.255-3.75,3.887,3.887,0,0,0,49.2.165Zm0-.72A3.157,3.157,0,0,1,46.02-3.75a3.157,3.157,0,0,1,3.18-3.2,3.144,3.144,0,0,1,3.165,3.2A3.144,3.144,0,0,1,49.2-.555ZM55.68-6.03V-7.5h-.75V0h.75V-4.17a2.428,2.428,0,0,1,2.505-2.715v-.72A2.524,2.524,0,0,0,55.68-6.03Zm3.99-2.52.825-1.9h.915l-1.005,1.9ZM59.7,0h.75V-7.5H59.7Zm9.66-7.5v1.695a3.606,3.606,0,0,0-3.225-1.86A3.873,3.873,0,0,0,62.25-3.75,3.873,3.873,0,0,0,66.135.165,3.606,3.606,0,0,0,69.36-1.7V0h.765V-7.5ZM66.2-.555a3.157,3.157,0,0,1-3.18-3.195,3.157,3.157,0,0,1,3.18-3.2,3.144,3.144,0,0,1,3.165,3.2A3.144,3.144,0,0,1,66.2-.555ZM83.655,0h.84L80.43-10.5h-.84L75.51,0h.84l1.02-2.67h5.265ZM77.67-3.42l2.34-6.105L82.35-3.42ZM8.49,15.3H7.365v-2.49H5.28V15.3H2.55L6.03,8.5H3.81l-3.5,6.8v1.92H5.28V19H7.365V17.215H8.49Zm10.545-3.8v.885a2.986,2.986,0,0,0-2.445-1.1,3.794,3.794,0,0,0-3.645,3.96,3.794,3.794,0,0,0,3.645,3.96,2.986,2.986,0,0,0,2.445-1.095V19H20.97V11.5ZM16.95,17.365a2.013,2.013,0,0,1-2.07-2.115,2.078,2.078,0,1,1,4.155,0A2.016,2.016,0,0,1,16.95,17.365ZM29.865,11.9,32.19,8.5H29.82l-3.27,4.935a3.775,3.775,0,0,0-.615,2.115,3.565,3.565,0,0,0,3.8,3.66,3.577,3.577,0,0,0,3.81-3.66A3.555,3.555,0,0,0,29.865,11.9ZM29.73,17.26a1.7,1.7,0,1,1,1.755-1.71A1.645,1.645,0,0,1,29.73,17.26ZM44.22,11.5v.885a2.986,2.986,0,0,0-2.445-1.1,3.794,3.794,0,0,0-3.645,3.96,3.794,3.794,0,0,0,3.645,3.96,2.986,2.986,0,0,0,2.445-1.095V19h1.935V11.5Zm-2.085,5.865a2.013,2.013,0,0,1-2.07-2.115,2.078,2.078,0,1,1,4.155,0A2.016,2.016,0,0,1,42.135,17.365ZM51.3,10.12c1.275.825,2.73.57,2.73-1.815H52.455c0,.75-.195.735-.78.36-1.29-.825-2.73-.57-2.73,1.815h1.56C50.505,9.73,50.715,9.745,51.3,10.12Zm.78,1.17a2.55,2.55,0,0,0-2.235,1.05V11.5H47.91V19h1.935V14.95c0-1.305.705-1.86,1.65-1.86a1.4,1.4,0,0,1,1.485,1.545V19h1.935V14.4A2.8,2.8,0,0,0,52.08,11.29Zm8.055,7.92a3.96,3.96,0,1,0-3.96-3.96A3.931,3.931,0,0,0,60.135,19.21Zm0-1.89a1.991,1.991,0,0,1-2.025-2.07,2.033,2.033,0,1,1,4.065,0A1.994,1.994,0,0,1,60.135,17.32Zm6.96-3.69c0-.4.39-.615.87-.615a1.269,1.269,0,0,1,1.2.765l1.65-.9a3.159,3.159,0,0,0-2.85-1.59c-1.545,0-2.85.855-2.85,2.385,0,2.64,3.87,2.04,3.87,3.135,0,.435-.42.645-1.035.645a1.429,1.429,0,0,1-1.47-.975l-1.68.945a3.226,3.226,0,0,0,3.15,1.785c1.6,0,3.015-.78,3.015-2.4C70.965,14.05,67.1,14.74,67.1,13.63Z" transform="translate(40.341 137.786)"/></svg>