<svg xmlns="http://www.w3.org/2000/svg" width="315" height="323.955" viewBox="0 0 315 323.955"><defs><style>.a{fill:#ff3823;}.b{fill:#dfddcd;}.c{fill:#5b3f34;}.d{fill:#54443c;}</style></defs><path class="a" d="M624.794,890.431a97.706,97.706,0,0,1-73.608,161.979H408.68a74.769,74.769,0,0,1-74.77-74.757V803.2a74.771,74.771,0,0,1,74.77-74.75H551.186a97.7,97.7,0,0,1,73.608,161.976Z" transform="translate(-333.91 -728.455)"/><g transform="translate(36.078 35.89)"><path class="b" d="M398.793,754.383a38.813,38.813,0,1,0,38.8,38.806A38.814,38.814,0,0,0,398.793,754.383Z" transform="translate(-359.974 -754.383)"/></g><path class="c" d="M371.9,788.607a22.3,22.3,0,1,0,44.6,0H394.2v-22.3A22.3,22.3,0,0,0,371.9,788.607Z" transform="translate(-319.478 -714.074)"/><g transform="translate(36.859 171.136)"><path class="b" d="M478.863,911.883A59.162,59.162,0,1,1,419.7,852.719,59.161,59.161,0,0,1,478.863,911.883Z" transform="translate(-360.538 -852.719)"/><path class="d" d="M-13.865.826C-3.186.826,2.95-7.906,2.95-20.65S-3.186-42.126-13.865-42.126-30.68-33.394-30.68-20.65-24.544.826-13.865.826Zm0-9.2c-4.956,0-7.375-4.307-7.375-12.272s2.419-12.272,7.375-12.272S-6.49-28.615-6.49-20.65-8.909-8.378-13.865-8.378ZM4.13-41.3v9.086H20.768L7.788,0h10.03L31.27-33.394V-41.3Z" transform="translate(58.419 75.847)"/><g transform="translate(122.958)"><path class="b" d="M568.3,911.883a59.162,59.162,0,1,1-59.161-59.164A59.16,59.16,0,0,1,568.3,911.883Z" transform="translate(-449.979 -852.719)"/><path class="d" d="M-16.52.826C-5.841.826.295-7.906.295-20.65S-5.841-42.126-16.52-42.126-33.335-33.394-33.335-20.65-27.2.826-16.52.826Zm0-9.2c-4.956,0-7.375-4.307-7.375-12.272s2.419-12.272,7.375-12.272,7.375,4.307,7.375,12.272S-11.564-8.378-16.52-8.378ZM33.925-27.553c0-8.555-6.195-14.573-15.34-14.573-9.086,0-15.34,6.018-15.34,14.573,0,8.024,5.546,13.865,13.747,14.514L8.024,0H18.88L31.506-19.175A15.046,15.046,0,0,0,33.925-27.553Zm-21.24,0a5.622,5.622,0,0,1,5.9-5.723,5.556,5.556,0,0,1,5.9,5.723,5.556,5.556,0,0,1-5.9,5.723A5.622,5.622,0,0,1,12.685-27.553Z" transform="translate(58.696 75.847)"/></g></g><path class="c" d="M6.165.165A5.127,5.127,0,0,0,10.7-2.4l-.705-.4A4.287,4.287,0,0,1,6.165-.6,4.537,4.537,0,0,1,1.5-5.25,4.537,4.537,0,0,1,6.165-9.9a4.278,4.278,0,0,1,3.8,2.16l.7-.4a5.124,5.124,0,0,0-4.5-2.52A5.321,5.321,0,0,0,.705-5.25,5.321,5.321,0,0,0,6.165.165ZM18.945-7.5v1.695a3.606,3.606,0,0,0-3.225-1.86A3.873,3.873,0,0,0,11.835-3.75,3.873,3.873,0,0,0,15.72.165,3.606,3.606,0,0,0,18.945-1.7V0h.765V-7.5ZM15.78-.555A3.157,3.157,0,0,1,12.6-3.75a3.157,3.157,0,0,1,3.18-3.2,3.144,3.144,0,0,1,3.165,3.2A3.144,3.144,0,0,1,15.78-.555Zm10.08-6.21V-7.5H23.625V-9.6l-.765.225V-7.5H21.21v.735h1.65V-1.89C22.86-.18,23.9.3,25.86,0V-.675c-1.53.135-2.235.1-2.235-1.215V-6.765Zm4.725-.9A3.783,3.783,0,0,0,26.7-3.75,3.79,3.79,0,0,0,30.645.165a3.7,3.7,0,0,0,3.27-1.7l-.66-.39a2.854,2.854,0,0,1-2.6,1.365A3.053,3.053,0,0,1,27.48-3.36h6.8c0-.12.015-.24.015-.36A3.757,3.757,0,0,0,30.585-7.665Zm0,.72A2.912,2.912,0,0,1,33.51-4.1H27.48A3.023,3.023,0,0,1,30.585-6.945ZM42.705-7.5v1.74A3.554,3.554,0,0,0,39.48-7.665,3.864,3.864,0,0,0,35.6-3.75,3.864,3.864,0,0,0,39.48.165,3.554,3.554,0,0,0,42.705-1.74V-.36a2.683,2.683,0,0,1-2.985,2.8A2.884,2.884,0,0,1,36.84.99l-.66.375a3.694,3.694,0,0,0,3.54,1.8A3.449,3.449,0,0,0,43.455-.36V-7.5ZM39.525-.555a3.157,3.157,0,0,1-3.18-3.195,3.157,3.157,0,0,1,3.18-3.2,3.157,3.157,0,0,1,3.18,3.2A3.157,3.157,0,0,1,39.525-.555ZM49.2.165A3.883,3.883,0,0,0,53.13-3.75,3.883,3.883,0,0,0,49.2-7.665,3.887,3.887,0,0,0,45.255-3.75,3.887,3.887,0,0,0,49.2.165Zm0-.72A3.157,3.157,0,0,1,46.02-3.75a3.157,3.157,0,0,1,3.18-3.2,3.144,3.144,0,0,1,3.165,3.2A3.144,3.144,0,0,1,49.2-.555ZM55.68-6.03V-7.5h-.75V0h.75V-4.17a2.428,2.428,0,0,1,2.505-2.715v-.72A2.524,2.524,0,0,0,55.68-6.03Zm3.99-2.52.825-1.9h.915l-1.005,1.9ZM59.7,0h.75V-7.5H59.7Zm9.66-7.5v1.695a3.606,3.606,0,0,0-3.225-1.86A3.873,3.873,0,0,0,62.25-3.75,3.873,3.873,0,0,0,66.135.165,3.606,3.606,0,0,0,69.36-1.7V0h.765V-7.5ZM66.2-.555a3.157,3.157,0,0,1-3.18-3.195,3.157,3.157,0,0,1,3.18-3.2,3.144,3.144,0,0,1,3.165,3.2A3.144,3.144,0,0,1,66.2-.555Zm15.99-4.89a2.561,2.561,0,0,0,1.35-2.3,2.762,2.762,0,0,0-2.76-2.76H76.59V0h4.53a2.855,2.855,0,0,0,2.865-2.865A2.753,2.753,0,0,0,82.185-5.445ZM80.775-9.75A1.991,1.991,0,0,1,82.74-7.74a1.991,1.991,0,0,1-1.965,2.01h-3.39V-9.75Zm.345,9H77.385V-4.98H81.12a2.094,2.094,0,0,1,2.07,2.115A2.094,2.094,0,0,1,81.12-.75ZM.2,8.5v1.98H4.68L1.23,19H3.42l3.555-8.745V8.5Zm17.49,3v.885a2.986,2.986,0,0,0-2.445-1.1A3.794,3.794,0,0,0,11.6,15.25a3.794,3.794,0,0,0,3.645,3.96,2.986,2.986,0,0,0,2.445-1.095V19H19.62V11.5ZM15.6,17.365a2.013,2.013,0,0,1-2.07-2.115,2.078,2.078,0,1,1,4.155,0A2.016,2.016,0,0,1,15.6,17.365Zm16.59-5.43A3.558,3.558,0,0,0,28.38,8.29a3.562,3.562,0,0,0-3.8,3.645,3.55,3.55,0,0,0,3.69,3.645L25.935,19h2.37l3.27-4.935H31.56A3.718,3.718,0,0,0,32.19,11.935Zm-5.55,0a1.748,1.748,0,1,1,1.74,1.71A1.65,1.65,0,0,1,26.64,11.935ZM42.87,11.5v.885a2.986,2.986,0,0,0-2.445-1.1,3.794,3.794,0,0,0-3.645,3.96,3.794,3.794,0,0,0,3.645,3.96,2.986,2.986,0,0,0,2.445-1.095V19h1.935V11.5Zm-2.085,5.865a2.013,2.013,0,0,1-2.07-2.115,2.078,2.078,0,1,1,4.155,0A2.016,2.016,0,0,1,40.785,17.365ZM49.95,10.12c1.275.825,2.73.57,2.73-1.815H51.1c0,.75-.195.735-.78.36-1.29-.825-2.73-.57-2.73,1.815h1.56C49.155,9.73,49.365,9.745,49.95,10.12Zm.78,1.17a2.55,2.55,0,0,0-2.235,1.05V11.5H46.56V19h1.935V14.95c0-1.305.705-1.86,1.65-1.86a1.4,1.4,0,0,1,1.485,1.545V19h1.935V14.4A2.8,2.8,0,0,0,50.73,11.29Zm8.055,7.92a3.96,3.96,0,1,0-3.96-3.96A3.931,3.931,0,0,0,58.785,19.21Zm0-1.89a1.991,1.991,0,0,1-2.025-2.07,2.033,2.033,0,1,1,4.065,0A1.994,1.994,0,0,1,58.785,17.32Zm6.96-3.69c0-.4.39-.615.87-.615a1.269,1.269,0,0,1,1.2.765l1.65-.9a3.159,3.159,0,0,0-2.85-1.59c-1.545,0-2.85.855-2.85,2.385,0,2.64,3.87,2.04,3.87,3.135,0,.435-.42.645-1.035.645a1.429,1.429,0,0,1-1.47-.975l-1.68.945A3.226,3.226,0,0,0,66.6,19.21c1.6,0,3.015-.78,3.015-2.4C69.615,14.05,65.745,14.74,65.745,13.63Z" transform="translate(40.334 137.789)"/></svg>