<svg xmlns="http://www.w3.org/2000/svg" width="144.648" height="191.775" viewBox="0 0 144.648 191.775"><defs><style>.a{fill:#ffd32f;}.b{fill:#dfddcd;}.c{fill:#5b3f34;}.d{fill:#ff3823;}.e{fill:#32b9fd;}</style></defs><g transform="translate(-1109.836 -6413.785)"><g transform="translate(1109.836 6413.785)"><path class="a" d="M665.8,140.906a36.264,36.264,0,0,1-27.321,60.121H585.586a27.75,27.75,0,0,1-27.75-27.747V108.531a27.751,27.751,0,0,1,27.75-27.746H638.48A36.264,36.264,0,0,1,665.8,140.906Z" transform="translate(-557.836 -80.785)"/><g transform="translate(13.355 13.287)"><path class="b" d="M582.8,91.328a14.367,14.367,0,1,0,14.361,14.365A14.366,14.366,0,0,0,582.8,91.328Z" transform="translate(-568.433 -91.328)"/></g><path class="c" d="M573.28,104.43a8.255,8.255,0,0,0,16.511,0h-8.256V96.177A8.255,8.255,0,0,0,573.28,104.43Z" transform="translate(-553.816 -76.779)"/></g><g transform="translate(1137.563 6444.737)"><path class="d" d="M687.805,165.466a36.261,36.261,0,0,1-27.319,60.117h-52.9a27.749,27.749,0,0,1-27.754-27.746V133.092a27.751,27.751,0,0,1,27.754-27.747h52.9a36.264,36.264,0,0,1,27.319,60.121Z" transform="translate(-579.837 -105.345)"/><g transform="translate(13.356 13.29)"><path class="b" d="M604.8,115.89a14.366,14.366,0,1,0,14.363,14.363A14.364,14.364,0,0,0,604.8,115.89Z" transform="translate(-590.435 -115.89)"/></g><path class="c" d="M595.282,128.991a8.256,8.256,0,0,0,16.512,0h-8.256v-8.252A8.25,8.25,0,0,0,595.282,128.991Z" transform="translate(-575.817 -101.338)"/></g><g transform="translate(1109.836 6485.318)"><path class="e" d="M665.8,197.669a36.262,36.262,0,0,1-27.319,60.118H585.588a27.751,27.751,0,0,1-27.752-27.747V165.294a27.753,27.753,0,0,1,27.752-27.749h52.895A36.265,36.265,0,0,1,665.8,197.669Z" transform="translate(-557.836 -137.545)"/><g transform="translate(13.355 13.287)"><path class="b" d="M582.8,148.088a14.367,14.367,0,1,0,14.361,14.363A14.365,14.365,0,0,0,582.8,148.088Z" transform="translate(-568.433 -148.088)"/></g><path class="c" d="M573.28,161.188a8.255,8.255,0,1,0,16.511,0h-8.256V152.94A8.252,8.252,0,0,0,573.28,161.188Z" transform="translate(-553.816 -133.538)"/></g></g></svg>