<svg xmlns="http://www.w3.org/2000/svg" viewBox="0 0 228.18 234.67"><title>Recurso 5</title><g id="edf03c8b-6fdb-45a9-8c86-40c15863a6bf" data-name="Capa 2"><g id="aa37c88f-5bd0-41ac-9db5-44f59ad0e758" data-name="Layer 1"><path d="M210.71,117.33a70.78,70.78,0,0,1-53.32,117.34H54.16A54.16,54.16,0,0,1,0,180.51V54.15A54.16,54.16,0,0,1,54.16,0H157.39a70.77,70.77,0,0,1,53.32,117.33Z" style="fill:#ffd32f"/><path d="M54.11,25.93a28,28,0,1,0,28,28A28,28,0,0,0,54.11,25.93Z" style="fill:#dfddcd"/><path d="M38,54a16.11,16.11,0,1,0,32.22,0H54.1V37.85A16.11,16.11,0,0,0,38,54Z" style="fill:#5b3f34"/><path d="M112.11,167a42.74,42.74,0,1,1-42.74-42.75A42.75,42.75,0,0,1,112.11,167Z" style="fill:#dfddcd"/><text transform="translate(43.13 180.35)" style="font-size:43.374778747558594px;fill:#54443c;font-family:Gilroy-ExtraBold, Gilroy;font-weight:800">04</text><path d="M201.55,167a42.74,42.74,0,1,1-42.74-42.75A42.74,42.74,0,0,1,201.55,167Z" style="fill:#dfddcd"/><text transform="translate(133 180.35)" style="font-size:43.374778747558594px;fill:#54443c;font-family:Gilroy-ExtraBold, Gilroy;font-weight:800">06</text><text transform="translate(29.14 100.7)" style="font-size:14px;fill:#5b3f34;font-family:Gilroy-Light, Gilroy;font-weight:300">Categoría A<tspan style="font-family:Gilroy-ExtraBold, Gilroy;font-weight:800"><tspan x="0" y="16.8">4 a 6 años</tspan></tspan></text></g></g></svg>