<svg xmlns="http://www.w3.org/2000/svg" width="315" height="323.955" viewBox="0 0 315 323.955"><defs><style>.a{fill:#ff3823;}.b{fill:#dfddcd;}.c,.e{fill:#5b3f34;}.d{fill:#54443c;font-size:59px;font-family:Gilroy-ExtraBold, Gilroy;font-weight:800;}.e{font-size:15px;font-family:Gilroy-Light, Gilroy;font-weight:300;}.f{font-family:Gilroy-Bold, Gilroy;font-weight:700;}</style></defs><path class="a" d="M624.794,890.431a97.706,97.706,0,0,1-73.608,161.979H408.68a74.769,74.769,0,0,1-74.77-74.757V803.2a74.771,74.771,0,0,1,74.77-74.75H551.186a97.7,97.7,0,0,1,73.608,161.976Z" transform="translate(-333.91 -728.455)"/><g transform="translate(36.078 35.89)"><path class="b" d="M398.793,754.383a38.813,38.813,0,1,0,38.8,38.806A38.814,38.814,0,0,0,398.793,754.383Z" transform="translate(-359.974 -754.383)"/></g><path class="c" d="M371.9,788.607a22.3,22.3,0,1,0,44.6,0H394.2v-22.3A22.3,22.3,0,0,0,371.9,788.607Z" transform="translate(-319.478 -714.074)"/><g transform="translate(36.859 171.136)"><path class="b" d="M478.863,911.883A59.162,59.162,0,1,1,419.7,852.719,59.161,59.161,0,0,1,478.863,911.883Z" transform="translate(-360.538 -852.719)"/><text class="d" transform="translate(58.419 75.847)"><tspan x="-32.45" y="0">07</tspan></text><g transform="translate(122.958)"><path class="b" d="M568.3,911.883a59.162,59.162,0,1,1-59.161-59.164A59.16,59.16,0,0,1,568.3,911.883Z" transform="translate(-449.979 -852.719)"/><text class="d" transform="translate(58.696 75.847)"><tspan x="-35.105" y="0">09</tspan></text></g></g><text class="e" transform="translate(40.334 137.789)"><tspan x="0" y="0">Categoría B</tspan><tspan class="f"><tspan x="0" y="19">7 a 9 años</tspan></tspan></text></svg>