<svg xmlns="http://www.w3.org/2000/svg" width="144.68" height="191.819" viewBox="0 0 144.68 191.819"><defs><style>.a{fill:#ffd32f;}.b{fill:#dfddcd;}.c{fill:#5b3f34;}.d{fill:#32b9fd;}.e{fill:#ff3823;}</style></defs><g transform="translate(-1143.804 -4691.785)"><g transform="translate(1143.804 4691.785)"><path class="a" d="M458.8,140.92a36.275,36.275,0,0,1-27.329,60.135H378.563A27.757,27.757,0,0,1,350.8,173.3V108.537a27.759,27.759,0,0,1,27.759-27.752h52.906A36.275,36.275,0,0,1,458.8,140.92Z" transform="translate(-350.804 -80.785)"/><g transform="translate(13.357 13.29)"><path class="b" d="M375.774,91.328A14.37,14.37,0,1,0,390.139,105.7,14.371,14.371,0,0,0,375.774,91.328Z" transform="translate(-361.4 -91.328)"/></g><path class="c" d="M366.249,104.432a8.257,8.257,0,1,0,16.513,0h-8.257V96.177A8.256,8.256,0,0,0,366.249,104.432Z" transform="translate(-346.78 -76.775)"/></g><g transform="translate(1171.539 4722.744)"><path class="d" d="M480.8,165.48a36.271,36.271,0,0,1-27.328,60.131H400.565a27.756,27.756,0,0,1-27.759-27.752V133.1a27.757,27.757,0,0,1,27.759-27.754h52.907A36.274,36.274,0,0,1,480.8,165.48Z" transform="translate(-372.806 -105.345)"/><g transform="translate(13.359 13.293)"><path class="b" d="M397.776,115.89a14.369,14.369,0,1,0,14.365,14.367A14.367,14.367,0,0,0,397.776,115.89Z" transform="translate(-383.404 -115.89)"/></g><path class="c" d="M388.251,128.993a8.257,8.257,0,0,0,16.515,0h-8.258v-8.254A8.252,8.252,0,0,0,388.251,128.993Z" transform="translate(-368.782 -101.334)"/></g><g transform="translate(1143.804 4763.334)"><path class="e" d="M458.8,197.682a36.271,36.271,0,0,1-27.328,60.132H378.563A27.757,27.757,0,0,1,350.8,230.061V165.3a27.759,27.759,0,0,1,27.759-27.755H431.47A36.275,36.275,0,0,1,458.8,197.682Z" transform="translate(-350.804 -137.545)"/><g transform="translate(13.357 13.29)"><path class="b" d="M375.775,148.088a14.37,14.37,0,1,0,14.364,14.367A14.37,14.37,0,0,0,375.775,148.088Z" transform="translate(-361.4 -148.088)"/></g><path class="c" d="M366.249,161.19a8.257,8.257,0,1,0,16.515,0h-8.258v-8.25A8.254,8.254,0,0,0,366.249,161.19Z" transform="translate(-346.78 -133.534)"/></g></g></svg>