<svg xmlns="http://www.w3.org/2000/svg" width="144.484" height="191.554" viewBox="0 0 144.484 191.554"><defs><style>.a{fill:#ff3823;}.b{fill:#dfddcd;}.c{fill:#5b3f34;}.d{fill:#32b9fd;}.e{fill:#ffd32f;}</style></defs><path class="a" d="M252.2,140.838a36.222,36.222,0,0,1-27.289,60.052H172.082a27.72,27.72,0,0,1-27.722-27.716V108.5a27.721,27.721,0,0,1,27.722-27.713h52.833A36.222,36.222,0,0,1,252.2,140.838Z" transform="translate(-144.36 -80.786)"/><g transform="translate(13.34 13.271)"><path class="b" d="M169.31,91.328a14.351,14.351,0,1,0,14.347,14.348A14.351,14.351,0,0,0,169.31,91.328Z" transform="translate(-154.957 -91.328)"/></g><path class="c" d="M159.806,104.421a8.245,8.245,0,1,0,16.489,0H168.05V96.178A8.243,8.243,0,0,0,159.806,104.421Z" transform="translate(-140.362 -76.802)"/><g transform="translate(27.697 30.917)"><path class="d" d="M274.207,165.4a36.219,36.219,0,0,1-27.289,60.049H194.084a27.717,27.717,0,0,1-27.722-27.713V133.062a27.72,27.72,0,0,1,27.722-27.716h52.834A36.222,36.222,0,0,1,274.207,165.4Z" transform="translate(-166.362 -105.346)"/><g transform="translate(13.342 13.274)"><path class="b" d="M191.312,115.891a14.349,14.349,0,1,0,14.347,14.347A14.345,14.345,0,0,0,191.312,115.891Z" transform="translate(-176.961 -115.891)"/></g><path class="c" d="M181.808,128.983a8.245,8.245,0,0,0,16.491,0h-8.247v-8.244A8.241,8.241,0,0,0,181.808,128.983Z" transform="translate(-162.364 -101.362)"/></g><g transform="translate(0 71.451)"><path class="e" d="M252.2,197.6a36.219,36.219,0,0,1-27.289,60.05H172.082a27.72,27.72,0,0,1-27.722-27.716V165.263a27.722,27.722,0,0,1,27.722-27.717h52.833A36.222,36.222,0,0,1,252.2,197.6Z" transform="translate(-144.36 -137.546)"/><g transform="translate(13.34 13.271)"><path class="b" d="M169.311,148.088a14.351,14.351,0,1,0,14.346,14.347A14.349,14.349,0,0,0,169.311,148.088Z" transform="translate(-154.957 -148.088)"/></g><path class="c" d="M159.806,161.179a8.245,8.245,0,1,0,16.491,0H168.05V152.94A8.241,8.241,0,0,0,159.806,161.179Z" transform="translate(-140.362 -133.562)"/></g></svg>