<svg xmlns="http://www.w3.org/2000/svg" width="315" height="323.993" viewBox="0 0 315 323.993"><defs><style>.a{fill:#32b9fd;}.b{fill:#dfddcd;}.c,.f{fill:#5b3f34;}.d,.e{fill:#54443c;font-family:Gilroy-ExtraBold, Gilroy;font-weight:800;}.d{font-size:59px;}.e{font-size:58px;}.f{font-size:15px;font-family:Gilroy-Light, Gilroy;font-weight:300;}.g{font-family:Gilroy-Bold, Gilroy;font-weight:700;}</style></defs><path class="a" d="M918.841,890.45a97.719,97.719,0,0,1-73.607,162H702.73a74.773,74.773,0,0,1-74.772-74.765V803.213a74.775,74.775,0,0,1,74.772-74.758h142.5A97.717,97.717,0,0,1,918.841,890.45Z" transform="translate(-627.958 -728.455)"/><g transform="translate(35.985 35.798)"><path class="b" d="M692.741,754.383a38.714,38.714,0,1,0,38.7,38.707A38.714,38.714,0,0,0,692.741,754.383Z" transform="translate(-654.022 -754.383)"/></g><path class="c" d="M665.948,788.55a22.241,22.241,0,1,0,44.482,0H688.186V766.309A22.243,22.243,0,0,0,665.948,788.55Z" transform="translate(-613.504 -714.046)"/><g transform="translate(36.764 171.566)"><path class="b" d="M772.607,911.731a59.011,59.011,0,1,1-59.01-59.012A59.009,59.009,0,0,1,772.607,911.731Z" transform="translate(-654.586 -852.719)"/><text class="d" transform="translate(58.162 75.796)"><tspan x="-30.474" y="0">10</tspan></text><g transform="translate(123.451)"><path class="b" d="M862.048,911.731a59.011,59.011,0,1,1-59.009-59.012A59.008,59.008,0,0,1,862.048,911.731Z" transform="translate(-744.027 -852.719)"/><text class="e" transform="translate(58.785 74.796)"><tspan x="-27.144" y="0">12</tspan></text></g></g><text class="f" transform="translate(40.231 137.838)"><tspan x="0" y="0">Categoría C</tspan><tspan class="g"><tspan x="0" y="19">10 a 12 años</tspan></tspan></text></svg>