<svg xmlns="http://www.w3.org/2000/svg" width="315" height="323.993" viewBox="0 0 315 323.993"><defs><style>.a{fill:#32b9fd;}.b{fill:#dfddcd;}.c{fill:#5b3f34;}.d{fill:#54443c;}</style></defs><path class="a" d="M918.841,890.45a97.719,97.719,0,0,1-73.607,162H702.73a74.773,74.773,0,0,1-74.772-74.765V803.213a74.775,74.775,0,0,1,74.772-74.758h142.5A97.717,97.717,0,0,1,918.841,890.45Z" transform="translate(-627.958 -728.455)"/><g transform="translate(35.985 35.798)"><path class="b" d="M692.741,754.383a38.714,38.714,0,1,0,38.7,38.707A38.714,38.714,0,0,0,692.741,754.383Z" transform="translate(-654.022 -754.383)"/></g><path class="c" d="M665.948,788.55a22.241,22.241,0,1,0,44.482,0H688.186V766.309A22.243,22.243,0,0,0,665.948,788.55Z" transform="translate(-613.504 -714.046)"/><g transform="translate(36.764 171.566)"><path class="b" d="M772.607,911.731a59.011,59.011,0,1,1-59.01-59.012A59.009,59.009,0,0,1,772.607,911.731Z" transform="translate(-654.586 -852.719)"/><path class="d" d="M-19.087-41.3l-10.8,3.894,2.3,8.083,7.316-2.006V0h9.44V-41.3ZM11.889.826C22.568.826,28.7-7.906,28.7-20.65S22.568-42.126,11.889-42.126-4.927-33.394-4.927-20.65,1.209.826,11.889.826Zm0-9.2c-4.956,0-7.375-4.307-7.375-12.272s2.419-12.272,7.375-12.272,7.375,4.307,7.375,12.272S16.844-8.378,11.889-8.378Z" transform="translate(58.162 75.796)"/><g transform="translate(123.451)"><path class="b" d="M862.048,911.731a59.011,59.011,0,1,1-59.009-59.012A59.008,59.008,0,0,1,862.048,911.731Z" transform="translate(-744.027 -852.719)"/><path class="d" d="M-15.95-40.6l-10.614,3.828,2.262,7.946L-17.11-30.8V0h9.28V-40.6ZM-2.494,0H25.114V-8.932H11.484l6.728-6.786c3.712-3.712,6.322-7.888,6.322-12.76,0-8.178-6.5-12.934-13.746-12.934A14.479,14.479,0,0,0-2.9-32.538l7.83,4.582c1.1-2.552,3.132-4.408,5.974-4.408a4.035,4.035,0,0,1,4.35,4.292c0,2.378-1.74,4.756-4.118,7.192L-2.494-6.728Z" transform="translate(58.785 74.796)"/></g></g><path class="c" d="M6.165.165A5.127,5.127,0,0,0,10.7-2.4l-.705-.4A4.287,4.287,0,0,1,6.165-.6,4.537,4.537,0,0,1,1.5-5.25,4.537,4.537,0,0,1,6.165-9.9a4.278,4.278,0,0,1,3.8,2.16l.7-.4a5.124,5.124,0,0,0-4.5-2.52A5.321,5.321,0,0,0,.705-5.25,5.321,5.321,0,0,0,6.165.165ZM18.945-7.5v1.695a3.606,3.606,0,0,0-3.225-1.86A3.873,3.873,0,0,0,11.835-3.75,3.873,3.873,0,0,0,15.72.165,3.606,3.606,0,0,0,18.945-1.7V0h.765V-7.5ZM15.78-.555A3.157,3.157,0,0,1,12.6-3.75a3.157,3.157,0,0,1,3.18-3.2,3.144,3.144,0,0,1,3.165,3.2A3.144,3.144,0,0,1,15.78-.555Zm10.08-6.21V-7.5H23.625V-9.6l-.765.225V-7.5H21.21v.735h1.65V-1.89C22.86-.18,23.9.3,25.86,0V-.675c-1.53.135-2.235.1-2.235-1.215V-6.765Zm4.725-.9A3.783,3.783,0,0,0,26.7-3.75,3.79,3.79,0,0,0,30.645.165a3.7,3.7,0,0,0,3.27-1.7l-.66-.39a2.854,2.854,0,0,1-2.6,1.365A3.053,3.053,0,0,1,27.48-3.36h6.8c0-.12.015-.24.015-.36A3.757,3.757,0,0,0,30.585-7.665Zm0,.72A2.912,2.912,0,0,1,33.51-4.1H27.48A3.023,3.023,0,0,1,30.585-6.945ZM42.705-7.5v1.74A3.554,3.554,0,0,0,39.48-7.665,3.864,3.864,0,0,0,35.6-3.75,3.864,3.864,0,0,0,39.48.165,3.554,3.554,0,0,0,42.705-1.74V-.36a2.683,2.683,0,0,1-2.985,2.8A2.884,2.884,0,0,1,36.84.99l-.66.375a3.694,3.694,0,0,0,3.54,1.8A3.449,3.449,0,0,0,43.455-.36V-7.5ZM39.525-.555a3.157,3.157,0,0,1-3.18-3.195,3.157,3.157,0,0,1,3.18-3.2,3.157,3.157,0,0,1,3.18,3.2A3.157,3.157,0,0,1,39.525-.555ZM49.2.165A3.883,3.883,0,0,0,53.13-3.75,3.883,3.883,0,0,0,49.2-7.665,3.887,3.887,0,0,0,45.255-3.75,3.887,3.887,0,0,0,49.2.165Zm0-.72A3.157,3.157,0,0,1,46.02-3.75a3.157,3.157,0,0,1,3.18-3.2,3.144,3.144,0,0,1,3.165,3.2A3.144,3.144,0,0,1,49.2-.555ZM55.68-6.03V-7.5h-.75V0h.75V-4.17a2.428,2.428,0,0,1,2.505-2.715v-.72A2.524,2.524,0,0,0,55.68-6.03Zm3.99-2.52.825-1.9h.915l-1.005,1.9ZM59.7,0h.75V-7.5H59.7Zm9.66-7.5v1.695a3.606,3.606,0,0,0-3.225-1.86A3.873,3.873,0,0,0,62.25-3.75,3.873,3.873,0,0,0,66.135.165,3.606,3.606,0,0,0,69.36-1.7V0h.765V-7.5ZM66.2-.555a3.157,3.157,0,0,1-3.18-3.195,3.157,3.157,0,0,1,3.18-3.2,3.144,3.144,0,0,1,3.165,3.2A3.144,3.144,0,0,1,66.2-.555ZM81.45.165A5.127,5.127,0,0,0,85.98-2.4l-.705-.4A4.287,4.287,0,0,1,81.45-.6a4.537,4.537,0,0,1-4.665-4.65A4.537,4.537,0,0,1,81.45-9.9a4.278,4.278,0,0,1,3.795,2.16l.705-.4a5.124,5.124,0,0,0-4.5-2.52A5.321,5.321,0,0,0,75.99-5.25,5.321,5.321,0,0,0,81.45.165ZM2.925,8.5l-2.76.975.51,1.77,1.98-.555V19h2.07V8.5ZM10.53,19.21c2.685,0,4.2-2.22,4.2-5.46s-1.515-5.46-4.2-5.46-4.2,2.22-4.2,5.46S7.86,19.21,10.53,19.21Zm0-2.025c-1.41,0-2.13-1.215-2.13-3.435s.72-3.45,2.13-3.45,2.145,1.23,2.145,3.45S11.94,17.185,10.53,17.185ZM25.59,11.5v.885a2.986,2.986,0,0,0-2.445-1.1A3.794,3.794,0,0,0,19.5,15.25a3.794,3.794,0,0,0,3.645,3.96,2.986,2.986,0,0,0,2.445-1.095V19h1.935V11.5ZM23.5,17.365a2.013,2.013,0,0,1-2.07-2.115,2.078,2.078,0,1,1,4.155,0A2.016,2.016,0,0,1,23.5,17.365ZM35.07,8.5l-2.76.975.51,1.77,1.98-.555V19h2.07V8.5ZM38.355,19h7.02V17H41.43l2.055-2.055a4.887,4.887,0,0,0,1.725-3.36,3.28,3.28,0,0,0-3.465-3.3,3.7,3.7,0,0,0-3.465,2.22l1.74,1.02a1.9,1.9,0,0,1,1.755-1.23,1.291,1.291,0,0,1,1.365,1.365,3.4,3.4,0,0,1-1.2,2.1l-3.585,3.69Zm17.9-7.5v.885a2.986,2.986,0,0,0-2.445-1.1,3.794,3.794,0,0,0-3.645,3.96A3.794,3.794,0,0,0,53.8,19.21a2.986,2.986,0,0,0,2.445-1.095V19h1.935V11.5Zm-2.085,5.865a2.013,2.013,0,0,1-2.07-2.115,2.078,2.078,0,1,1,4.155,0A2.016,2.016,0,0,1,54.165,17.365ZM63.33,10.12c1.275.825,2.73.57,2.73-1.815H64.485c0,.75-.2.735-.78.36-1.29-.825-2.73-.57-2.73,1.815h1.56C62.535,9.73,62.745,9.745,63.33,10.12Zm.78,1.17a2.55,2.55,0,0,0-2.235,1.05V11.5H59.94V19h1.935V14.95c0-1.305.705-1.86,1.65-1.86a1.4,1.4,0,0,1,1.485,1.545V19h1.935V14.4A2.8,2.8,0,0,0,64.11,11.29Zm8.055,7.92a3.96,3.96,0,1,0-3.96-3.96A3.931,3.931,0,0,0,72.165,19.21Zm0-1.89a1.991,1.991,0,0,1-2.025-2.07,2.033,2.033,0,1,1,4.065,0A1.994,1.994,0,0,1,72.165,17.32Zm6.96-3.69c0-.4.39-.615.87-.615a1.269,1.269,0,0,1,1.2.765l1.65-.9A3.159,3.159,0,0,0,80,11.29c-1.545,0-2.85.855-2.85,2.385,0,2.64,3.87,2.04,3.87,3.135,0,.435-.42.645-1.035.645a1.429,1.429,0,0,1-1.47-.975l-1.68.945a3.226,3.226,0,0,0,3.15,1.785c1.6,0,3.015-.78,3.015-2.4C83,14.05,79.125,14.74,79.125,13.63Z" transform="translate(40.231 137.838)"/></svg>