<svg xmlns="http://www.w3.org/2000/svg" width="224.678" height="47.368" viewBox="0 0 224.678 47.368"><defs><style>.a{fill:#5b3f34;}</style></defs><g transform="translate(0 0)"><g transform="translate(123.453 0.286)"><path class="a" d="M1052.4,933.28V919.886h6.418v2H1054.7v3.452h3.081v2H1054.7v5.936Z" transform="translate(-1051.506 -919.7)"/><path class="a" d="M1059.628,919.886h2.3V930c0,.983.389,1.466,1.223,1.466s1.225-.483,1.225-1.466v-10.11h2.3V929.9a3.525,3.525,0,1,1-7.05,0Z" transform="translate(-1049.573 -919.7)"/><path class="a" d="M1067.677,933.28V919.886h2.135l2.8,7.661h.035v-7.661h2.08V933.28h-2l-2.933-8.367h-.037v8.367Z" transform="translate(-1047.422 -919.7)"/><path class="a" d="M1075.728,919.886h3.414c2.375,0,3.637,1.3,3.637,4.044v5.306c0,2.746-1.262,4.044-3.637,4.044h-3.414Zm2.3,11.5h.8c1.224,0,1.65-.463,1.65-1.874V923.65c0-1.408-.426-1.873-1.65-1.873h-.8Z" transform="translate(-1045.27 -919.7)"/><path class="a" d="M1085.3,933.28h-2.227l2.466-13.394h2.858l2.469,13.394h-2.228l-.408-2.969h-2.522Zm.741-4.972h1.854l-.907-5.752h-.038Z" transform="translate(-1043.306 -919.7)"/><path class="a" d="M1095.646,924.4v-1.037c0-1.133-.519-1.617-1.111-1.617-.929,0-1.224.484-1.224,1.485v6.79c0,1,.3,1.485,1.224,1.485.835,0,1.111-.483,1.111-1.355v-1.613h2.3v1.54a3.189,3.189,0,0,1-3.414,3.433,3.221,3.221,0,0,1-3.527-3.433v-6.9a3.219,3.219,0,0,1,3.527-3.432c2.3,0,3.414,1.671,3.414,3.674v.982Z" transform="translate(-1041.186 -919.739)"/><path class="a" d="M1099.308,933.28V919.886h2.3V933.28Z" transform="translate(-1038.967 -919.7)"/><path class="a" d="M1103.86,923.171a3.526,3.526,0,0,1,7.05,0v6.9a3.526,3.526,0,0,1-7.05,0Zm2.3,6.846c0,1,.3,1.485,1.223,1.485s1.226-.483,1.226-1.485v-6.79c0-1-.3-1.485-1.226-1.485s-1.223.484-1.223,1.485Z" transform="translate(-1037.75 -919.739)"/><path class="a" d="M1111.911,933.28V919.886h2.133l2.8,7.661h.038v-7.661h2.077V933.28h-2l-2.931-8.367h-.038v8.367Z" transform="translate(-1035.598 -919.7)"/><path class="a" d="M1057.034,937v-1.038c0-1.13-.518-1.615-1.113-1.615-.928,0-1.224.484-1.224,1.484v6.79c0,1,.3,1.484,1.224,1.484.835,0,1.113-.482,1.113-1.353v-1.615h2.3v1.54a3.469,3.469,0,0,1-6.938,0v-6.9a3.219,3.219,0,0,1,3.524-3.433c2.3,0,3.414,1.67,3.414,3.674V937Z" transform="translate(-1051.506 -916.371)"/><path class="a" d="M1061.973,945.882h-2.228l2.468-13.4h2.856l2.467,13.4h-2.225l-.408-2.969h-2.523Zm.74-4.973h1.855l-.909-5.751h-.037Z" transform="translate(-1049.542 -916.332)"/><path class="a" d="M1067.589,945.882v-13.4h2.3v11.392h3.618v2Z" transform="translate(-1047.445 -916.332)"/><path class="a" d="M1075.628,945.882H1073.4l2.468-13.4h2.856l2.467,13.4h-2.227l-.408-2.969h-2.523Zm.741-4.973h1.855l-.91-5.751h-.037Z" transform="translate(-1045.892 -916.332)"/><path class="a" d="M1090.582,932.485v13.4h-2V935.417h-.038l-2.077,10.464h-1.114l-2.077-10.464h-.037v10.464h-2v-13.4h3.024l1.632,7.829h.038l1.632-7.829Z" transform="translate(-1043.799 -916.332)"/><path class="a" d="M1091.008,932.485h2.3V942.6c0,.983.389,1.465,1.224,1.465s1.223-.482,1.223-1.465V932.485h2.3v10.021a3.526,3.526,0,1,1-7.052,0Z" transform="translate(-1041.186 -916.332)"/><path class="a" d="M1103.7,937v-1.038c0-1.13-.519-1.615-1.113-1.615-.927,0-1.223.484-1.223,1.484v6.79c0,1,.3,1.484,1.223,1.484.837,0,1.113-.482,1.113-1.353v-1.615h2.3v1.54a3.469,3.469,0,0,1-6.939,0v-6.9a3.219,3.219,0,0,1,3.524-3.433c2.3,0,3.414,1.67,3.414,3.674V937Z" transform="translate(-1039.034 -916.371)"/><path class="a" d="M1107.11,945.882v-13.4h2.3v5.456h2.448v-5.456h2.3v13.4h-2.3v-5.938h-2.448v5.938Z" transform="translate(-1036.882 -916.332)"/><path class="a" d="M1115.409,945.882v-13.4h2.3v13.4Z" transform="translate(-1034.663 -916.332)"/><path class="a" d="M1121.483,934.489h-2.225v-2h6.752v2h-2.226v11.393h-2.3Z" transform="translate(-1033.635 -916.332)"/><path class="a" d="M1127.646,945.882h-2.225l2.467-13.4h2.856l2.467,13.4h-2.225l-.409-2.969h-2.523Zm.741-4.973h1.857l-.911-5.751h-.036Z" transform="translate(-1031.987 -916.332)"/><path class="a" d="M1053.922,958.48h-2.228l2.467-13.4h2.856l2.468,13.4h-2.225l-.408-2.967h-2.523Zm.741-4.973h1.855l-.91-5.75h-.037Z" transform="translate(-1051.694 -912.964)"/><path class="a" d="M1061.929,958.48h-2.3v-13.4h3.228c2.579,0,3.9,1.095,3.9,3.953,0,2.151-.835,3.024-1.615,3.376l1.948,6.067h-2.338l-1.632-5.547a10.856,10.856,0,0,1-1.185.056Zm0-7.383h.815c1.244,0,1.707-.465,1.707-2.059s-.463-2.059-1.707-2.059h-.815Z" transform="translate(-1049.573 -912.964)"/><path class="a" d="M1069.2,947.09h-2.227v-2h6.752v2H1071.5V958.48h-2.3Z" transform="translate(-1047.609 -912.964)"/><path class="a" d="M1074.1,958.48v-13.4h6.159v2H1076.4v3.451h2.969v2H1076.4v3.931h4.119v2Z" transform="translate(-1045.704 -912.964)"/></g><path class="a" d="M954.279,964.865h7.86V945.707h9.026v-7.341h-9.026v-9.335H973v-7.386H954.279Z" transform="translate(-954.279 -918.943)"/><path class="a" d="M990.412,964.865a5.96,5.96,0,0,0,4.238-1.379,5.447,5.447,0,0,0,1.474-4.145v-37.7h-7.861V956.89H981.94V921.645h-7.852v37.7a5.438,5.438,0,0,0,1.465,4.145,5.95,5.95,0,0,0,4.24,1.379Z" transform="translate(-948.984 -918.943)"/><path class="a" d="M1017.114,957.38h-11.365V929.022l11.365.009v-7.386H1003.6a6,6,0,0,0-4.245,1.384,5.423,5.423,0,0,0-1.461,4.14v32.172a5.433,5.433,0,0,0,1.461,4.145,5.989,5.989,0,0,0,4.245,1.379h13.513Z" transform="translate(-942.621 -918.943)"/><g transform="translate(102.117 1.238)"><path class="a" d="M1040.509,931.79a5.65,5.65,0,1,1,5.648-5.65A5.656,5.656,0,0,1,1040.509,931.79Zm0-9.079a3.428,3.428,0,1,0,3.428,3.429A3.431,3.431,0,0,0,1040.509,922.711Z" transform="translate(-1034.858 -920.49)"/></g><path class="a" d="M1043.629,960.9a1.109,1.109,0,0,0-1.518-.4,14.149,14.149,0,0,1-11.067,1.355V960.14a14.831,14.831,0,0,0,11.026-1.626,1.111,1.111,0,1,0-1.117-1.921,12.753,12.753,0,0,1-9.909,1.248v-1.722a13.552,13.552,0,0,0,9.972-1.514,1.11,1.11,0,1,0-1.115-1.919,11.511,11.511,0,0,1-8.857,1.141V952.1a12.444,12.444,0,0,0,9.017-1.417,1.11,1.11,0,1,0-1.116-1.919,10.361,10.361,0,0,1-7.9,1.051v-1.732a11.387,11.387,0,0,0,8.146-1.323,1.112,1.112,0,1,0-1.116-1.922,9.309,9.309,0,0,1-7.03.968v-1.735a10.5,10.5,0,0,0,7.356-1.246,1.111,1.111,0,0,0-1.118-1.92,8.354,8.354,0,0,1-6.239.893v-1.758a8.947,8.947,0,0,0,6.039-1.1,1.111,1.111,0,0,0-1.118-1.921,6.775,6.775,0,0,1-4.921.758v-1.786a7.31,7.31,0,0,0,4.939-.957,1.111,1.111,0,1,0-1.115-1.921,5.467,5.467,0,0,1-3.823.634v-1.8a6.128,6.128,0,0,0,.644.057,6.448,6.448,0,0,0,3.242-.876,1.111,1.111,0,0,0-1.118-1.921,4.205,4.205,0,0,1-2.768.516V928.29a5.4,5.4,0,0,0,3.1-1.253,1.111,1.111,0,0,0-1.436-1.7,3.17,3.17,0,0,1-1.664.717v-.967a3.938,3.938,0,0,0,2.36-1.941,1.112,1.112,0,0,0-1.967-1.037,1.712,1.712,0,0,1-.393.48v-1.969a1.111,1.111,0,1,0-2.223,0v1.969a1.7,1.7,0,0,1-.39-.48,1.112,1.112,0,0,0-1.967,1.037,3.934,3.934,0,0,0,2.357,1.941v.967a3.187,3.187,0,0,1-1.664-.717,1.112,1.112,0,1,0-1.435,1.7,5.429,5.429,0,0,0,3.1,1.251v1.426a4.188,4.188,0,0,1-2.764-.516,1.112,1.112,0,0,0-1.121,1.921,6.438,6.438,0,0,0,3.24.876,6.156,6.156,0,0,0,.645-.057v1.8a5.465,5.465,0,0,1-3.822-.634,1.111,1.111,0,0,0-1.116,1.921,7.7,7.7,0,0,0,3.875,1.049,7.5,7.5,0,0,0,1.063-.094v1.786a6.762,6.762,0,0,1-4.918-.757,1.111,1.111,0,1,0-1.118,1.921,8.939,8.939,0,0,0,6.036,1.1V941.8a8.349,8.349,0,0,1-6.238-.893,1.111,1.111,0,1,0-1.117,1.92,10.489,10.489,0,0,0,7.354,1.246v1.735a9.319,9.319,0,0,1-7.03-.966,1.11,1.11,0,1,0-1.115,1.92,11.539,11.539,0,0,0,5.813,1.573,11.414,11.414,0,0,0,2.332-.25v1.732a10.341,10.341,0,0,1-7.9-1.051,1.11,1.11,0,1,0-1.118,1.919,12.44,12.44,0,0,0,9.016,1.417v1.725a11.5,11.5,0,0,1-8.853-1.141,1.111,1.111,0,1,0-1.119,1.919,13.552,13.552,0,0,0,9.972,1.514v1.722a12.756,12.756,0,0,1-9.906-1.248,1.111,1.111,0,0,0-1.118,1.921,14.828,14.828,0,0,0,11.024,1.626v1.713a14.139,14.139,0,0,1-11.065-1.356,1.111,1.111,0,0,0-1.118,1.92,16.236,16.236,0,0,0,12.183,1.745v1.607a1.111,1.111,0,1,0,2.223,0v-1.607a16.239,16.239,0,0,0,12.184-1.745A1.112,1.112,0,0,0,1043.629,960.9Z" transform="translate(-937.758 -919.513)"/></g></svg>