<svg xmlns="http://www.w3.org/2000/svg" width="145.697" height="145.695" viewBox="0 0 145.697 145.695"><defs><style>.a{fill:#ffd32f;}.b{fill:#ff3823;}.c{fill:#32b9fd;}.d{fill:#dfddcd;}</style></defs><g transform="translate(-402.539 -357.968)"><g transform="translate(475.389 394.38)"><rect class="a" width="36.438" height="36.434" transform="translate(0.02)"/><g transform="translate(0 0.011)"><path class="b" d="M476.478,376.725a36.425,36.425,0,0,0-36.423,36.423H512.9A36.43,36.43,0,0,0,476.478,376.725Z" transform="translate(-440.055 -376.725)"/></g></g><g transform="translate(438.951 357.968)"><rect class="c" width="36.437" height="36.435" transform="translate(0 36.39)"/><g transform="translate(0.013)"><path class="a" d="M421.3,394.391a36.426,36.426,0,0,0,36.425,36.423V357.968A36.429,36.429,0,0,0,421.3,394.391Z" transform="translate(-421.297 -357.968)"/></g></g><g transform="translate(402.539 430.783)"><rect class="b" width="36.438" height="36.435" transform="translate(36.39 0.001)"/><path class="c" d="M438.964,431.891a36.428,36.428,0,0,0,36.425-36.425h-72.85A36.432,36.432,0,0,0,438.964,431.891Z" transform="translate(-402.539 -395.466)"/></g><g transform="translate(475.623 430.814)"><rect class="b" width="36.434" height="36.437" transform="translate(0 0.022)"/><g transform="translate(0)"><path class="a" d="M476.6,431.907a36.428,36.428,0,0,0-36.425-36.425v72.85A36.432,36.432,0,0,0,476.6,431.907Z" transform="translate(-440.176 -395.482)"/></g></g><path class="d" d="M452.912,399.631a8.585,8.585,0,1,1-8.583-8.585A8.587,8.587,0,0,1,452.912,399.631Z" transform="translate(31.271 31.154)"/></g></svg>