<svg xmlns="http://www.w3.org/2000/svg" xmlns:xlink="http://www.w3.org/1999/xlink" width="273" height="337.053" viewBox="0 0 273 337.053"><defs><style>.a{fill:none;}.b{fill:#22c253;}.c{fill:#ffd32f;}.d{clip-path:url(#a);}.e{fill:#ff3823;}.f{fill:#32b9fd;}</style><clipPath id="a"><rect class="a" width="272.895" height="337.053"/></clipPath></defs><g transform="translate(-1093 -1493.904)"><rect class="b" width="272.895" height="337.053" transform="translate(1093 1493.904)"/><path class="c" d="M-87.12-30.8V0h6.072V-30.8Zm35.86,8.184a7.537,7.537,0,0,0-6.556,3.168A6.6,6.6,0,0,0-63.8-22.616a6.945,6.945,0,0,0-6.116,2.948V-22h-5.676V0h5.676V-12.364c0-3.3,1.716-4.972,4.136-4.972,2.376,0,3.7,1.584,3.7,4.18V0h5.676V-12.364c0-3.3,1.584-4.972,4.092-4.972,2.376,0,3.7,1.584,3.7,4.18V0h5.676V-13.552C-42.944-19.052-46.244-22.616-51.26-22.616ZM-21.384-22v2.6a8.758,8.758,0,0,0-7.172-3.212c-5.852,0-10.692,5.06-10.692,11.616S-34.408.616-28.556.616A8.758,8.758,0,0,0-21.384-2.6V0h5.676V-22ZM-27.5-4.8A5.9,5.9,0,0,1-33.572-11,5.9,5.9,0,0,1-27.5-17.2,5.915,5.915,0,0,1-21.384-11,5.915,5.915,0,0,1-27.5-4.8ZM6.292-22v2.728a8.406,8.406,0,0,0-7.04-3.344A11.026,11.026,0,0,0-11.7-11.352,11,11,0,0,0-.748-.088a8.406,8.406,0,0,0,7.04-3.344v2.376c0,3.476-2.2,5.412-5.764,5.412-3.388,0-4.84-1.364-5.764-3.08l-4.84,2.772C-8.14,7.612-4.356,9.416.352,9.416c5.808,0,11.484-3.256,11.484-10.472V-22ZM.132-5.324a5.883,5.883,0,0,1-6.16-6.028,5.873,5.873,0,0,1,6.16-5.984,5.873,5.873,0,0,1,6.16,5.984A5.883,5.883,0,0,1,.132-5.324ZM19.8-24.64a3.521,3.521,0,0,0,3.52-3.476,3.559,3.559,0,0,0-3.52-3.52,3.551,3.551,0,0,0-3.476,3.52A3.512,3.512,0,0,0,19.8-24.64ZM16.984,0H22.66V-22H16.984Zm23.1-22.616c-2.948,0-5.236,1.1-6.556,3.08V-22H27.852V0h5.676V-11.88c0-3.828,2.068-5.456,4.84-5.456,2.552,0,4.356,1.54,4.356,4.532V0H48.4V-13.508C48.4-19.36,44.748-22.616,40.084-22.616ZM69.96-22v2.6a8.758,8.758,0,0,0-7.172-3.212C56.936-22.616,52.1-17.556,52.1-11S56.936.616,62.788.616A8.758,8.758,0,0,0,69.96-2.6V0h5.676V-22ZM63.844-4.8A5.9,5.9,0,0,1,57.772-11a5.9,5.9,0,0,1,6.072-6.2A5.915,5.915,0,0,1,69.96-11,5.915,5.915,0,0,1,63.844-4.8ZM84.084.572a3.737,3.737,0,0,0,3.74-3.74,3.737,3.737,0,0,0-3.74-3.74,3.737,3.737,0,0,0-3.74,3.74A3.737,3.737,0,0,0,84.084.572Z" transform="translate(1230 1608.832)"/><g transform="translate(1093.104 1493.904)"><g class="d" transform="translate(0 0)"><g transform="translate(113.008 161.81)"><g transform="translate(0 256.844)"><path class="e" d="M1722.446,290.842V274.819a16.027,16.027,0,0,0-.009,32.055h16.051V290.842Z" transform="translate(-1690.395 -274.819)"/><path class="f" d="M1749,301.371a16.026,16.026,0,1,0-32.053,0h.1v16.04h16.031v-16.04Z" transform="translate(-1684.892 -269.316)"/><path class="e" d="M1722.553,295.873v-.015h-16.142v16.033h16.142v16.034a16.026,16.026,0,1,0,0-32.051Z" transform="translate(-1690.398 -263.819)"/><g transform="translate(0 32.039)"><path class="f" d="M1711.919,311.884a16.025,16.025,0,0,0,16.028-16.026H1695.9A16.026,16.026,0,0,0,1711.919,311.884Z" transform="translate(-1695.896 -295.858)"/></g><path class="f" d="M1722.438,301.376a16.031,16.031,0,0,1-16.019-16.028v-.015h0v16.051l16.031,0Z" transform="translate(-1690.396 -269.322)"/><path class="c" d="M1722.585,297.283a4.155,4.155,0,1,1-4.155-4.151A4.155,4.155,0,0,1,1722.585,297.283Z" transform="translate(-1686.287 -265.244)"/></g><g transform="translate(64.211 192.633)"><path class="e" d="M1764.61,248.677V232.654a16.027,16.027,0,0,0-.009,32.055h16.051V248.677Z" transform="translate(-1732.559 -232.654)"/><path class="f" d="M1791.161,259.206a16.026,16.026,0,1,0-32.053,0h.1v16.04h16.031v-16.04Z" transform="translate(-1727.056 -227.152)"/><path class="e" d="M1764.718,253.708v-.015h-16.142v16.033h16.142V285.76a16.026,16.026,0,1,0,0-32.051Z" transform="translate(-1732.563 -221.654)"/><g transform="translate(0 32.039)"><path class="f" d="M1754.086,269.72a16.025,16.025,0,0,0,16.026-16.027h-32.051A16.027,16.027,0,0,0,1754.086,269.72Z" transform="translate(-1738.061 -253.693)"/></g><path class="f" d="M1764.6,259.211a16.031,16.031,0,0,1-16.017-16.028v-.015h0v16.051l16.031,0Z" transform="translate(-1732.561 -227.157)"/><path class="c" d="M1764.75,255.118a4.155,4.155,0,1,1-4.153-4.151A4.155,4.155,0,0,1,1764.75,255.118Z" transform="translate(-1728.452 -223.079)"/></g><g transform="translate(128.422 128.422)"><path class="e" d="M1806.775,206.512V190.489a16.027,16.027,0,0,0-.009,32.055h16.051V206.512Z" transform="translate(-1774.724 -190.489)"/><path class="f" d="M1833.326,217.041a16.027,16.027,0,1,0-32.053,0h.1v16.04h16.031l0-16.04Z" transform="translate(-1769.221 -184.986)"/><path class="e" d="M1806.883,211.543v-.015h-16.142v16.033h16.142v16.034a16.026,16.026,0,1,0,0-32.051Z" transform="translate(-1774.728 -179.489)"/><g transform="translate(0 32.039)"><path class="f" d="M1796.251,227.555a16.025,16.025,0,0,0,16.026-16.027h-32.051A16.027,16.027,0,0,0,1796.251,227.555Z" transform="translate(-1780.226 -211.528)"/></g><path class="f" d="M1806.768,217.046a16.031,16.031,0,0,1-16.017-16.028V201h0v16.051l16.031,0Z" transform="translate(-1774.725 -184.992)"/><path class="c" d="M1806.915,212.953a4.155,4.155,0,1,1-4.153-4.151A4.155,4.155,0,0,1,1806.915,212.953Z" transform="translate(-1770.617 -180.914)"/></g><g transform="translate(192.633 64.211)"><path class="e" d="M1848.94,164.347V148.324a16.027,16.027,0,0,0-.009,32.055h16.051V164.347Z" transform="translate(-1816.889 -148.324)"/><path class="f" d="M1875.491,174.876a16.026,16.026,0,1,0-32.053,0h.1v16.04h16.031v-16.04Z" transform="translate(-1811.386 -142.822)"/><path class="e" d="M1849.048,169.378v-.015h-16.142V185.4h16.142V201.43a16.026,16.026,0,1,0,0-32.051Z" transform="translate(-1816.893 -137.324)"/><g transform="translate(0 32.039)"><path class="f" d="M1838.416,185.389a16.025,16.025,0,0,0,16.027-16.026h-32.052A16.027,16.027,0,0,0,1838.416,185.389Z" transform="translate(-1822.391 -169.363)"/></g><path class="f" d="M1848.933,174.881a16.031,16.031,0,0,1-16.018-16.028v-.015h0v16.051l16.031,0Z" transform="translate(-1816.891 -142.827)"/><path class="c" d="M1849.08,170.788a4.155,4.155,0,1,1-4.153-4.151A4.155,4.155,0,0,1,1849.08,170.788Z" transform="translate(-1812.782 -138.749)"/></g><g transform="translate(256.844)"><path class="e" d="M1891.106,122.182V106.159a16.027,16.027,0,0,0-.009,32.055h16.051V122.182Z" transform="translate(-1859.054 -106.159)"/><path class="f" d="M1917.656,132.711a16.026,16.026,0,1,0-32.053,0h.1v16.04h16.031v-16.04Z" transform="translate(-1853.552 -100.656)"/><path class="e" d="M1891.213,127.213V127.2h-16.142v16.033h16.142v16.034a16.026,16.026,0,1,0,0-32.051Z" transform="translate(-1859.058 -95.159)"/><g transform="translate(0 32.039)"><path class="f" d="M1880.581,143.225a16.025,16.025,0,0,0,16.027-16.027h-32.052A16.027,16.027,0,0,0,1880.581,143.225Z" transform="translate(-1864.556 -127.198)"/></g><path class="f" d="M1891.1,132.716a16.031,16.031,0,0,1-16.018-16.028v-.015h0v16.051l16.031,0Z" transform="translate(-1859.056 -100.662)"/><path class="c" d="M1891.245,128.623a4.155,4.155,0,1,1-4.153-4.151A4.154,4.154,0,0,1,1891.245,128.623Z" transform="translate(-1854.947 -96.584)"/></g></g><g transform="translate(48.393 97.197)"><g transform="translate(0 256.846)"><path class="e" d="M1680.016,248.413V232.391a16.027,16.027,0,0,0-.009,32.055h16.051V248.413Z" transform="translate(-1647.964 -232.391)"/><path class="f" d="M1706.566,258.944a16.026,16.026,0,1,0-32.053,0h.105v16.04h16.03v-16.04Z" transform="translate(-1642.461 -226.889)"/><path class="e" d="M1680.125,253.445v-.015h-16.144v16.031h16.144V285.5a16.025,16.025,0,1,0,0-32.05Z" transform="translate(-1647.968 -221.391)"/><g transform="translate(0 32.039)"><path class="f" d="M1669.491,269.455a16.025,16.025,0,0,0,16.026-16.025h-32.052A16.026,16.026,0,0,0,1669.491,269.455Z" transform="translate(-1653.466 -253.43)"/></g><path class="f" d="M1680.008,258.949a16.032,16.032,0,0,1-16.017-16.03V242.9h0l0,16.049,16.031,0Z" transform="translate(-1647.966 -226.894)"/><path class="c" d="M1680.155,254.856A4.155,4.155,0,1,1,1676,250.7,4.153,4.153,0,0,1,1680.155,254.856Z" transform="translate(-1643.856 -222.817)"/></g><g transform="translate(64.211 192.633)"><path class="e" d="M1722.181,206.247V190.225a16.026,16.026,0,0,0-.009,32.053h16.051V206.247Z" transform="translate(-1690.129 -190.225)"/><path class="f" d="M1748.731,216.776a16.026,16.026,0,1,0-32.053,0h.1v16.042h16.03l0-16.042Z" transform="translate(-1684.627 -184.723)"/><path class="e" d="M1722.29,211.278v-.014h-16.144V227.3h16.144v16.034a16.026,16.026,0,1,0,0-32.052Z" transform="translate(-1690.133 -179.225)"/><g transform="translate(0 32.039)"><path class="f" d="M1711.656,227.289a16.025,16.025,0,0,0,16.026-16.025h-32.052A16.026,16.026,0,0,0,1711.656,227.289Z" transform="translate(-1695.631 -211.264)"/></g><path class="f" d="M1722.173,216.781a16.029,16.029,0,0,1-16.017-16.028v-.015h0l0,16.052,16.031,0Z" transform="translate(-1690.13 -184.728)"/><path class="c" d="M1722.32,212.69a4.155,4.155,0,1,1-4.153-4.153A4.153,4.153,0,0,1,1722.32,212.69Z" transform="translate(-1686.021 -180.651)"/></g><g transform="translate(128.422 128.422)"><path class="e" d="M1764.345,164.083V148.06a16.027,16.027,0,0,0-.009,32.055h16.052V164.083Z" transform="translate(-1732.294 -148.06)"/><path class="f" d="M1790.9,174.612a16.026,16.026,0,1,0-32.053,0h.105v16.042h16.03V174.612Z" transform="translate(-1726.792 -142.558)"/><path class="e" d="M1764.455,169.114V169.1h-16.144v16.031h16.144v16.034a16.026,16.026,0,1,0,0-32.052Z" transform="translate(-1732.298 -137.059)"/><g transform="translate(0 32.041)"><path class="f" d="M1753.821,185.125a16.025,16.025,0,0,0,16.026-16.025H1737.8A16.026,16.026,0,0,0,1753.821,185.125Z" transform="translate(-1737.796 -169.1)"/></g><path class="f" d="M1764.338,174.617a16.03,16.03,0,0,1-16.017-16.028v-.015h0v16.049l16.031,0Z" transform="translate(-1732.296 -142.563)"/><path class="c" d="M1764.485,170.526a4.155,4.155,0,1,1-4.153-4.153A4.153,4.153,0,0,1,1764.485,170.526Z" transform="translate(-1728.187 -138.485)"/></g><g transform="translate(192.633 64.211)"><path class="e" d="M1806.51,121.917V105.9a16.027,16.027,0,0,0-.008,32.053h16.049V121.917Z" transform="translate(-1774.459 -105.895)"/><path class="f" d="M1833.061,132.446a16.026,16.026,0,1,0-32.053,0h.1v16.042h16.03l0-16.042Z" transform="translate(-1768.957 -100.393)"/><path class="e" d="M1806.62,126.948v-.014h-16.144v16.031h16.144V159a16.026,16.026,0,1,0,0-32.051Z" transform="translate(-1774.463 -94.895)"/><g transform="translate(0 32.039)"><path class="f" d="M1795.986,142.959a16.025,16.025,0,0,0,16.027-16.025h-32.052A16.026,16.026,0,0,0,1795.986,142.959Z" transform="translate(-1779.961 -126.934)"/></g><path class="f" d="M1806.5,132.451a16.03,16.03,0,0,1-16.019-16.028v-.015h0l0,16.052,16.031,0Z" transform="translate(-1774.461 -100.398)"/><path class="c" d="M1806.65,128.36a4.155,4.155,0,1,1-4.153-4.153A4.152,4.152,0,0,1,1806.65,128.36Z" transform="translate(-1770.352 -96.321)"/></g><g transform="translate(256.846)"><path class="e" d="M1848.675,79.752V63.73a16.026,16.026,0,0,0-.009,32.053h16.052V79.752Z" transform="translate(-1816.625 -63.73)"/><path class="f" d="M1875.226,90.281a16.026,16.026,0,1,0-32.053,0h.1v16.04h16.03l0-16.04Z" transform="translate(-1811.123 -58.228)"/><path class="e" d="M1848.785,84.783v-.014h-16.144V100.8h16.144v16.036a16.027,16.027,0,1,0,0-32.053Z" transform="translate(-1816.63 -52.73)"/><g transform="translate(0 32.039)"><path class="f" d="M1838.151,100.794a16.025,16.025,0,0,0,16.026-16.025h-32.05A16.025,16.025,0,0,0,1838.151,100.794Z" transform="translate(-1822.127 -84.769)"/></g><path class="f" d="M1848.668,90.286a16.03,16.03,0,0,1-16.017-16.028v-.015h0V90.3l16.031,0Z" transform="translate(-1816.627 -58.233)"/><path class="c" d="M1848.815,86.195a4.155,4.155,0,1,1-4.153-4.153A4.153,4.153,0,0,1,1848.815,86.195Z" transform="translate(-1812.518 -54.156)"/></g></g><g transform="translate(-16.218 32.584)"><g transform="translate(0 256.844)"><path class="e" d="M1637.589,205.983V189.961a16.027,16.027,0,0,0-.009,32.055h16.049V205.983Z" transform="translate(-1605.537 -189.961)"/><path class="f" d="M1664.135,216.514a16.025,16.025,0,1,0-32.05,0h.1v16.04h16.028l0-16.04Z" transform="translate(-1600.033 -184.459)"/><path class="e" d="M1637.7,211.015V211h-16.145v16.031H1637.7v16.036a16.026,16.026,0,0,0,0-32.052Z" transform="translate(-1605.541 -178.961)"/><g transform="translate(0 32.039)"><path class="f" d="M1627.06,227.025A16.024,16.024,0,0,0,1643.089,211h-32.052A16.025,16.025,0,0,0,1627.06,227.025Z" transform="translate(-1611.038 -211)"/></g><path class="f" d="M1637.581,216.518a16.032,16.032,0,0,1-16.021-16.03v-.014h0v16.051l16.032,0Z" transform="translate(-1605.538 -184.464)"/><path class="c" d="M1637.727,212.426a4.155,4.155,0,1,1-4.156-4.153A4.156,4.156,0,0,1,1637.727,212.426Z" transform="translate(-1601.428 -180.387)"/></g><g transform="translate(64.21 192.633)"><path class="e" d="M1679.752,163.818V147.8a16.027,16.027,0,0,0-.009,32.055h16.052V163.818Z" transform="translate(-1647.7 -147.796)"/><path class="f" d="M1706.3,174.349a16.026,16.026,0,1,0-32.053,0h.1v16.04h16.031v-16.04Z" transform="translate(-1642.198 -142.294)"/><path class="e" d="M1679.859,168.85v-.015h-16.142v16.031h16.142V200.9a16.026,16.026,0,1,0,0-32.051Z" transform="translate(-1647.704 -136.796)"/><g transform="translate(0 32.039)"><path class="f" d="M1669.227,184.86a16.024,16.024,0,0,0,16.027-16.025H1653.2A16.025,16.025,0,0,0,1669.227,184.86Z" transform="translate(-1653.202 -168.835)"/></g><path class="f" d="M1679.745,174.353a16.031,16.031,0,0,1-16.017-16.03v-.014h0l0,16.051,16.033,0Z" transform="translate(-1647.702 -142.299)"/><path class="c" d="M1679.891,170.261a4.155,4.155,0,1,1-4.153-4.153A4.154,4.154,0,0,1,1679.891,170.261Z" transform="translate(-1643.593 -138.222)"/></g><g transform="translate(153.422 125.422)"><path class="e" d="M1721.918,121.653V105.631a16.027,16.027,0,0,0-.009,32.055h16.049V121.653Z" transform="translate(-1689.867 -105.631)"/><path class="f" d="M1748.465,132.184a16.025,16.025,0,1,0-32.05,0h.1v16.04h16.028l0-16.04Z" transform="translate(-1684.364 -100.129)"/><path class="e" d="M1722.026,126.685v-.015h-16.146V142.7h16.146v16.036a16.026,16.026,0,0,0,0-32.051Z" transform="translate(-1689.871 -94.631)"/><g transform="translate(0 32.039)"><path class="f" d="M1711.39,142.695a16.025,16.025,0,0,0,16.03-16.025h-32.051A16.026,16.026,0,0,0,1711.39,142.695Z" transform="translate(-1695.368 -126.67)"/></g><path class="f" d="M1721.911,132.188a16.032,16.032,0,0,1-16.021-16.03v-.014h0V132.2l16.032,0Z" transform="translate(-1689.868 -100.134)"/><path class="c" d="M1722.057,128.1a4.155,4.155,0,1,1-4.156-4.153A4.155,4.155,0,0,1,1722.057,128.1Z" transform="translate(-1685.759 -96.057)"/></g><g transform="translate(192.632 64.211)"><path class="a" d="M1764.081,79.488V63.466a16.027,16.027,0,0,0-.009,32.055h16.052V79.488Z" transform="translate(-1732.03 -63.466)"/><path class="a" d="M1790.634,90.019a16.027,16.027,0,1,0-32.055,0h.1v16.04h16.031V90.019Z" transform="translate(-1726.527 -57.964)"/><path class="a" d="M1764.189,84.52V84.5h-16.142v16.031h16.142V116.57a16.025,16.025,0,1,0,0-32.05Z" transform="translate(-1732.034 -52.466)"/><g transform="translate(0 32.039)"><path class="a" d="M1753.557,100.53A16.025,16.025,0,0,0,1769.583,84.5h-32.051A16.026,16.026,0,0,0,1753.557,100.53Z" transform="translate(-1737.532 -84.505)"/></g><path class="a" d="M1764.074,90.023a16.031,16.031,0,0,1-16.017-16.03V73.98h0l0,16.051,16.032,0Z" transform="translate(-1732.032 -57.969)"/><path class="a" d="M1764.221,85.931a4.155,4.155,0,1,1-4.153-4.153A4.152,4.152,0,0,1,1764.221,85.931Z" transform="translate(-1727.923 -53.892)"/></g><g transform="translate(256.844)"><path class="e" d="M1806.249,37.323V21.3a16.027,16.027,0,0,0-.009,32.055h16.049V37.323Z" transform="translate(-1774.197 -21.301)"/><path class="f" d="M1832.8,47.854a16.026,16.026,0,1,0-32.052,0h.1v16.04h16.028l0-16.04Z" transform="translate(-1768.693 -15.799)"/><path class="e" d="M1806.356,42.355V42.34h-16.145V58.371h16.145V74.405a16.025,16.025,0,1,0,0-32.05Z" transform="translate(-1774.201 -10.301)"/><g transform="translate(0 32.039)"><path class="f" d="M1795.72,58.365a16.025,16.025,0,0,0,16.03-16.025H1779.7A16.026,16.026,0,0,0,1795.72,58.365Z" transform="translate(-1779.698 -42.34)"/></g><path class="f" d="M1806.24,47.858a16.032,16.032,0,0,1-16.021-16.03v-.014h0V47.866l16.032,0Z" transform="translate(-1774.198 -15.804)"/><path class="c" d="M1806.387,43.766a4.155,4.155,0,1,1-4.156-4.153A4.155,4.155,0,0,1,1806.387,43.766Z" transform="translate(-1770.089 -11.727)"/></g></g><g transform="translate(-80.833 -32.029)"><g transform="translate(0 256.843)"><path class="e" d="M1595.158,163.554V147.531a16.027,16.027,0,0,0-.009,32.055H1611.2V163.554Z" transform="translate(-1563.107 -147.531)"/><path class="f" d="M1621.708,174.083a16.026,16.026,0,1,0-32.053,0h.1v16.04h16.031v-16.04Z" transform="translate(-1557.604 -142.029)"/><path class="e" d="M1595.265,168.585v-.015h-16.142V184.6h16.142v16.034a16.026,16.026,0,1,0,0-32.051Z" transform="translate(-1563.11 -136.531)"/><g transform="translate(0 32.039)"><path class="f" d="M1584.632,184.6a16.025,16.025,0,0,0,16.028-16.026h-32.052A16.026,16.026,0,0,0,1584.632,184.6Z" transform="translate(-1568.608 -168.57)"/></g><path class="f" d="M1595.15,174.088a16.031,16.031,0,0,1-16.019-16.028v-.015h0V174.1l16.031,0Z" transform="translate(-1563.108 -142.034)"/><path class="c" d="M1595.3,170a4.155,4.155,0,1,1-4.154-4.151A4.155,4.155,0,0,1,1595.3,170Z" transform="translate(-1558.999 -137.956)"/></g><g transform="translate(64.211 192.633)"><path class="e" d="M1637.323,121.39V105.367a16.027,16.027,0,0,0-.009,32.055h16.051V121.39Z" transform="translate(-1605.271 -105.367)"/><path class="f" d="M1663.873,131.919a16.027,16.027,0,1,0-32.053,0h.1v16.04h16.031v-16.04Z" transform="translate(-1599.769 -99.865)"/><path class="e" d="M1637.43,126.421v-.015h-16.142v16.033h16.142v16.034a16.026,16.026,0,1,0,0-32.051Z" transform="translate(-1605.275 -94.367)"/><g transform="translate(0 32.039)"><path class="f" d="M1626.8,142.432a16.025,16.025,0,0,0,16.026-16.026h-32.052A16.027,16.027,0,0,0,1626.8,142.432Z" transform="translate(-1610.773 -126.406)"/></g><path class="f" d="M1637.316,131.924A16.03,16.03,0,0,1,1621.3,115.9v-.015h0V131.93l16.032,0Z" transform="translate(-1605.273 -99.87)"/><path class="c" d="M1637.462,127.831a4.155,4.155,0,1,1-4.154-4.151A4.155,4.155,0,0,1,1637.462,127.831Z" transform="translate(-1601.163 -95.792)"/></g><g transform="translate(131.422 137.422)"><path class="e" d="M1679.488,79.225V63.2a16.027,16.027,0,0,0-.009,32.055h16.051V79.225Z" transform="translate(-1647.436 -63.202)"/><path class="f" d="M1706.038,89.754a16.026,16.026,0,1,0-32.053,0h.1v16.04h16.031l0-16.04Z" transform="translate(-1641.934 -57.7)"/><path class="e" d="M1679.6,84.256v-.015h-16.142v16.033H1679.6v16.033a16.025,16.025,0,1,0,0-32.05Z" transform="translate(-1647.44 -52.202)"/><g transform="translate(0 32.039)"><path class="f" d="M1668.963,100.268a16.025,16.025,0,0,0,16.026-16.027h-32.052A16.027,16.027,0,0,0,1668.963,100.268Z" transform="translate(-1652.938 -84.241)"/></g><path class="f" d="M1679.48,89.759a16.03,16.03,0,0,1-16.017-16.028v-.015h0V89.765l16.031,0Z" transform="translate(-1647.438 -57.705)"/><path class="c" d="M1679.627,85.666a4.155,4.155,0,1,1-4.155-4.151A4.155,4.155,0,0,1,1679.627,85.666Z" transform="translate(-1643.329 -53.627)"/></g><g transform="translate(192.633 64.211)"><path class="e" d="M1721.652,37.059V21.037a16.027,16.027,0,0,0-.009,32.053h16.051V37.059Z" transform="translate(-1689.601 -21.037)"/><path class="f" d="M1748.2,47.588a16.026,16.026,0,1,0-32.053,0h.1v16.04h16.031V47.588Z" transform="translate(-1684.098 -15.535)"/><path class="e" d="M1721.76,42.09v-.015h-16.142V58.106h16.142V74.142a16.026,16.026,0,1,0,0-32.051Z" transform="translate(-1689.605 -10.037)"/><g transform="translate(0 32.038)"><path class="f" d="M1711.128,58.1a16.025,16.025,0,0,0,16.026-16.026H1695.1A16.027,16.027,0,0,0,1711.128,58.1Z" transform="translate(-1695.103 -42.075)"/></g><path class="f" d="M1721.645,47.593a16.029,16.029,0,0,1-16.017-16.028V31.55h0V47.6l16.031,0Z" transform="translate(-1689.603 -15.54)"/><path class="c" d="M1721.792,43.5a4.155,4.155,0,1,1-4.154-4.151A4.155,4.155,0,0,1,1721.792,43.5Z" transform="translate(-1685.494 -11.463)"/></g><g transform="translate(256.844)"><path class="e" d="M1763.817-5.106V-21.128A16.03,16.03,0,0,0,1747.791-5.1a16.029,16.029,0,0,0,16.017,16.028h16.051V-5.106Z" transform="translate(-1731.766 21.128)"/><path class="f" d="M1790.368,5.423a16.027,16.027,0,1,0-32.053,0h.1V21.465h16.031l0-16.042Z" transform="translate(-1726.263 26.63)"/><path class="e" d="M1763.925-.075V-.089h-16.142V15.942h16.142V31.976a16.026,16.026,0,1,0,0-32.051Z" transform="translate(-1731.77 32.128)"/><g transform="translate(0 32.039)"><path class="f" d="M1753.293,15.936A16.025,16.025,0,0,0,1769.319-.089h-32.051A16.026,16.026,0,0,0,1753.293,15.936Z" transform="translate(-1737.268 0.089)"/></g><path class="f" d="M1763.81,5.428A16.029,16.029,0,0,1,1747.792-10.6v-.015h0V5.436l16.031,0Z" transform="translate(-1731.767 26.625)"/><path class="c" d="M1763.957,1.337a4.155,4.155,0,1,1-4.153-4.153A4.153,4.153,0,0,1,1763.957,1.337Z" transform="translate(-1727.659 30.702)"/></g></g><g transform="translate(-145.448 -96.644)"><g transform="translate(0 256.844)"><path class="e" d="M1552.728,121.125V105.1a16.027,16.027,0,0,0-.009,32.055h16.051V121.125Z" transform="translate(-1520.676 -105.102)"/><path class="f" d="M1579.278,131.654a16.026,16.026,0,1,0-32.053,0h.1V147.7h16.031l0-16.042Z" transform="translate(-1515.174 -99.6)"/><path class="e" d="M1552.835,126.156v-.014h-16.142v16.031h16.142v16.034a16.026,16.026,0,1,0,0-32.051Z" transform="translate(-1520.68 -94.101)"/><g transform="translate(0 32.041)"><path class="f" d="M1542.2,142.167a16.025,16.025,0,0,0,16.026-16.025h-32.052A16.026,16.026,0,0,0,1542.2,142.167Z" transform="translate(-1526.178 -126.142)"/></g><path class="f" d="M1552.72,131.659a16.03,16.03,0,0,1-16.017-16.028v-.015h0v16.051l16.031,0Z" transform="translate(-1520.678 -99.605)"/><path class="c" d="M1552.867,127.568a4.155,4.155,0,1,1-4.153-4.153A4.153,4.153,0,0,1,1552.867,127.568Z" transform="translate(-1516.568 -95.527)"/></g><g transform="translate(64.211 192.635)"><path class="e" d="M1594.893,78.96V62.938a16.027,16.027,0,0,0-.009,32.053h16.051V78.96Z" transform="translate(-1562.841 -62.938)"/><path class="f" d="M1621.443,89.489a16.026,16.026,0,1,0-32.053,0h.1v16.042h16.03V89.489Z" transform="translate(-1557.339 -57.436)"/><path class="e" d="M1595,83.991v-.014h-16.144v16.031H1595v16.034a16.026,16.026,0,1,0,0-32.051Z" transform="translate(-1562.845 -51.938)"/><g transform="translate(0 32.039)"><path class="f" d="M1584.368,100a16.025,16.025,0,0,0,16.027-16.025h-32.052A16.026,16.026,0,0,0,1584.368,100Z" transform="translate(-1568.343 -83.977)"/></g><path class="f" d="M1594.885,89.494a16.031,16.031,0,0,1-16.017-16.028v-.015h0V89.5l16.031,0Z" transform="translate(-1562.843 -57.441)"/><path class="c" d="M1595.032,85.4a4.155,4.155,0,1,1-4.153-4.153A4.153,4.153,0,0,1,1595.032,85.4Z" transform="translate(-1558.734 -53.364)"/></g><g transform="translate(128.422 128.424)"><path class="e" d="M1637.058,36.795V20.773a16.026,16.026,0,0,0-.01,32.053H1653.1V36.795Z" transform="translate(-1605.006 -20.773)"/><path class="f" d="M1663.608,47.324a16.026,16.026,0,1,0-32.053,0h.1V63.366h16.03V47.324Z" transform="translate(-1599.504 -15.271)"/><path class="e" d="M1637.167,41.826v-.015h-16.144V57.844h16.144V73.878a16.026,16.026,0,1,0,0-32.051Z" transform="translate(-1605.01 -9.773)"/><g transform="translate(0 32.038)"><path class="f" d="M1626.533,57.838a16.025,16.025,0,0,0,16.027-16.026h-32.052A16.027,16.027,0,0,0,1626.533,57.838Z" transform="translate(-1610.508 -41.811)"/></g><path class="f" d="M1637.05,47.329A16.031,16.031,0,0,1,1621.033,31.3v-.015h0l0,16.051,16.031,0Z" transform="translate(-1605.008 -15.276)"/><path class="c" d="M1637.2,43.236a4.155,4.155,0,1,1-4.153-4.151A4.154,4.154,0,0,1,1637.2,43.236Z" transform="translate(-1600.899 -11.199)"/></g><g transform="translate(192.633 64.211)"><path class="e" d="M1679.223-5.37V-21.393A16.032,16.032,0,0,0,1663.2-5.367a16.031,16.031,0,0,0,16.017,16.028h16.051V-5.37Z" transform="translate(-1647.171 21.393)"/><path class="f" d="M1705.773,5.159a16.026,16.026,0,1,0-32.053,0h.1V21.2h16.03l0-16.042Z" transform="translate(-1641.669 26.896)"/><path class="e" d="M1679.332-.339V-.354h-16.144V15.679h16.144V31.713a16.026,16.026,0,1,0,0-32.051Z" transform="translate(-1647.175 32.393)"/><g transform="translate(0 32.039)"><path class="f" d="M1668.7,15.673A16.025,16.025,0,0,0,1684.725-.354h-32.052A16.027,16.027,0,0,0,1668.7,15.673Z" transform="translate(-1652.673 0.354)"/></g><path class="f" d="M1679.215,5.164A16.031,16.031,0,0,1,1663.2-10.864v-.015h0l0,16.051,16.031,0Z" transform="translate(-1647.172 26.89)"/><path class="c" d="M1679.362,1.071a4.155,4.155,0,1,1-4.153-4.151A4.154,4.154,0,0,1,1679.362,1.071Z" transform="translate(-1643.063 30.968)"/></g><g transform="translate(256.844)"><path class="e" d="M1721.387-47.535V-63.558a16.032,16.032,0,0,0-16.026,16.026A16.031,16.031,0,0,0,1721.378-31.5h16.052V-47.535Z" transform="translate(-1689.336 63.558)"/><path class="f" d="M1747.938-37.006a16.029,16.029,0,0,0-16.023-16.028,16.03,16.03,0,0,0-16.03,16.028h.105v16.04h16.03v-16.04Z" transform="translate(-1683.833 69.061)"/><path class="e" d="M1721.5-42.5v-.015h-16.144v16.033H1721.5v16.034a16.028,16.028,0,0,0,16.026-16.025A16.027,16.027,0,0,0,1721.5-42.5Z" transform="translate(-1689.34 74.558)"/><g transform="translate(0 32.039)"><path class="f" d="M1710.863-26.493a16.025,16.025,0,0,0,16.026-16.027h-32.051A16.027,16.027,0,0,0,1710.863-26.493Z" transform="translate(-1694.838 42.519)"/></g><path class="f" d="M1721.38-37a16.031,16.031,0,0,1-16.017-16.028v-.015h0v16.051l16.031,0Z" transform="translate(-1689.338 69.055)"/><path class="c" d="M1721.527-41.094a4.154,4.154,0,0,1-4.153,4.156,4.158,4.158,0,0,1-4.157-4.156,4.156,4.156,0,0,1,4.157-4.151A4.149,4.149,0,0,1,1721.527-41.094Z" transform="translate(-1685.229 73.133)"/></g></g></g></g></g></svg>