<svg xmlns="http://www.w3.org/2000/svg" xmlns:xlink="http://www.w3.org/1999/xlink" width="273" height="337.053" viewBox="0 0 273 337.053"><defs><style>.a{fill:none;}.b{fill:#ff821e;}.c,.g{fill:#ff3823;}.c{font-size:44px;font-family:Gilroy-Bold, Gilroy;font-weight:700;}.d{clip-path:url(#a);}.e{fill:#ffd32f;}.f{fill:#32b9fd;}</style><clipPath id="a"><rect class="a" width="273" height="337.053" transform="translate(547 1493.904)"/></clipPath></defs><g transform="translate(-547 -1493.904)"><rect class="b" width="273" height="337.053" transform="translate(547 1493.904)"/><text class="c" transform="translate(684 1600.832)"><tspan x="-79.574" y="0">Indaga.</tspan></text><g class="d"><g transform="translate(536.708 1596.262)"><g transform="translate(0.27 0)"><path class="a" d="M1296.963,79.226a12.105,12.105,0,1,1-12.105-12.107A12.105,12.105,0,0,1,1296.963,79.226Z" transform="translate(-1248.002 -67.119)"/><path class="a" d="M1280.712,79.226a12.106,12.106,0,1,1-12.107-12.107A12.107,12.107,0,0,1,1280.712,79.226Z" transform="translate(-1256.5 -67.119)"/><path class="a" d="M1313.217,79.226a12.107,12.107,0,1,1-12.105-12.107A12.105,12.105,0,0,1,1313.217,79.226Z" transform="translate(-1239.505 -67.119)"/><path class="e" d="M1345.723,79.226a12.107,12.107,0,1,1-12.107-12.107A12.107,12.107,0,0,1,1345.723,79.226Z" transform="translate(-1222.509 -67.119)"/><path class="a" d="M1329.47,79.226a12.107,12.107,0,1,1-12.105-12.107A12.107,12.107,0,0,1,1329.47,79.226Z" transform="translate(-1231.007 -67.119)"/><path class="f" d="M1361.976,79.226a12.107,12.107,0,1,1-12.108-12.107A12.107,12.107,0,0,1,1361.976,79.226Z" transform="translate(-1214.011 -67.119)"/><path class="a" d="M1394.48,79.226a12.106,12.106,0,1,1-12.107-12.107A12.1,12.1,0,0,1,1394.48,79.226Z" transform="translate(-1197.016 -67.119)"/><path class="a" d="M1378.229,79.226a12.107,12.107,0,1,1-12.107-12.107A12.106,12.106,0,0,1,1378.229,79.226Z" transform="translate(-1205.514 -67.119)"/><path class="a" d="M1410.734,79.226a12.107,12.107,0,1,1-12.108-12.107A12.107,12.107,0,0,1,1410.734,79.226Z" transform="translate(-1188.518 -67.119)"/><path class="a" d="M1443.238,79.226a12.106,12.106,0,1,1-12.105-12.107A12.1,12.1,0,0,1,1443.238,79.226Z" transform="translate(-1171.523 -67.119)"/><path class="a" d="M1426.984,79.226a12.105,12.105,0,1,1-12.1-12.107A12.1,12.1,0,0,1,1426.984,79.226Z" transform="translate(-1180.02 -67.119)"/><path class="a" d="M1459.491,79.226a12.106,12.106,0,1,1-12.105-12.107A12.105,12.105,0,0,1,1459.491,79.226Z" transform="translate(-1163.025 -67.119)"/></g><g transform="translate(0 24.58)"><path class="a" d="M1280.535,95.368a12.106,12.106,0,1,1-12.107-12.108A12.108,12.108,0,0,1,1280.535,95.368Z" transform="translate(-1256.323 -83.26)"/><path class="a" d="M1313.039,95.368a12.105,12.105,0,1,1-12.105-12.108A12.107,12.107,0,0,1,1313.039,95.368Z" transform="translate(-1239.327 -83.26)"/><path class="a" d="M1296.788,95.368a12.106,12.106,0,1,1-12.107-12.108A12.108,12.108,0,0,1,1296.788,95.368Z" transform="translate(-1247.825 -83.26)"/><path class="f" d="M1329.293,95.368a12.106,12.106,0,1,1-12.105-12.108A12.106,12.106,0,0,1,1329.293,95.368Z" transform="translate(-1230.83 -83.26)"/><path class="e" d="M1361.8,95.368a12.107,12.107,0,1,1-12.107-12.108A12.109,12.109,0,0,1,1361.8,95.368Z" transform="translate(-1213.834 -83.26)"/><path class="g" d="M1345.546,95.368a12.106,12.106,0,1,1-12.107-12.108A12.109,12.109,0,0,1,1345.546,95.368Z" transform="translate(-1222.332 -83.26)"/><path class="f" d="M1378.052,95.368a12.107,12.107,0,1,1-12.105-12.108A12.107,12.107,0,0,1,1378.052,95.368Z" transform="translate(-1205.337 -83.26)"/><path class="a" d="M1410.557,95.368a12.107,12.107,0,1,1-12.108-12.108A12.105,12.105,0,0,1,1410.557,95.368Z" transform="translate(-1188.341 -83.26)"/><path class="a" d="M1394.3,95.368a12.107,12.107,0,1,1-12.1-12.108A12.107,12.107,0,0,1,1394.3,95.368Z" transform="translate(-1196.839 -83.26)"/><path class="a" d="M1426.81,95.368A12.107,12.107,0,1,1,1414.7,83.26,12.109,12.109,0,0,1,1426.81,95.368Z" transform="translate(-1179.843 -83.26)"/><path class="a" d="M1459.315,95.368a12.107,12.107,0,1,1-12.107-12.108A12.108,12.108,0,0,1,1459.315,95.368Z" transform="translate(-1162.848 -83.26)"/><path class="a" d="M1443.063,95.368a12.107,12.107,0,1,1-12.107-12.108A12.108,12.108,0,0,1,1443.063,95.368Z" transform="translate(-1171.346 -83.26)"/></g><g transform="translate(0.27 49.159)"><path class="a" d="M1280.712,111.507A12.106,12.106,0,1,1,1268.605,99.4,12.106,12.106,0,0,1,1280.712,111.507Z" transform="translate(-1256.5 -99.4)"/><path class="a" d="M1296.969,111.507A12.108,12.108,0,1,1,1284.858,99.4,12.106,12.106,0,0,1,1296.969,111.507Z" transform="translate(-1248.002 -99.4)"/><path class="e" d="M1329.47,111.507A12.107,12.107,0,1,1,1317.365,99.4,12.106,12.106,0,0,1,1329.47,111.507Z" transform="translate(-1231.007 -99.4)"/><path class="g" d="M1313.217,111.507A12.107,12.107,0,1,1,1301.112,99.4,12.1,12.1,0,0,1,1313.217,111.507Z" transform="translate(-1239.505 -99.4)"/><path class="f" d="M1345.723,111.507A12.107,12.107,0,1,1,1333.617,99.4,12.106,12.106,0,0,1,1345.723,111.507Z" transform="translate(-1222.509 -99.4)"/><path class="e" d="M1378.229,111.507A12.107,12.107,0,1,1,1366.122,99.4,12.1,12.1,0,0,1,1378.229,111.507Z" transform="translate(-1205.514 -99.4)"/><path class="g" d="M1361.976,111.507A12.107,12.107,0,1,1,1349.868,99.4,12.106,12.106,0,0,1,1361.976,111.507Z" transform="translate(-1214.011 -99.4)"/><path class="f" d="M1394.48,111.507A12.106,12.106,0,1,1,1382.373,99.4,12.1,12.1,0,0,1,1394.48,111.507Z" transform="translate(-1197.016 -99.4)"/><ellipse class="a" cx="12.105" cy="12.105" rx="12.105" ry="12.105" transform="translate(222.754 0.001)"/><path class="a" d="M1410.734,111.507A12.107,12.107,0,1,1,1398.626,99.4,12.106,12.106,0,0,1,1410.734,111.507Z" transform="translate(-1188.518 -99.4)"/><path class="a" d="M1443.238,111.507A12.106,12.106,0,1,1,1431.133,99.4,12.1,12.1,0,0,1,1443.238,111.507Z" transform="translate(-1171.523 -99.4)"/><path class="a" d="M1459.491,111.507A12.106,12.106,0,1,1,1447.386,99.4,12.1,12.1,0,0,1,1459.491,111.507Z" transform="translate(-1163.025 -99.4)"/></g><g transform="translate(0.27 73.743)"><path class="e" d="M1296.963,127.645a12.105,12.105,0,1,1-12.105-12.1A12.1,12.1,0,0,1,1296.963,127.645Z" transform="translate(-1248.002 -115.543)"/><path class="a" d="M1280.712,127.645a12.106,12.106,0,1,1-12.107-12.1A12.106,12.106,0,0,1,1280.712,127.645Z" transform="translate(-1256.5 -115.543)"/><path class="f" d="M1313.217,127.645a12.107,12.107,0,1,1-12.105-12.1A12.1,12.1,0,0,1,1313.217,127.645Z" transform="translate(-1239.505 -115.543)"/><path class="e" d="M1345.723,127.645a12.107,12.107,0,1,1-12.107-12.1A12.106,12.106,0,0,1,1345.723,127.645Z" transform="translate(-1222.509 -115.543)"/><path class="g" d="M1329.47,127.645a12.107,12.107,0,1,1-12.105-12.1A12.106,12.106,0,0,1,1329.47,127.645Z" transform="translate(-1231.007 -115.543)"/><path class="f" d="M1361.976,127.645a12.107,12.107,0,1,1-12.108-12.1A12.106,12.106,0,0,1,1361.976,127.645Z" transform="translate(-1214.011 -115.543)"/><path class="e" d="M1394.48,127.645a12.106,12.106,0,1,1-12.107-12.1A12.1,12.1,0,0,1,1394.48,127.645Z" transform="translate(-1197.016 -115.543)"/><path class="g" d="M1378.229,127.645a12.107,12.107,0,1,1-12.107-12.1A12.105,12.105,0,0,1,1378.229,127.645Z" transform="translate(-1205.514 -115.543)"/><path class="f" d="M1410.734,127.645a12.107,12.107,0,1,1-12.108-12.1A12.106,12.106,0,0,1,1410.734,127.645Z" transform="translate(-1188.518 -115.543)"/><path class="a" d="M1443.238,127.645a12.106,12.106,0,1,1-12.105-12.1A12.1,12.1,0,0,1,1443.238,127.645Z" transform="translate(-1171.523 -115.543)"/><path class="a" d="M1426.984,127.645a12.105,12.105,0,1,1-12.1-12.1A12.1,12.1,0,0,1,1426.984,127.645Z" transform="translate(-1180.02 -115.543)"/><path class="a" d="M1459.491,127.645a12.106,12.106,0,1,1-12.105-12.1A12.1,12.1,0,0,1,1459.491,127.645Z" transform="translate(-1163.025 -115.543)"/></g><g transform="translate(0 96.538)"><path class="f" d="M1280.535,143.788a12.106,12.106,0,1,1-12.107-12.105A12.1,12.1,0,0,1,1280.535,143.788Z" transform="translate(-1256.323 -129.9)"/><ellipse class="e" cx="12.106" cy="12.106" rx="12.106" ry="12.106" transform="translate(47.719 23.899) rotate(-80.783)"/><path class="g" d="M1296.788,143.788a12.106,12.106,0,1,1-12.107-12.105A12.1,12.1,0,0,1,1296.788,143.788Z" transform="translate(-1247.825 -129.9)"/><path class="f" d="M1329.293,143.788a12.106,12.106,0,1,1-12.105-12.105A12.1,12.1,0,0,1,1329.293,143.788Z" transform="translate(-1230.83 -129.9)"/><path class="e" d="M1361.8,143.788a12.107,12.107,0,1,1-12.107-12.105A12.106,12.106,0,0,1,1361.8,143.788Z" transform="translate(-1213.834 -129.9)"/><path class="g" d="M1345.546,143.788a12.106,12.106,0,1,1-12.107-12.105A12.106,12.106,0,0,1,1345.546,143.788Z" transform="translate(-1222.332 -129.9)"/><path class="f" d="M1378.052,143.788a12.107,12.107,0,1,1-12.105-12.105A12.1,12.1,0,0,1,1378.052,143.788Z" transform="translate(-1205.337 -129.9)"/><path class="e" d="M1410.557,143.788a12.107,12.107,0,1,1-12.108-12.105A12.1,12.1,0,0,1,1410.557,143.788Z" transform="translate(-1188.341 -129.9)"/><path class="g" d="M1394.3,143.788a12.107,12.107,0,1,1-12.1-12.105A12.1,12.1,0,0,1,1394.3,143.788Z" transform="translate(-1196.839 -129.9)"/><path class="f" d="M1426.81,143.788a12.107,12.107,0,1,1-12.108-12.105A12.106,12.106,0,0,1,1426.81,143.788Z" transform="translate(-1179.843 -129.9)"/><path class="a" d="M1459.315,143.788a12.107,12.107,0,1,1-12.107-12.105A12.1,12.1,0,0,1,1459.315,143.788Z" transform="translate(-1162.848 -129.9)"/><path class="a" d="M1443.063,143.788a12.107,12.107,0,1,1-12.107-12.105A12.1,12.1,0,0,1,1443.063,143.788Z" transform="translate(-1171.346 -129.9)"/></g><g transform="translate(0.27 122.9)"><path class="e" d="M1280.712,159.931a12.106,12.106,0,1,1-12.107-12.108A12.108,12.108,0,0,1,1280.712,159.931Z" transform="translate(-1256.5 -147.823)"/><path class="f" d="M1296.969,159.931a12.108,12.108,0,1,1-12.111-12.108A12.108,12.108,0,0,1,1296.969,159.931Z" transform="translate(-1248.002 -147.823)"/><path class="e" d="M1329.47,159.931a12.107,12.107,0,1,1-12.105-12.108A12.108,12.108,0,0,1,1329.47,159.931Z" transform="translate(-1231.007 -147.823)"/><path class="g" d="M1313.217,159.931a12.107,12.107,0,1,1-12.105-12.108A12.107,12.107,0,0,1,1313.217,159.931Z" transform="translate(-1239.505 -147.823)"/><path class="f" d="M1345.723,159.931a12.107,12.107,0,1,1-12.107-12.108A12.108,12.108,0,0,1,1345.723,159.931Z" transform="translate(-1222.509 -147.823)"/><path class="e" d="M1378.229,159.931a12.107,12.107,0,1,1-12.107-12.108A12.107,12.107,0,0,1,1378.229,159.931Z" transform="translate(-1205.514 -147.823)"/><path class="g" d="M1361.976,159.931a12.107,12.107,0,1,1-12.108-12.108A12.108,12.108,0,0,1,1361.976,159.931Z" transform="translate(-1214.011 -147.823)"/><path class="f" d="M1394.48,159.931a12.106,12.106,0,1,1-12.107-12.108A12.106,12.106,0,0,1,1394.48,159.931Z" transform="translate(-1197.016 -147.823)"/><path class="e" d="M1426.984,159.931a12.105,12.105,0,1,1-12.1-12.108A12.106,12.106,0,0,1,1426.984,159.931Z" transform="translate(-1180.02 -147.823)"/><path class="g" d="M1410.734,159.931a12.107,12.107,0,1,1-12.108-12.108A12.108,12.108,0,0,1,1410.734,159.931Z" transform="translate(-1188.518 -147.823)"/><path class="f" d="M1443.238,159.931a12.106,12.106,0,1,1-12.105-12.108A12.106,12.106,0,0,1,1443.238,159.931Z" transform="translate(-1171.523 -147.823)"/><path class="a" d="M1459.491,159.931a12.106,12.106,0,1,1-12.105-12.108A12.107,12.107,0,0,1,1459.491,159.931Z" transform="translate(-1163.025 -147.823)"/></g><g transform="translate(0.27 145.701)"><ellipse class="e" cx="12.106" cy="12.106" rx="12.106" ry="12.106" transform="translate(22.967 23.899) rotate(-80.783)"/><path class="g" d="M1280.712,176.071a12.106,12.106,0,1,1-12.107-12.105A12.109,12.109,0,0,1,1280.712,176.071Z" transform="translate(-1256.5 -162.183)"/><path class="f" d="M1313.217,176.071a12.107,12.107,0,1,1-12.105-12.105A12.107,12.107,0,0,1,1313.217,176.071Z" transform="translate(-1239.505 -162.183)"/><path class="e" d="M1345.723,176.071a12.107,12.107,0,1,1-12.107-12.105A12.109,12.109,0,0,1,1345.723,176.071Z" transform="translate(-1222.509 -162.183)"/><path class="g" d="M1329.47,176.071a12.107,12.107,0,1,1-12.105-12.105A12.108,12.108,0,0,1,1329.47,176.071Z" transform="translate(-1231.007 -162.183)"/><path class="f" d="M1361.976,176.071a12.107,12.107,0,1,1-12.108-12.105A12.109,12.109,0,0,1,1361.976,176.071Z" transform="translate(-1214.011 -162.183)"/><path class="e" d="M1394.48,176.071a12.106,12.106,0,1,1-12.107-12.105A12.107,12.107,0,0,1,1394.48,176.071Z" transform="translate(-1197.016 -162.183)"/><path class="g" d="M1378.229,176.071a12.107,12.107,0,1,1-12.107-12.105A12.108,12.108,0,0,1,1378.229,176.071Z" transform="translate(-1205.514 -162.183)"/><path class="f" d="M1410.734,176.071a12.107,12.107,0,1,1-12.108-12.105A12.109,12.109,0,0,1,1410.734,176.071Z" transform="translate(-1188.518 -162.183)"/><path class="e" d="M1443.238,176.071a12.106,12.106,0,1,1-12.105-12.105A12.107,12.107,0,0,1,1443.238,176.071Z" transform="translate(-1171.523 -162.183)"/><ellipse class="g" cx="12.106" cy="12.106" rx="12.106" ry="12.106" transform="translate(220.971 23.899) rotate(-80.783)"/><path class="f" d="M1459.491,176.071a12.106,12.106,0,1,1-12.105-12.105A12.107,12.107,0,0,1,1459.491,176.071Z" transform="translate(-1163.025 -162.183)"/></g><g transform="translate(0 172.063)"><path class="f" d="M1280.535,192.213a12.106,12.106,0,1,1-12.107-12.107A12.109,12.109,0,0,1,1280.535,192.213Z" transform="translate(-1256.323 -180.106)"/><path class="e" d="M1313.039,192.213a12.105,12.105,0,1,1-12.105-12.107A12.109,12.109,0,0,1,1313.039,192.213Z" transform="translate(-1239.327 -180.106)"/><path class="g" d="M1296.788,192.213a12.106,12.106,0,1,1-12.107-12.107A12.109,12.109,0,0,1,1296.788,192.213Z" transform="translate(-1247.825 -180.106)"/><path class="f" d="M1329.293,192.213a12.106,12.106,0,1,1-12.105-12.107A12.108,12.108,0,0,1,1329.293,192.213Z" transform="translate(-1230.83 -180.106)"/><path class="e" d="M1361.8,192.213a12.107,12.107,0,1,1-12.107-12.107A12.11,12.11,0,0,1,1361.8,192.213Z" transform="translate(-1213.834 -180.106)"/><path class="g" d="M1345.546,192.213a12.106,12.106,0,1,1-12.107-12.107A12.11,12.11,0,0,1,1345.546,192.213Z" transform="translate(-1222.332 -180.106)"/><path class="f" d="M1378.052,192.213a12.107,12.107,0,1,1-12.105-12.107A12.109,12.109,0,0,1,1378.052,192.213Z" transform="translate(-1205.337 -180.106)"/><path class="e" d="M1410.557,192.213a12.107,12.107,0,1,1-12.108-12.107A12.107,12.107,0,0,1,1410.557,192.213Z" transform="translate(-1188.341 -180.106)"/><path class="g" d="M1394.3,192.213a12.107,12.107,0,1,1-12.1-12.107A12.109,12.109,0,0,1,1394.3,192.213Z" transform="translate(-1196.839 -180.106)"/><path class="f" d="M1426.81,192.213a12.107,12.107,0,1,1-12.108-12.107A12.111,12.111,0,0,1,1426.81,192.213Z" transform="translate(-1179.843 -180.106)"/><path class="e" d="M1459.315,192.213a12.107,12.107,0,1,1-12.107-12.107A12.109,12.109,0,0,1,1459.315,192.213Z" transform="translate(-1162.848 -180.106)"/><path class="g" d="M1443.063,192.213a12.107,12.107,0,1,1-12.107-12.107A12.11,12.11,0,0,1,1443.063,192.213Z" transform="translate(-1171.346 -180.106)"/></g><g transform="translate(0.27 196.64)"><path class="e" d="M1280.712,208.356a12.106,12.106,0,1,1-12.107-12.111A12.106,12.106,0,0,1,1280.712,208.356Z" transform="translate(-1256.5 -196.245)"/><path class="f" d="M1296.969,208.356a12.108,12.108,0,1,1-12.111-12.111A12.106,12.106,0,0,1,1296.969,208.356Z" transform="translate(-1248.002 -196.245)"/><path class="e" d="M1329.47,208.356a12.107,12.107,0,1,1-12.105-12.111A12.106,12.106,0,0,1,1329.47,208.356Z" transform="translate(-1231.007 -196.245)"/><path class="g" d="M1313.217,208.356a12.107,12.107,0,1,1-12.105-12.111A12.1,12.1,0,0,1,1313.217,208.356Z" transform="translate(-1239.505 -196.245)"/><path class="f" d="M1345.723,208.356a12.107,12.107,0,1,1-12.107-12.111A12.106,12.106,0,0,1,1345.723,208.356Z" transform="translate(-1222.509 -196.245)"/><path class="e" d="M1378.229,208.356a12.107,12.107,0,1,1-12.107-12.111A12.105,12.105,0,0,1,1378.229,208.356Z" transform="translate(-1205.514 -196.245)"/><path class="g" d="M1361.976,208.356a12.107,12.107,0,1,1-12.108-12.111A12.106,12.106,0,0,1,1361.976,208.356Z" transform="translate(-1214.011 -196.245)"/><path class="f" d="M1394.48,208.356a12.106,12.106,0,1,1-12.107-12.111A12.1,12.1,0,0,1,1394.48,208.356Z" transform="translate(-1197.016 -196.245)"/><path class="e" d="M1426.984,208.356a12.105,12.105,0,1,1-12.1-12.111A12.1,12.1,0,0,1,1426.984,208.356Z" transform="translate(-1180.02 -196.245)"/><path class="g" d="M1410.734,208.356a12.107,12.107,0,1,1-12.108-12.111A12.106,12.106,0,0,1,1410.734,208.356Z" transform="translate(-1188.518 -196.245)"/><path class="f" d="M1443.238,208.356a12.106,12.106,0,1,1-12.105-12.111A12.1,12.1,0,0,1,1443.238,208.356Z" transform="translate(-1171.523 -196.245)"/><path class="g" d="M1459.491,208.356a12.106,12.106,0,1,1-12.105-12.111A12.1,12.1,0,0,1,1459.491,208.356Z" transform="translate(-1163.025 -196.245)"/></g><g transform="translate(0.27 221.223)"><ellipse class="e" cx="12.105" cy="12.105" rx="12.105" ry="12.105" transform="translate(24.75)"/><path class="g" d="M1280.712,224.493a12.106,12.106,0,1,1-12.107-12.105A12.109,12.109,0,0,1,1280.712,224.493Z" transform="translate(-1256.5 -212.388)"/><path class="f" d="M1313.217,224.493a12.107,12.107,0,1,1-12.105-12.105A12.107,12.107,0,0,1,1313.217,224.493Z" transform="translate(-1239.505 -212.388)"/><path class="e" d="M1345.723,224.493a12.107,12.107,0,1,1-12.107-12.105A12.109,12.109,0,0,1,1345.723,224.493Z" transform="translate(-1222.509 -212.388)"/><path class="g" d="M1329.47,224.493a12.107,12.107,0,1,1-12.105-12.105A12.108,12.108,0,0,1,1329.47,224.493Z" transform="translate(-1231.007 -212.388)"/><path class="f" d="M1361.976,224.493a12.107,12.107,0,1,1-12.108-12.105A12.109,12.109,0,0,1,1361.976,224.493Z" transform="translate(-1214.011 -212.388)"/><path class="e" d="M1394.48,224.493a12.106,12.106,0,1,1-12.107-12.105A12.107,12.107,0,0,1,1394.48,224.493Z" transform="translate(-1197.016 -212.388)"/><path class="g" d="M1378.229,224.493a12.107,12.107,0,1,1-12.107-12.105A12.108,12.108,0,0,1,1378.229,224.493Z" transform="translate(-1205.514 -212.388)"/><path class="f" d="M1410.734,224.493a12.107,12.107,0,1,1-12.108-12.105A12.109,12.109,0,0,1,1410.734,224.493Z" transform="translate(-1188.518 -212.388)"/><path class="e" d="M1443.238,224.493a12.106,12.106,0,1,1-12.105-12.105A12.107,12.107,0,0,1,1443.238,224.493Z" transform="translate(-1171.523 -212.388)"/><ellipse class="g" cx="12.105" cy="12.105" rx="12.105" ry="12.105" transform="translate(222.754)"/><path class="f" d="M1459.491,224.493a12.106,12.106,0,1,1-12.105-12.105A12.107,12.107,0,0,1,1459.491,224.493Z" transform="translate(-1163.025 -212.388)"/></g></g></g></g></svg>