<svg xmlns="http://www.w3.org/2000/svg" width="356.489" height="366.625" viewBox="0 0 356.489 366.625"><g transform="translate(-471.555 -173.304)"><path d="M800.75,356.614a110.575,110.575,0,0,1-83.305,183.315H556.167a84.61,84.61,0,0,1-84.612-84.607V257.906a84.615,84.615,0,0,1,84.612-84.6H717.445a110.571,110.571,0,0,1,83.305,183.31Z" transform="translate(0 0)" fill="#ff3823"/><g transform="translate(512.274 213.822)"><path d="M523.438,181.335a43.8,43.8,0,1,0,43.787,43.8A43.8,43.8,0,0,0,523.438,181.335Z" transform="translate(-479.626 -181.335)" fill="#dfddcd"/><path d="M483.318,210.2a25.17,25.17,0,0,0,50.34,0h-25.17v-25.17A25.169,25.169,0,0,0,483.318,210.2Z" transform="translate(-464.692 -166.396)" fill="#5b3f34"/></g></g></svg>