<svg xmlns="http://www.w3.org/2000/svg" width="122.081" height="110.044" viewBox="0 0 122.081 110.044"><g transform="translate(-954.457 -873.749)"><path d="M959.019,879.993l-3.667,1.277v-4.438l8.243-2.876v13.29h3.459v4.339H955.485v-4.339h3.534Z" fill="#dfddcd"/><path d="M968.974,902.184a4,4,0,0,0,.347,7.39c0,3.073-2.033,4.982-6.631,4.982h-8.233V897.2h7.785C966.9,897.2,968.974,899.11,968.974,902.184Zm-9.8,1.748h2.964c1.3,0,1.958-.484,1.958-1.45s-.645-1.438-1.947-1.438h-2.975Zm0,6.793,3.259.014c1.365,0,2.047-.5,2.047-1.5s-.682-1.487-2.047-1.487h-3.259Z" fill="#dfddcd"/><path d="M972.4,914.556V897.2h4.712v17.355Z" fill="#dfddcd"/><path d="M980.826,914.556V897.2h13.563v4.19h-8.852v2.293h8.232v4.19h-8.232v2.492h8.852v4.19Z" fill="#dfddcd"/><path d="M1009.707,914.556l-7.154-9.756v9.756h-4.71V897.2h4.587l7.152,9.756V897.2h4.712v17.355Z" fill="#dfddcd"/><path d="M1030.515,914.556l-1.152-3.308h-6.484l-1.141,3.308h-4.923l6.572-17.355h5.553l6.573,17.355Zm-2.616-7.513-1.772-5.132-1.785,5.132Z" fill="#dfddcd"/><path d="M1038.033,914.556V897.2h4.711v13.016h8.357v4.339Z" fill="#dfddcd"/><path d="M966.342,931.307c0,3.814-2.584,6.222-6.726,6.222h-4.541V925.086h4.541C963.758,925.086,966.342,927.495,966.342,931.307ZM956.16,936.5h3.456c3.616,0,5.588-2.034,5.588-5.19s-1.972-5.189-5.588-5.189H956.16Z" fill="#dfddcd"/><path d="M969.328,937.529V925.086h8.505v1.023h-7.42v4.647h7.206v1.015h-7.206v4.735H977.9v1.023Z" fill="#dfddcd"/><path d="M997.879,937.529l-1.151-3.311h-6.485l-1.139,3.311h-4.923l6.569-17.357h5.556l6.571,17.357Zm-2.615-7.514-1.774-5.132-1.785,5.132Z" fill="#dfddcd"/><path d="M1019.864,925.949c0,2.678-1.55,4.613-4.485,5.207l4.722,6.373h-5.554l-4.178-6.162h-.261v6.162h-4.71V920.172h7.735C1017.547,920.172,1019.864,922.44,1019.864,925.949Zm-9.756,1.537h2.975c1.153,0,2.021-.484,2.021-1.537s-.868-1.548-2.021-1.548h-2.975Z" fill="#dfddcd"/><path d="M1031.712,924.511v13.018H1027V924.511h-4.936v-4.339h14.581v4.339Z" fill="#dfddcd"/><path d="M1039.358,937.529V920.172h13.564v4.19h-8.852v2.294h8.233v4.19h-8.233v2.492h8.852v4.191Z" fill="#dfddcd"/><path d="M954.457,960.5V943.145h4.712V960.5Z" fill="#dfddcd"/><path d="M974.744,960.5l-7.153-9.757V960.5h-4.712V943.145h4.587l7.153,9.757v-9.757h4.711V960.5Z" fill="#dfddcd"/><path d="M987.74,954.19V960.5h-4.711V943.145h13.439v4.189H987.74V950h8.109v4.191Z" fill="#dfddcd"/><path d="M1011.081,960.5l-1.151-3.309h-6.485L1002.3,960.5h-4.922l6.571-17.356h5.554l6.571,17.356Zm-2.615-7.513-1.774-5.132-1.784,5.132Z" fill="#dfddcd"/><path d="M1030.463,960.5l-7.151-9.757V960.5H1018.6V943.145h4.587l7.154,9.757v-9.757h4.71V960.5Z" fill="#dfddcd"/><path d="M1047.4,947.485V960.5h-4.711V947.485h-4.934v-4.34h14.581v4.34Z" fill="#dfddcd"/><path d="M1055.05,960.5V943.145h4.711V960.5Z" fill="#dfddcd"/><path d="M1063.472,960.5V943.145h4.711v13.016h8.355v4.34Z" fill="#dfddcd"/><path d="M959.169,977.16v6.312h-4.712V966.116H967.9v4.19h-8.727v2.666h8.107v4.188Z" fill="#dfddcd"/><path d="M978.665,983.793c-4.983,0-7.685-2.677-7.685-7.4V966.116H975.7v10.14a2.964,2.964,0,1,0,5.927,0v-10.14h4.724v10.276C986.352,981.116,983.65,983.793,978.665,983.793Z" fill="#dfddcd"/><path d="M1006.393,970.2l-4.177,2.3a4.369,4.369,0,1,0-3.807,6.781,4.463,4.463,0,0,0,3.918-2.182l3.867,2.7a8.974,8.974,0,0,1-7.723,3.991c-5.367,0-9.16-3.705-9.16-9s3.793-9,9.16-9A8.81,8.81,0,0,1,1006.393,970.2Z" fill="#dfddcd"/><path d="M1021.387,983.472l-1.152-3.309h-6.483l-1.142,3.309h-4.922l6.571-17.356h5.553l6.573,17.356Zm-2.616-7.512L1017,970.828l-1.785,5.132Z" fill="#dfddcd"/><path d="M968.215,877.786a4.035,4.035,0,0,0,8.07,0h-4.037v-4.037A4.034,4.034,0,0,0,968.215,877.786Z" fill="#dfddcd"/></g></svg>