<svg xmlns="http://www.w3.org/2000/svg" width="95.507" height="39.888" viewBox="0 0 95.507 39.888"><defs><style>.a{fill:#22c253;}</style></defs><path class="a" d="M62.9,49.869h6.619V33.736h7.6V27.553h-7.6V19.692h9.146v-6.22H62.9Z" transform="translate(-62.899 -11.197)"/><path class="a" d="M90.511,49.869a5.023,5.023,0,0,0,3.569-1.162,4.593,4.593,0,0,0,1.241-3.493V13.472H88.7v29.68H83.378V13.472H76.766V45.215A4.589,4.589,0,0,0,78,48.707a5.019,5.019,0,0,0,3.572,1.162Z" transform="translate(-55.625 -11.197)"/><path class="a" d="M109.615,43.565h-9.57V19.685l9.57.008v-6.22H98.235A5.039,5.039,0,0,0,94.66,14.64a4.561,4.561,0,0,0-1.23,3.485v27.09a4.577,4.577,0,0,0,1.23,3.493,5.044,5.044,0,0,0,3.575,1.162h11.379Z" transform="translate(-46.884 -11.197)"/><g transform="translate(85.992 1.043)"><path class="a" d="M124.064,22.18a4.758,4.758,0,1,1,4.755-4.757A4.764,4.764,0,0,1,124.064,22.18Zm0-7.644a2.886,2.886,0,1,0,2.886,2.888A2.89,2.89,0,0,0,124.064,14.536Z" transform="translate(-119.304 -12.664)"/></g><path class="a" d="M129.358,46.83a.934.934,0,0,0-1.279-.337,11.906,11.906,0,0,1-9.32,1.14V46.193a12.5,12.5,0,0,0,9.286-1.369.936.936,0,1,0-.942-1.618,10.733,10.733,0,0,1-8.344,1.049V42.806a11.415,11.415,0,0,0,8.4-1.276.935.935,0,0,0-.941-1.616,9.7,9.7,0,0,1-7.458.962V39.422a10.47,10.47,0,0,0,7.594-1.191.936.936,0,0,0-.941-1.618,8.715,8.715,0,0,1-6.653.884V36.041a9.613,9.613,0,0,0,6.86-1.114.936.936,0,0,0-.941-1.619,7.829,7.829,0,0,1-5.92.814V32.661a8.837,8.837,0,0,0,6.2-1.047A.936.936,0,0,0,124.013,30a7.044,7.044,0,0,1-5.254.753V29.267a7.525,7.525,0,0,0,5.086-.93.935.935,0,1,0-.942-1.616,5.717,5.717,0,0,1-4.144.637v-1.5a6.156,6.156,0,0,0,4.159-.806.935.935,0,0,0-.939-1.618,4.613,4.613,0,0,1-3.22.535v-1.52a4.82,4.82,0,0,0,3.272-.691.936.936,0,0,0-.941-1.618,3.539,3.539,0,0,1-2.331.434v-1.2a4.541,4.541,0,0,0,2.61-1.055.935.935,0,1,0-1.209-1.427,2.674,2.674,0,0,1-1.4.6v-.816a3.307,3.307,0,0,0,1.986-1.634.936.936,0,1,0-1.656-.872,1.5,1.5,0,0,1-.331.406v-1.66a.935.935,0,1,0-1.871,0v1.659a1.446,1.446,0,0,1-.331-.4.936.936,0,0,0-1.656.872,3.307,3.307,0,0,0,1.986,1.634v.816a2.7,2.7,0,0,1-1.4-.6.935.935,0,0,0-1.207,1.429,4.566,4.566,0,0,0,2.61,1.053v1.2a3.526,3.526,0,0,1-2.33-.431.936.936,0,0,0-.944,1.616,5.42,5.42,0,0,0,2.729.739c.18,0,.363-.03.544-.049v1.52a4.613,4.613,0,0,1-3.22-.535.936.936,0,1,0-.941,1.618,6.5,6.5,0,0,0,3.264.884,6.567,6.567,0,0,0,.9-.078v1.5a5.706,5.706,0,0,1-4.144-.636.935.935,0,0,0-.941,1.616,7.521,7.521,0,0,0,5.084.93v1.482A7.042,7.042,0,0,1,111.636,30a.936.936,0,0,0-.941,1.618,8.833,8.833,0,0,0,6.194,1.047v1.461a7.841,7.841,0,0,1-5.92-.813.936.936,0,1,0-.941,1.618,9.613,9.613,0,0,0,6.86,1.114V37.5a8.71,8.71,0,0,1-6.652-.884.936.936,0,1,0-.941,1.618,10.466,10.466,0,0,0,7.592,1.191v1.453a9.676,9.676,0,0,1-7.457-.96.935.935,0,0,0-.942,1.616,11.415,11.415,0,0,0,8.4,1.276v1.448a10.734,10.734,0,0,1-8.342-1.049.936.936,0,0,0-.942,1.618,12.5,12.5,0,0,0,9.285,1.369v1.442a11.91,11.91,0,0,1-9.32-1.142.936.936,0,0,0-.941,1.618,13.674,13.674,0,0,0,10.26,1.47v1.352a.935.935,0,1,0,1.871,0V49.58a13.674,13.674,0,0,0,10.26-1.47A.937.937,0,0,0,129.358,46.83Z" transform="translate(-40.204 -11.98)"/></svg>