<svg xmlns="http://www.w3.org/2000/svg" width="164.838" height="270.217" viewBox="0 0 164.838 270.217"><g transform="translate(-140 -437.179)"><g transform="translate(140 558.811)"><g transform="translate(0 0.277)"><path d="M57.393,372.907l-4.953,1.724v-5.993l11.129-3.883V382.7H68.24v5.859H52.621V382.7h4.772Z" transform="translate(-51.233 -364.755)" fill="#fff"/><path d="M71.249,392.07a5.453,5.453,0,0,1-3.113,4.94,5.481,5.481,0,0,1,3.583,5.039c0,4.151-2.744,6.728-8.954,6.728H51.648V385.342H62.16C68.455,385.342,71.249,387.92,71.249,392.07ZM58.01,394.431h4c1.756,0,2.645-.652,2.645-1.959,0-1.288-.871-1.941-2.628-1.941H58.01Zm0,9.172,4.4.018c1.842,0,2.764-.671,2.764-2.026q0-2.01-2.764-2.009h-4.4Z" transform="translate(-51.648 -353.956)" fill="#fff"/><path d="M67.543,408.776V385.342H73.9v23.434Z" transform="translate(-43.31 -353.956)" fill="#fff"/><path d="M75,408.776V385.342H93.316V391H81.362v3.1H92.476v5.658H81.362v3.365H93.316v5.658Z" transform="translate(-39.398 -353.956)" fill="#fff"/><path d="M106.093,408.776,96.433,395.6v13.172h-6.36V385.342h6.193l9.658,13.172V385.342h6.362v23.434Z" transform="translate(-31.492 -353.956)" fill="#fff"/><path d="M125.373,408.776l-1.555-4.469h-8.756l-1.54,4.469h-6.647l8.873-23.434h7.5l8.873,23.434Zm-3.531-10.143-2.394-6.931-2.41,6.931Z" transform="translate(-22.678 -353.956)" fill="#fff"/><path d="M125.667,408.776V385.342h6.362v17.575h11.282v5.859Z" transform="translate(-12.821 -353.956)" fill="#fff"/><path d="M67.409,418.437c0,5.148-3.49,8.4-9.082,8.4H52.2v-16.8h6.132C63.919,410.04,67.409,413.29,67.409,418.437ZM53.66,425.444h4.667c4.883,0,7.547-2.744,7.547-7.007s-2.663-7.007-7.547-7.007H53.66Z" transform="translate(-51.361 -341.001)" fill="#fff"/><path d="M64.819,426.838v-16.8H76.3v1.378H66.284v6.275h9.73v1.369h-9.73v6.4h10.1v1.38Z" transform="translate(-44.739 -341.001)" fill="#fff"/><path d="M96.469,429.121l-1.554-4.468H86.16l-1.541,4.468H77.973l8.871-23.435h7.5l8.873,23.435Zm-3.531-10.144-2.4-6.929-2.409,6.929Z" transform="translate(-37.839 -343.285)" fill="#fff"/><path d="M116.3,413.487c0,3.616-2.093,6.228-6.057,7.031l6.374,8.6h-7.5l-5.641-8.32h-.352v8.32h-6.36V405.686h10.445C113.167,405.686,116.3,408.75,116.3,413.487Zm-13.174,2.076h4.017c1.558,0,2.729-.654,2.729-2.076s-1.171-2.092-2.729-2.092h-4.017Z" transform="translate(-27.982 -343.285)" fill="#fff"/><path d="M124.55,411.546v17.575h-6.362V411.546h-6.662v-5.86h19.687v5.86Z" transform="translate(-20.239 -343.285)" fill="#fff"/><path d="M126.841,429.121V405.686h18.314v5.659H133.2v3.1h11.116V420.1H133.2v3.363h11.953v5.658Z" transform="translate(-12.205 -343.285)" fill="#fff"/><path d="M51.648,449.465V426.033H58.01v23.432Z" transform="translate(-51.648 -332.611)" fill="#fff"/><path d="M75.127,449.465l-9.658-13.172v13.172H59.107V426.033H65.3l9.658,13.172V426.033H81.32v23.432Z" transform="translate(-47.735 -332.611)" fill="#fff"/><path d="M83.315,440.946v8.519H76.953V426.033H95.1v5.656H83.315v3.6H94.263v5.658Z" transform="translate(-38.374 -332.611)" fill="#fff"/><path d="M108.161,449.465,106.607,445H97.852l-1.541,4.465H89.665l8.871-23.432h7.5l8.874,23.432Zm-3.531-10.143-2.394-6.928-2.41,6.928Z" transform="translate(-31.706 -332.611)" fill="#fff"/><path d="M124.476,449.465l-9.658-13.172v13.172h-6.362V426.033h6.194l9.658,13.172V426.033h6.36v23.432Z" transform="translate(-21.849 -332.611)" fill="#fff"/><path d="M138.449,431.892v17.574h-6.362V431.892h-6.662v-5.859h19.687v5.859Z" transform="translate(-12.948 -332.611)" fill="#fff"/><path d="M140.738,449.465V426.033H147.1v23.432Z" transform="translate(-4.916 -332.611)" fill="#fff"/><path d="M148.2,449.465V426.033h6.362v17.575h11.282v5.857Z" transform="translate(-1.003 -332.611)" fill="#fff"/><path d="M58.01,461.29v8.522H51.648V446.377H69.793v5.658H58.01v3.6H68.958v5.655Z" transform="translate(-51.648 -321.94)" fill="#fff"/><path d="M76.658,470.247c-6.729,0-10.376-3.615-10.376-9.993V446.377h6.376v13.692c0,2.7,1.523,4.084,4,4.084s4-1.389,4-4.084V446.377h6.379v13.876C87.037,466.632,83.389,470.247,76.658,470.247Z" transform="translate(-43.972 -321.94)" fill="#fff"/><path d="M105.581,452.035l-5.641,3.112a5.611,5.611,0,0,0-5.155-2.962c-3.264,0-5.658,2.5-5.658,6.06,0,4,2.778,6.059,5.674,6.059a6.023,6.023,0,0,0,5.289-2.944l5.222,3.647A12.116,12.116,0,0,1,94.885,470.4c-7.248,0-12.369-5-12.369-12.152s5.121-12.154,12.369-12.154A11.893,11.893,0,0,1,105.581,452.035Z" transform="translate(-35.456 -322.09)" fill="#fff"/><path d="M117.289,469.812l-1.555-4.47h-8.755l-1.54,4.47H98.792l8.873-23.435h7.5l8.874,23.435Zm-3.532-10.143-2.392-6.931-2.412,6.931Z" transform="translate(-26.918 -321.94)" fill="#fff"/></g><g transform="translate(18.575)"><path d="M63.832,370.02a5.449,5.449,0,0,0,10.9,0H69.278v-5.447A5.448,5.448,0,0,0,63.832,370.02Z" transform="translate(-63.832 -364.573)" fill="#fff"/></g></g><g transform="translate(140 399.121)"><g transform="translate(0 38.058)"><path d="M113.7,249.49a30,30,0,0,1-22.6,49.74H47.339a22.959,22.959,0,0,1-22.961-22.957V222.705A22.961,22.961,0,0,1,47.339,199.75H91.1a30,30,0,0,1,22.6,49.74Z" transform="translate(-24.378 -199.75)" fill="#ffd32f"/><g transform="translate(11.05 10.993)"><path d="M45.881,209.315A11.886,11.886,0,1,0,57.763,221.2,11.886,11.886,0,0,0,45.881,209.315Z" transform="translate(-33.992 -209.315)" fill="#dfddcd"/></g><path d="M38.391,220.541a6.829,6.829,0,1,0,13.657,0H45.219v-6.828A6.828,6.828,0,0,0,38.391,220.541Z" transform="translate(-22.286 -197.665)" fill="#5b3f34"/></g></g></g></svg>