<svg xmlns="http://www.w3.org/2000/svg" width="673.001" height="594.987" viewBox="0 0 673.001 594.987"><defs><style>.a{fill:#ff3823;}.b{fill:#dfddcd;}.c{fill:#5b3f34;}.d{fill:#525fbe;}</style></defs><g transform="translate(-692.999 -171.255)"><g transform="translate(970.622 405.633)"><path class="a" d="M1032.038,626.676V266.067H842.853C729,266.067,636.66,358.38,636.66,472.222V626.676Z" transform="translate(-636.66 -266.067)"/><g transform="translate(99.221 98.729)"><path class="b" d="M808.487,330.826A106.736,106.736,0,1,0,915.205,437.559,106.731,106.731,0,0,0,808.487,330.826Z" transform="translate(-701.742 -330.826)"/><path class="c" d="M731.527,421.935a61.323,61.323,0,1,0,122.646,0H792.849V360.611A61.3,61.3,0,0,0,731.527,421.935Z" transform="translate(-686.118 -315.202)"/></g></g><path class="d" d="M726.908,263.518A115.016,115.016,0,1,1,611.891,148.5,115.017,115.017,0,0,1,726.908,263.518Z" transform="translate(260.638 77.898)"/><circle class="b" cx="41.077" cy="41.077" r="41.077" transform="translate(692.999 253.389) rotate(-88.697)"/></g></svg>