<svg xmlns="http://www.w3.org/2000/svg" width="275.476" height="337.053" viewBox="0 0 275.476 337.053"><defs><style>.a{fill:#fda9d1;}.b{fill:#ff3823;}.c{fill:#ffd32f;}.d,.f{fill:#32b9fd;}.e{fill:none;}.f{font-size:44px;font-family:Gilroy-Bold, Gilroy;font-weight:700;}</style></defs><g transform="translate(0 -1493.904)"><rect class="a" width="274" height="337.053" transform="translate(0 1493.904)"/><g transform="translate(0 1644.079)"><rect class="b" width="91.115" height="30.719" transform="translate(137.736 92.173)"/><rect class="c" width="46.63" height="30.719" transform="translate(0 92.173)"/><rect class="d" width="91.106" height="30.719" transform="translate(46.63 92.173)"/><rect class="d" width="91.112" height="30.725" transform="translate(183.297 61.448)"/><rect class="b" width="91.112" height="30.725" transform="translate(1.071 61.448)"/><rect class="e" width="91.114" height="30.725" transform="translate(92.183 61.448)"/><rect class="b" width="91.115" height="30.723" transform="translate(137.736 30.725)"/><rect class="c" width="46.63" height="30.723" transform="translate(0 30.725)"/><rect class="d" width="91.106" height="30.723" transform="translate(46.63 30.725)"/><rect class="d" width="91.112" height="30.725" transform="translate(183.297 0)"/><rect class="b" width="91.112" height="30.725" transform="translate(1.071 0)"/><rect class="d" width="91.112" height="30.723" transform="translate(183.297 123.179)"/><rect class="b" width="91.112" height="30.723" transform="translate(1.071 123.179)"/><rect class="c" width="91.114" height="30.723" transform="translate(92.183 123.179)"/><rect class="c" width="91.114" height="30.725" transform="translate(92.183 0)"/><rect class="b" width="91.115" height="30.726" transform="translate(137.736 153.905)"/><rect class="c" width="46.63" height="30.726" transform="translate(0 153.905)"/><rect class="d" width="91.106" height="30.726" transform="translate(46.63 153.905)"/><g transform="translate(228.852 92.173)"><rect class="c" width="46.624" height="30.719"/></g><g transform="translate(228.852 30.725)"><rect class="c" width="46.624" height="30.723"/></g><g transform="translate(228.852 153.905)"><rect class="c" width="46.624" height="30.726"/></g></g><text class="f" transform="translate(136 1608.832)"><tspan x="-92.488" y="0">Observa.</tspan></text></g></svg>