<svg xmlns="http://www.w3.org/2000/svg" width="275.476" height="337.053" viewBox="0 0 275.476 337.053"><defs><style>.a{fill:#fda9d1;}.b{fill:#ff3823;}.c{fill:#ffd32f;}.d{fill:#32b9fd;}.e{fill:none;}</style></defs><g transform="translate(0 -1493.904)"><rect class="a" width="274" height="337.053" transform="translate(0 1493.904)"/><g transform="translate(0 1644.079)"><rect class="b" width="91.115" height="30.719" transform="translate(137.736 92.173)"/><rect class="c" width="46.63" height="30.719" transform="translate(0 92.173)"/><rect class="d" width="91.106" height="30.719" transform="translate(46.63 92.173)"/><rect class="d" width="91.112" height="30.725" transform="translate(183.297 61.448)"/><rect class="b" width="91.112" height="30.725" transform="translate(1.071 61.448)"/><rect class="e" width="91.114" height="30.725" transform="translate(92.183 61.448)"/><rect class="b" width="91.115" height="30.723" transform="translate(137.736 30.725)"/><rect class="c" width="46.63" height="30.723" transform="translate(0 30.725)"/><rect class="d" width="91.106" height="30.723" transform="translate(46.63 30.725)"/><rect class="d" width="91.112" height="30.725" transform="translate(183.297 0)"/><rect class="b" width="91.112" height="30.725" transform="translate(1.071 0)"/><rect class="d" width="91.112" height="30.723" transform="translate(183.297 123.179)"/><rect class="b" width="91.112" height="30.723" transform="translate(1.071 123.179)"/><rect class="c" width="91.114" height="30.723" transform="translate(92.183 123.179)"/><rect class="c" width="91.114" height="30.725" transform="translate(92.183 0)"/><rect class="b" width="91.115" height="30.726" transform="translate(137.736 153.905)"/><rect class="c" width="46.63" height="30.726" transform="translate(0 153.905)"/><rect class="d" width="91.106" height="30.726" transform="translate(46.63 153.905)"/><g transform="translate(228.852 92.173)"><rect class="c" width="46.624" height="30.719"/></g><g transform="translate(228.852 30.725)"><rect class="c" width="46.624" height="30.723"/></g><g transform="translate(228.852 153.905)"><rect class="c" width="46.624" height="30.726"/></g></g><path class="d" d="M-75.064.616A15.906,15.906,0,0,0-59.048-15.4,15.879,15.879,0,0,0-75.064-31.416,15.842,15.842,0,0,0-91.036-15.4,15.869,15.869,0,0,0-75.064.616Zm0-5.94A9.749,9.749,0,0,1-85.008-15.4a9.76,9.76,0,0,1,9.944-10.12A9.76,9.76,0,0,1-65.12-15.4,9.749,9.749,0,0,1-75.064-5.324ZM-42.24-22.616A8.547,8.547,0,0,0-49.368-19.4V-30.8h-5.676V0h5.676V-2.6A8.547,8.547,0,0,0-42.24.616C-36.344.616-31.5-4.444-31.5-11S-36.344-22.616-42.24-22.616ZM-43.3-4.8A5.9,5.9,0,0,1-49.368-11,5.9,5.9,0,0,1-43.3-17.2,5.915,5.915,0,0,1-37.18-11,5.915,5.915,0,0,1-43.3-4.8Zm20.548-10.956c0-1.188,1.144-1.8,2.552-1.8a3.721,3.721,0,0,1,3.52,2.244l4.84-2.64a9.266,9.266,0,0,0-8.36-4.664c-4.532,0-8.36,2.508-8.36,7,0,7.744,11.352,5.984,11.352,9.2,0,1.276-1.232,1.892-3.036,1.892a4.191,4.191,0,0,1-4.312-2.86L-29.48-4.62C-27.9-1.232-24.64.616-20.24.616c4.708,0,8.844-2.288,8.844-7.04C-11.4-14.52-22.748-12.5-22.748-15.752ZM-3.256-8.668H13.332A13.112,13.112,0,0,0,13.552-11c0-6.468-4.62-11.616-11.132-11.616A11.233,11.233,0,0,0-9.2-11C-9.2-4.444-4.532.616,2.86.616a11.132,11.132,0,0,0,9.592-4.708L7.876-6.732a6.1,6.1,0,0,1-4.928,2.2C-.044-4.532-2.464-5.764-3.256-8.668Zm-.088-4.4A5.486,5.486,0,0,1,2.42-17.512a5.338,5.338,0,0,1,5.456,4.444Zm26.532-5.148V-22H17.512V0h5.676V-10.516c0-4.62,3.74-5.94,6.688-5.588V-22.44A6.771,6.771,0,0,0,23.188-18.216ZM47.652-22,42.284-6.6,36.96-22H30.712l8.36,22H45.54L53.9-22Zm24.816,0v2.6A8.758,8.758,0,0,0,65.3-22.616C59.444-22.616,54.6-17.556,54.6-11S59.444.616,65.3.616A8.758,8.758,0,0,0,72.468-2.6V0h5.676V-22ZM66.352-4.8A5.9,5.9,0,0,1,60.28-11a5.9,5.9,0,0,1,6.072-6.2A5.915,5.915,0,0,1,72.468-11,5.915,5.915,0,0,1,66.352-4.8ZM86.592.572a3.737,3.737,0,0,0,3.74-3.74,3.737,3.737,0,0,0-3.74-3.74,3.737,3.737,0,0,0-3.74,3.74A3.737,3.737,0,0,0,86.592.572Z" transform="translate(136 1608.832)"/></g></svg>