<svg xmlns="http://www.w3.org/2000/svg" width="196.025" height="98.015" viewBox="0 0 196.025 98.015"><defs><style>.a{fill:#dfddcd;}.b{fill:#5b3f34;}</style></defs><g transform="translate(-139 -403.197)"><g transform="translate(-1734.87 54)"><path class="a" d="M1922.882,349.2a49.008,49.008,0,1,0,49,49.006A49.005,49.005,0,0,0,1922.882,349.2Z"/><path class="b" d="M1894.719,398.2a28.157,28.157,0,1,0,56.314,0h-28.157V370.046A28.148,28.148,0,0,0,1894.719,398.2Z"/></g><g transform="translate(-1734.87 54)"><path class="a" d="M2020.9,349.2a49.008,49.008,0,1,0,49,49.006A49.005,49.005,0,0,0,2020.9,349.2Z"/><path class="b" d="M1992.732,398.2a28.157,28.157,0,1,0,56.314,0h-28.159V370.046A28.147,28.147,0,0,0,1992.732,398.2Z"/></g></g></svg>