<svg xmlns="http://www.w3.org/2000/svg" width="136.015" height="143.027" viewBox="0 0 136.015 143.027"><defs><style>.a{fill:#ffd32f;}.b{fill:#ff3823;}.c{fill:#32b9fd;}</style></defs><g transform="translate(-106.743 -353.971)"><g transform="translate(106.743 463.155)"><path class="a" d="M140.581,417.392a33.84,33.84,0,0,0-33.838,33.843h67.68A33.845,33.845,0,0,0,140.581,417.392Z" transform="translate(-106.743 -417.392)"/><path class="a" d="M180.277,417.392a33.844,33.844,0,0,0-33.839,33.843h67.677A33.839,33.839,0,0,0,180.277,417.392Z" transform="translate(-78.1 -417.392)"/></g><g transform="translate(123.19 353.971)"><path class="b" d="M213.14,416.394a5.771,5.771,0,0,1-.728-.537,6.3,6.3,0,0,1-1.332-7.924,6.435,6.435,0,0,1,1.307-1.586c.3-.208.6-.429.887-.654a18.06,18.06,0,0,0-17.892-30.923,6.708,6.708,0,0,1-1.038.453,6.315,6.315,0,0,1-8.172-4.829,8.489,8.489,0,0,1-.114-.961,18.058,18.058,0,0,0-35.719-.148c-.059.418-.11.845-.141,1.272a6.3,6.3,0,0,1-8.219,4.636,6.745,6.745,0,0,1-.985-.427,18.06,18.06,0,0,0-17.911,30.9c.327.255.659.5,1.005.742a6.318,6.318,0,0,1,1.234,7.84,6.2,6.2,0,0,1-1.238,1.527c-.343.238-.685.484-1.005.74a18.061,18.061,0,0,0,17.755,30.964c.451-.172.909-.372,1.35-.587a6.333,6.333,0,0,1,7.32,2.877,6.41,6.41,0,0,1,.685,1.759c.038.472.084.93.153,1.384a18.06,18.06,0,0,0,35.735-.279,7.269,7.269,0,0,1,.095-.849,6.329,6.329,0,0,1,8.124-4.846c.4.186.778.362,1.181.513a18.059,18.059,0,0,0,17.665-31.062Z" transform="translate(-116.296 -353.971)"/><g transform="translate(30.764 39.269)"><g transform="translate(8.4)"><path class="c" d="M147.706,381.119a4.331,4.331,0,1,1-4.332-4.338A4.329,4.329,0,0,1,147.706,381.119Z" transform="translate(-139.045 -376.781)"/><path class="c" d="M157.464,381.119a4.332,4.332,0,1,1-4.33-4.338A4.329,4.329,0,0,1,157.464,381.119Z" transform="translate(-132.007 -376.781)"/></g><g transform="translate(0 13.611)"><path class="c" d="M152.589,389.022a4.334,4.334,0,1,1-4.33-4.335A4.332,4.332,0,0,1,152.589,389.022Z" transform="translate(-127.127 -384.687)"/><path class="c" d="M162.345,389.022a4.335,4.335,0,1,1-4.328-4.335A4.332,4.332,0,0,1,162.345,389.022Z" transform="translate(-120.089 -384.687)"/><path class="c" d="M142.834,389.022a4.334,4.334,0,1,1-4.338-4.335A4.335,4.335,0,0,1,142.834,389.022Z" transform="translate(-134.166 -384.687)"/></g><g transform="translate(8.4 27.039)"><path class="c" d="M147.706,396.82a4.331,4.331,0,1,1-4.332-4.333A4.328,4.328,0,0,1,147.706,396.82Z" transform="translate(-139.045 -392.487)"/><path class="c" d="M157.464,396.82a4.332,4.332,0,1,1-4.33-4.333A4.329,4.329,0,0,1,157.464,396.82Z" transform="translate(-132.007 -392.487)"/></g></g></g></g></svg>