<svg xmlns="http://www.w3.org/2000/svg" width="244.774" height="248.667" viewBox="0 0 244.774 248.667"><defs><style>.a,.c{fill:#54443c;}.a{opacity:0.5;}.b{fill:#e6e3de;}.c,.t{opacity:0.4;}.d{fill:#dfddcd;}.e{fill:#ff821e;}.f{fill:#d07511;}.g{fill:#ffd32f;}.h{fill:#efc72f;}.i{fill:#ff3823;}.j{fill:#d83823;}.k{fill:#fee8c7;}.l{fill:#fedba6;}.m{fill:#32b9fd;}.n{fill:#32a7fd;}.o{fill:#5b3f34;}.p,.t{fill:#525fbe;}.an,.q{fill:#4555a2;}.r{fill:#d0d2d3;}.s{fill:#808184;}.ab,.an,.t,.x{mix-blend-mode:multiply;isolation:isolate;}.aj,.u{fill:#fff;}.v{fill:#d3effb;}.w{fill:#22c253;}.x{fill:#ccead3;}.y{fill:#c9ed32;}.z{fill:#fdafdc;}.aa{fill:#bebaa7;}.ac{fill:#e6e7e8;}.ad{fill:#a9adcc;}.ae{fill:#45515f;}.af{fill:#d4d9f0;}.ag{fill:#929497;}.ah{fill:#99d3ff;}.ai{fill:#b9c0d2;}.aj,.an{opacity:0.2;}.ak,.ap{fill:none;}.ak{stroke:#b0b2b3;stroke-width:0.153px;}.al{opacity:0.3;}.am{fill:#fda9d1;}.ao{opacity:0.8;}.aq{fill:#dc9fca;}</style></defs><g transform="translate(-139 -259.486)"><g transform="translate(-1736.171 -432)"><path class="a" d="M1996.6,779.414a2.334,2.334,0,0,1-3.186.854l-50.349-29.07a2.332,2.332,0,0,1-.854-3.185l28.947-50.137a2.332,2.332,0,0,1,3.185-.854l50.35,29.069a2.334,2.334,0,0,1,.853,3.187Z"/><path class="b" d="M1998.12,776.786a2.333,2.333,0,0,1-3.186.855l-50.349-29.07a2.331,2.331,0,0,1-.853-3.186l28.945-50.136a2.332,2.332,0,0,1,3.187-.853l50.348,29.068a2.329,2.329,0,0,1,.854,3.185Z"/><path class="c" d="M1996.671,772.142a2.065,2.065,0,0,1-2.824.755l-44.613-25.756a2.07,2.07,0,0,1-.757-2.826l25.648-44.422a2.066,2.066,0,0,1,2.824-.757l44.614,25.758a2.067,2.067,0,0,1,.757,2.824Z"/><path class="d" d="M1996.671,772.142a2.065,2.065,0,0,1-2.824.755l-44.613-25.756a2.07,2.07,0,0,1-.757-2.826l24.715-42.8a2.069,2.069,0,0,1,2.823-.758l44.614,25.759a2.065,2.065,0,0,1,.757,2.823Z"/><rect class="b" width="4.082" height="55.629" transform="matrix(0.5, -0.866, 0.866, 0.5, 1960.699, 723.192)"/><rect class="c" width="2.216" height="55.628" transform="translate(1959.59 725.112) rotate(-60.001)"/><path class="e" d="M1984.561,767.536l9.286,5.361a2.065,2.065,0,0,0,2.824-.755l5.247-9.088Z"/><path class="e" d="M1958.521,752.5l-9.287-5.361a2.07,2.07,0,0,1-.757-2.826l5.247-9.087Z"/><path class="e" d="M1986.236,704.5l-9.287-5.362a2.066,2.066,0,0,0-2.824.757l-5.246,9.085Z"/><path class="e" d="M2012.277,719.532l9.286,5.362a2.067,2.067,0,0,1,.757,2.824l-5.246,9.087Z"/><path class="f" d="M2017.074,736.8l-4.8-17.272-.816,1.414,4.549,17.7Z"/><path class="f" d="M1968.879,708.979l17.357-4.481-.816,1.414-17.606,4.911Z"/><path class="g" d="M1975.189,696.667a.639.639,0,1,1-.232-.873A.638.638,0,0,1,1975.189,696.667Z"/><path class="g" d="M2025.688,725.821a.639.639,0,1,1-.233-.873A.64.64,0,0,1,2025.688,725.821Z"/><path class="g" d="M1946.229,746.827a.638.638,0,1,1-.232-.873A.636.636,0,0,1,1946.229,746.827Z"/><path class="g" d="M1996.728,775.981a.639.639,0,1,1-.233-.872A.636.636,0,0,1,1996.728,775.981Z"/><path class="g" d="M1961.1,721.067a.638.638,0,1,1-.233-.871A.638.638,0,0,1,1961.1,721.067Z"/><path class="g" d="M2011.6,750.224a.639.639,0,1,1-.234-.873A.639.639,0,0,1,2011.6,750.224Z"/><path class="g" d="M2003.972,758.314h9.929a1.472,1.472,0,0,1,1.471,1.47v41.5H2002.5v-41.5A1.471,1.471,0,0,1,2003.972,758.314Z"/><path class="h" d="M2013.9,758.314h-5.739a1.471,1.471,0,0,1,1.47,1.47v41.5h5.74v-41.5A1.472,1.472,0,0,0,2013.9,758.314Z"/><path class="i" d="M2036.984,801.75l-11.146-6.435,23.569-40.824a1.471,1.471,0,0,1,2.01-.538l8.6,4.964a1.471,1.471,0,0,1,.538,2.01Z"/><path class="j" d="M2060.015,758.917l-4.97-2.869a1.471,1.471,0,0,1,.537,2.009l-23.57,40.823,4.972,2.87,23.569-40.823A1.471,1.471,0,0,0,2060.015,758.917Z"/><path class="k" d="M2045.413,761.409l11.146,6.436-3.145,5.447-11.146-6.435Z"/><path class="l" d="M2051.588,764.975l4.971,2.87-3.145,5.447-4.971-2.87Z"/><path class="m" d="M2002.095,795.315l-11.144,6.435-23.57-40.823a1.471,1.471,0,0,1,.539-2.01l8.6-4.964a1.471,1.471,0,0,1,2.01.538l23.569,40.824Z"/><path class="n" d="M1976.518,753.953l-4.971,2.87a1.47,1.47,0,0,1,2.009.538l23.57,40.824,4.969-2.87-23.569-40.824A1.469,1.469,0,0,0,1976.518,753.953Z"/><path class="g" d="M1967.973,797.966H1955.1V750.827a1.47,1.47,0,0,1,1.469-1.471h9.93a1.469,1.469,0,0,1,1.469,1.471Z"/><path class="h" d="M1966.5,749.356h-5.741a1.47,1.47,0,0,1,1.47,1.471v47.139h5.74V750.827A1.469,1.469,0,0,0,1966.5,749.356Z"/><path class="k" d="M1955.1,758.815h12.868v6.29H1955.1Z"/><path class="o" d="M1978.6,792.261a.383.383,0,0,1-.139-.52l.436-1.227c.105-.182.43-.189.725-.019h0c.294.174.45.457.346.639l-.849.988a.382.382,0,0,1-.519.139Z"/><path class="p" d="M1979.816,791.786l5.373-4.635L1979.752,784l-1.347,6.966Z"/><path class="q" d="M1981.934,785.268,1979.752,784l-1.347,6.966.562.323Z"/><path class="p" d="M2003.9,754.526l2.318-4a3.055,3.055,0,1,0-5.289-3.061l-2.319,4Z"/><path class="q" d="M2005.746,746.85a2.985,2.985,0,0,0-.642-.5,3.057,3.057,0,0,0-4.177,1.113l-2.319,4,2.147,1.245C2002.173,749.973,2002.849,747.276,2005.746,746.85Z"/><rect class="m" width="37.2" height="6.281" transform="matrix(0.501, -0.865, 0.865, 0.501, 1979.753, 784.004)"/><rect class="n" width="37.201" height="2.527" transform="matrix(0.501, -0.865, 0.865, 0.501, 1979.753, 784.004)"/><rect class="r" width="12.992" height="1.227" transform="matrix(0.501, -0.865, 0.865, 0.501, 1987.347, 778.641)"/><path class="g" d="M1997.917,751.9a.136.136,0,0,1-.044-.192l.885-1.531a.139.139,0,0,1,.189-.058l7.368,4.268a.137.137,0,0,1,.046.191l-.886,1.532a.142.142,0,0,1-.19.056Z"/><rect class="g" width="18.557" height="1.228" transform="matrix(0.501, -0.865, 0.865, 0.501, 1996.068, 769.893)"/><path class="s" d="M1996.089,769.905c-.282-.164-.156-.91.282-1.67s1.025-1.239,1.308-1.076.157.911-.284,1.67S1996.371,770.067,1996.089,769.905Z"/><path class="g" d="M2037.986,778.091l-4.22,4.22a1.048,1.048,0,0,1-1.482,0l-2.68-2.679,5.7-5.7,2.681,2.679a1.048,1.048,0,0,1,0,1.482Z"/><path class="m" d="M2034.16,781.911l3.419-3.421,3.421,3.421-3.421,3.421Z"/><path class="i" d="M2056.61,796.716l-4.22,4.219a1.048,1.048,0,0,1-1.482,0l-13.722-13.722a1.048,1.048,0,0,1,0-1.482l4.221-4.218a1.044,1.044,0,0,1,1.48,0l13.723,13.72a1.05,1.05,0,0,1,0,1.483Z"/><path class="t" d="M2056.61,796.716l-1.16,1.158-15.2-15.2,1.16-1.158a1.044,1.044,0,0,1,1.48,0l13.723,13.72a1.05,1.05,0,0,1,0,1.483Z"/><path class="m" d="M2021.433,749.632a16.126,16.126,0,1,1-16.126,16.126A16.126,16.126,0,0,1,2021.433,749.632Z"/><path class="u" d="M2021.433,753.933a11.825,11.825,0,1,1-11.827,11.825A11.824,11.824,0,0,1,2021.433,753.933Z"/><path class="v" d="M2028.573,756.333a11.825,11.825,0,0,1-16.567,16.566,11.825,11.825,0,1,0,16.567-16.566Z"/><path class="c" d="M2.489,0H28.365a2.489,2.489,0,0,1,2.489,2.489V62.206a2.488,2.488,0,0,1-2.488,2.488H2.489A2.489,2.489,0,0,1,0,62.205V2.489A2.489,2.489,0,0,1,2.489,0Z" transform="translate(2027.867 697.847)"/><path class="d" d="M2.488,0H28.365a2.489,2.489,0,0,1,2.489,2.489V62.2a2.489,2.489,0,0,1-2.489,2.489H2.489A2.489,2.489,0,0,1,0,62.2V2.488A2.488,2.488,0,0,1,2.488,0Z" transform="translate(2027.867 695.357)"/><path class="c" d="M2043.811,755.433a.515.515,0,0,1-.516.516h0a.517.517,0,0,1-.518-.516V699.976a.518.518,0,0,1,.518-.518h0a.516.516,0,0,1,.516.518Z"/><path class="w" d="M2039.6,704.564a4.479,4.479,0,1,1-4.477-4.479A4.478,4.478,0,0,1,2039.6,704.564Z"/><path class="x" d="M2035.126,701.319a4.476,4.476,0,0,1,4.429,3.863,4.257,4.257,0,0,0,.048-.618,4.479,4.479,0,1,0-8.957,0,4.887,4.887,0,0,0,.047.618A4.477,4.477,0,0,1,2035.126,701.319Z"/><path class="m" d="M2039.6,719.989a4.479,4.479,0,1,1-4.477-4.478A4.479,4.479,0,0,1,2039.6,719.989Z"/><path class="x" d="M2035.126,716.747a4.474,4.474,0,0,1,4.429,3.861,4.237,4.237,0,0,0,.048-.619,4.479,4.479,0,0,0-8.957,0,4.859,4.859,0,0,0,.047.619A4.476,4.476,0,0,1,2035.126,716.747Z"/><path class="p" d="M2039.6,735.417a4.479,4.479,0,1,1-4.477-4.481A4.478,4.478,0,0,1,2039.6,735.417Z"/><path class="x" d="M2035.126,732.174a4.473,4.473,0,0,1,4.429,3.86,4.189,4.189,0,0,0,.048-.617,4.479,4.479,0,1,0-8.957,0,4.8,4.8,0,0,0,.047.617A4.475,4.475,0,0,1,2035.126,732.174Z"/><path class="y" d="M2039.6,750.845a4.479,4.479,0,1,1-4.477-4.481A4.476,4.476,0,0,1,2039.6,750.845Z"/><path class="x" d="M2035.126,747.6a4.473,4.473,0,0,1,4.429,3.861,4.232,4.232,0,0,0,.048-.617,4.479,4.479,0,1,0-8.957,0,4.857,4.857,0,0,0,.047.617A4.475,4.475,0,0,1,2035.126,747.6Z"/><path class="i" d="M2055.942,704.564a4.478,4.478,0,1,1-4.48-4.479A4.479,4.479,0,0,1,2055.942,704.564Z"/><path class="x" d="M2051.462,701.319a4.477,4.477,0,0,1,4.433,3.863,4.909,4.909,0,0,0,.047-.618,4.478,4.478,0,1,0-8.956,0,4.4,4.4,0,0,0,.047.618A4.479,4.479,0,0,1,2051.462,701.319Z"/><path class="z" d="M2055.942,719.989a4.478,4.478,0,1,1-4.48-4.478A4.48,4.48,0,0,1,2055.942,719.989Z"/><path class="x" d="M2051.462,716.747a4.476,4.476,0,0,1,4.433,3.861,4.882,4.882,0,0,0,.047-.619,4.478,4.478,0,1,0-8.956,0,4.377,4.377,0,0,0,.047.619A4.477,4.477,0,0,1,2051.462,716.747Z"/><path class="e" d="M2055.942,735.417a4.478,4.478,0,1,1-4.48-4.481A4.479,4.479,0,0,1,2055.942,735.417Z"/><path class="x" d="M2051.462,732.174a4.475,4.475,0,0,1,4.433,3.86,4.823,4.823,0,0,0,.047-.617,4.478,4.478,0,1,0-8.956,0,4.327,4.327,0,0,0,.047.617A4.476,4.476,0,0,1,2051.462,732.174Z"/><path class="g" d="M2055.942,750.845a4.478,4.478,0,1,1-4.48-4.481A4.477,4.477,0,0,1,2055.942,750.845Z"/><path class="x" d="M2051.462,747.6a4.475,4.475,0,0,1,4.433,3.861,4.879,4.879,0,0,0,.047-.617,4.478,4.478,0,1,0-8.956,0,4.372,4.372,0,0,0,.047.617A4.476,4.476,0,0,1,2051.462,747.6Z"/><path class="g" d="M2019.262,705.334s5.03-2.81-.271-12.79C2018.991,692.544,2014.231,701.762,2019.262,705.334Z"/><path class="p" d="M2019.186,706.366c-.617,0-1.11.856-1.1,1.895l.026,2.979a2.073,2.073,0,0,0,2.148.051l.03-3.03C2020.3,707.222,2019.805,706.366,2019.186,706.366Z"/><path class="d" d="M2018.11,711.24l.419,44.73a.656.656,0,1,0,1.313,0l.416-44.679A2.073,2.073,0,0,1,2018.11,711.24Z"/><path class="m" d="M2020.876,707.211a1.689,1.689,0,0,1-1.69,1.688h0a1.689,1.689,0,0,1-1.69-1.688v-1.692a1.689,1.689,0,0,1,1.69-1.688h0a1.689,1.689,0,0,1,1.69,1.688Z"/><path class="d" d="M1950.733,715.281l17.594,26.694c.736,1.118.687,2.421-.119,2.887l-10.361,5.981c-.81.468-1.962-.142-2.561-1.339l-14.375-28.688C1944.137,718.92,1947.449,717.109,1950.733,715.281Z"/><path class="aa" d="M1940.911,720.816l-.031-.063c-.329-.657.334-3.232.911-3.564l5.3-3.059c.577-.333,3.138.381,3.542.995l.1.156C1947.449,717.109,1944.137,718.92,1940.911,720.816Z"/><path class="aa" d="M1957.21,753.345c.468.935,1.349,1.419,1.961,1.065l11.462-6.618c.61-.352.633-1.357.057-2.231h0c-.566-.859-1.5-1.267-2.094-.924l-11.141,6.431c-.592.343-.706,1.358-.245,2.277Z"/><path class="m" d="M1953.927,741.35a1.817,1.817,0,0,0,2.341,1.075l5.528-3.192a1.815,1.815,0,0,0,.238-2.564l-8.956-14.168a1.479,1.479,0,0,0-1.93-.615l-4.595,2.652a1.478,1.478,0,0,0-.432,1.979Z"/><path class="d" d="M1941.439,716.958a.353.353,0,0,0,.487.151l5.093-2.94a.354.354,0,0,0,.114-.5l-2.508-4.093a.36.36,0,0,0-.48-.12l-4.86,2.807a.358.358,0,0,0-.14.476Z"/><path class="p" d="M1972.5,718.425l23.369,39.4a1.551,1.551,0,0,0,2.092.594l.692-.4a1.546,1.546,0,0,0,.529-2.107l-22.534-39.889Z"/><path class="o" d="M1974.231,711.73l-4.257,2.459,2.526,4.236,4.148-2.4Z"/><path class="g" d="M1974.231,711.73a32.893,32.893,0,0,0-1.854-9.735s-1.869-.989-5.615,1.173l1.2,2.636-1.758-2.313-.846.489,1.628,2.387-2.192-2.061a5.938,5.938,0,0,0-1.827,3.175,31.008,31.008,0,0,0,7.009,6.708Z"/><path class="d" d="M1992.3,730.733l17.593-26.694c.737-1.118.689-2.419-.12-2.886l-10.359-5.982c-.811-.467-1.962.143-2.562,1.34L1982.482,725.2C1985.7,727.092,1989.018,728.9,1992.3,730.733Z"/><path class="aa" d="M1982.482,725.2l-.031.063c-.329.656.332,3.232.911,3.566l5.295,3.058c.577.333,3.139-.382,3.543-1l.1-.156C1989.018,728.9,1985.7,727.092,1982.482,725.2Z"/><path class="aa" d="M1998.78,692.669c.467-.936,1.349-1.42,1.959-1.067l11.466,6.619c.609.352.631,1.358.055,2.231h0c-.566.859-1.5,1.269-2.093.926l-11.143-6.433c-.593-.342-.705-1.357-.244-2.276Z"/><path class="i" d="M1995.5,704.664a1.817,1.817,0,0,1,2.341-1.075l5.529,3.191a1.815,1.815,0,0,1,.236,2.565l-8.954,14.168a1.48,1.48,0,0,1-1.932.615l-4.594-2.652a1.479,1.479,0,0,1-.43-1.981Z"/><path class="d" d="M1983.009,729.056a.354.354,0,0,1,.488-.151l5.092,2.942a.35.35,0,0,1,.113.5l-2.508,4.092a.36.36,0,0,1-.482.121l-4.86-2.807a.36.36,0,0,1-.136-.477Z"/><g class="ab"><ellipse class="ac" cx="62.31" cy="11.518" rx="62.31" ry="11.518" transform="translate(1938.541 840.497)"/></g><path class="ad" d="M2050.108,832.231h-81.753c-9.565,0-12.934-8-13.4-12.316L1938.2,726.978l-26.688-9.582a2.18,2.18,0,1,1,1.475-4.1l27.871,10.01a2.171,2.171,0,0,1,1.409,1.662l17,94.256c.01.058.019.115.026.172.09.859,1.142,8.476,9.066,8.476h81.753a2.181,2.181,0,1,1,0,4.361Z"/><path class="i" d="M1938.541,719.369l-24.57-8.824a5.1,5.1,0,1,0-3.451,9.6l24.522,8.8C1936.367,725.815,1937.477,722.6,1938.541,719.369Z"/><path class="ad" d="M2060.4,806.011H1952.646L1940.3,733.7l127.543,10.19Zm-104.07-4.36h100.2l6.441-53.777-117.43-9.385Z"/><path class="ad" d="M1973.444,806.7l-10.735-67.457,4.753,1.381,10.734,65.3Z"/><rect class="ad" width="4.817" height="62.001" transform="translate(1991.104 742.06) rotate(-3.204)"/><rect class="ad" width="57.517" height="4.815" transform="matrix(0.066, -0.998, 0.998, 0.066, 2036.341, 801.286)"/><rect class="ad" width="4.813" height="58.813" transform="translate(2014.97 744.255)"/><rect class="ad" width="4.818" height="114.971" transform="matrix(0.06, -0.998, 0.998, 0.06, 1948.254, 760.13)"/><rect class="ad" width="4.816" height="107.843" transform="translate(1950.595 784.607) rotate(-88.935)"/><path class="o" d="M1987.907,846.058a12.284,12.284,0,1,1-12.285-12.282A12.282,12.282,0,0,1,1987.907,846.058Z"/><path class="ae" d="M1981.579,846.058a5.956,5.956,0,1,1-5.957-5.955A5.956,5.956,0,0,1,1981.579,846.058Z"/><path class="af" d="M1969.378,830.052l2.628,15.32a3.736,3.736,0,0,0,3.674,3.254s3.309.362,4.058-3.566l2.244-15.008Z"/><path class="ag" d="M1977.674,844.624a1.994,1.994,0,1,1-1.994-1.994A1.994,1.994,0,0,1,1977.674,844.624Z"/><path class="o" d="M2047.679,846.058a12.284,12.284,0,1,1-12.283-12.282A12.284,12.284,0,0,1,2047.679,846.058Z"/><path class="ae" d="M2041.352,846.058a5.956,5.956,0,1,1-5.956-5.955A5.959,5.959,0,0,1,2041.352,846.058Z"/><path class="af" d="M2029.152,830.052l2.628,15.32a3.732,3.732,0,0,0,3.671,3.254s3.311.362,4.059-3.566l2.246-15.008Z"/><path class="ag" d="M2037.449,844.624a2,2,0,1,1-2-1.994A2,2,0,0,1,2037.449,844.624Z"/></g><g transform="translate(-1736.171 -432)"><g class="ab"><path class="ac" d="M2119.945,927.384c0,7.051-37.557,12.769-83.887,12.769s-83.888-5.718-83.888-12.769,37.561-12.77,83.888-12.77S2119.945,920.33,2119.945,927.384Z"/></g><path class="ad" d="M2098.973,848.679H1981.64a3.439,3.439,0,0,0-3.44,3.437V928.24h124.214V852.116A3.438,3.438,0,0,0,2098.973,848.679Z"/><path class="ad" d="M1995.831,848.679H1981.64a3.439,3.439,0,0,0-3.44,3.437V928.24h14.193V852.116A3.434,3.434,0,0,1,1995.831,848.679Z"/><path class="ah" d="M2095.317,854.03H1985.3a1.19,1.19,0,0,0-1.189,1.191v63.616a1.189,1.189,0,0,0,1.189,1.189h110.021a1.189,1.189,0,0,0,1.189-1.189V855.221A1.19,1.19,0,0,0,2095.317,854.03Z"/><path class="m" d="M2095.317,854.03H1985.3a1.19,1.19,0,0,0-1.189,1.191v63.616a1.189,1.189,0,0,0,1.189,1.189h110.021a1.189,1.189,0,0,0,1.189-1.189V855.221A1.19,1.19,0,0,0,2095.317,854.03Z"/><path class="af" d="M2104.287,931.951H1976.332c-3.245,0-5.876-1.19-5.876-4.433v-2.14h139.7v2.14C2110.159,930.761,2107.528,931.951,2104.287,931.951Z"/><path class="ai" d="M2027.47,929.386h25.913a3.249,3.249,0,0,0,3.253-3.244v-.764H2024.22v.764A3.245,3.245,0,0,0,2027.47,929.386Z"/><path class="ai" d="M2024.22,925.378v.764a3.243,3.243,0,0,0,.146.963,3.074,3.074,0,0,0,.246.581,3.191,3.191,0,0,0,.559.749,3.457,3.457,0,0,0,.482.4,3.537,3.537,0,0,0,.551.3,3.056,3.056,0,0,0,.3.109,3.285,3.285,0,0,0,.967.147h13.387v-4.008Z"/><path class="i" d="M2096.376,919.558V882.3h-19.545a21.3,21.3,0,0,0-21.3,21.3v15.957Z"/><path class="d" d="M2076.807,892.5a11.027,11.027,0,1,0,11.026,11.027A11.026,11.026,0,0,0,2076.807,892.5Z"/><path class="o" d="M2070.47,903.53a6.336,6.336,0,0,0,12.672,0h-6.336v-6.336A6.334,6.334,0,0,0,2070.47,903.53Z"/><path class="p" d="M2046.721,876.31a11.882,11.882,0,1,1-11.883-11.883A11.881,11.881,0,0,1,2046.721,876.31Z"/><path class="d" d="M2024.875,863.068a4.245,4.245,0,1,1-4.245-4.243A4.243,4.243,0,0,1,2024.875,863.068Z"/><path class="y" d="M2041.628,851.341a1.32,1.32,0,1,0-1.322,1.318A1.319,1.319,0,0,0,2041.628,851.341Z"/><path class="aj" d="M1978.2,851.889V897.25l111.044-48.573H1981.415A3.213,3.213,0,0,0,1978.2,851.889Z"/></g><g transform="translate(-1736.171 -432)"><g class="ab"><path class="ac" d="M1964.552,898.377c0,4.561-20.007,8.261-44.691,8.261s-44.69-3.7-44.69-8.261,20.01-8.262,44.69-8.262S1964.552,893.814,1964.552,898.377Z"/></g><path class="ad" d="M2.41,0H63.949a2.412,2.412,0,0,1,2.412,2.412V83.645a2.41,2.41,0,0,1-2.41,2.41H2.41A2.41,2.41,0,0,1,0,83.645V2.41A2.41,2.41,0,0,1,2.41,0Z" transform="translate(1897.187 814.884)"/><rect class="w" width="54.862" height="74.025" transform="translate(1902.937 820.898)"/><path class="y" d="M1930.368,896.575a.756.756,0,1,1-.756.754A.755.755,0,0,1,1930.368,896.575Z"/><path class="ak" d="M2.41,0H63.949a2.412,2.412,0,0,1,2.412,2.412V83.645a2.41,2.41,0,0,1-2.41,2.41H2.41A2.41,2.41,0,0,1,0,83.645V2.41A2.41,2.41,0,0,1,2.41,0Z" transform="translate(1897.187 814.884)"/><path class="al" d="M1930.368,817.013a1.575,1.575,0,1,1-1.576,1.575A1.576,1.576,0,0,1,1930.368,817.013Z"/><path class="aj" d="M1930.37,820.163a1.575,1.575,0,0,0,0-3.15Z"/><path class="aj" d="M1897.187,817.294v34.017l66.361-28.96v-5.057a2.409,2.409,0,0,0-2.41-2.41H1899.6A2.409,2.409,0,0,0,1897.187,817.294Z"/><path class="af" d="M1880.437,900.919a.3.3,0,0,0,.391-.182l.528-.9c.056-.156-.1-.361-.361-.452h0c-.258-.093-.513-.042-.57.116l-.17,1.027a.307.307,0,0,0,.182.389Z"/><path class="am" d="M1880.1,899.932l.076-5.677,4.725,1.713-3.578,4.408Z"/><path class="an" d="M1883.009,895.281l1.9.686-3.578,4.408-.485-.178Z"/><path class="am" d="M1891.431,863.6l1.014-2.8a2.445,2.445,0,0,1,4.6,1.667l-1.014,2.8Z"/><path class="an" d="M1894.939,859.2a2.546,2.546,0,0,1,.635.136,2.449,2.449,0,0,1,1.468,3.132l-1.014,2.8-1.866-.677C1895.106,862.32,1896.166,861.2,1894.939,859.2Z"/><rect class="af" width="32.643" height="5.024" transform="translate(1880.182 894.256) rotate(-70.085)"/><rect class="ad" width="32.643" height="2.021" transform="translate(1883.006 895.28) rotate(-70.085)"/><g class="ao"><path class="y" d="M1943.042,851.943a5.216,5.216,0,1,1,5.214-5.215A5.221,5.221,0,0,1,1943.042,851.943Zm0-8.382a3.166,3.166,0,1,0,3.165,3.167A3.168,3.168,0,0,0,1943.042,843.561Z"/><path class="y" d="M1941.29,878.574a1.026,1.026,0,0,0-1.4-.37,13.062,13.062,0,0,1-10.217,1.252v-1.58a13.694,13.694,0,0,0,10.179-1.5,1.025,1.025,0,0,0-1.031-1.773,11.777,11.777,0,0,1-9.148,1.151v-1.589a12.534,12.534,0,0,0,9.208-1.4,1.026,1.026,0,0,0-1.032-1.774,10.621,10.621,0,0,1-8.176,1.055v-1.593a11.494,11.494,0,0,0,8.325-1.307,1.025,1.025,0,0,0-1.032-1.772,9.559,9.559,0,0,1-7.293.97v-1.6a10.516,10.516,0,0,0,2.155.232,10.664,10.664,0,0,0,5.366-1.454,1.026,1.026,0,1,0-1.031-1.774,8.6,8.6,0,0,1-6.49.894v-1.6a9.671,9.671,0,0,0,6.791-1.149,1.026,1.026,0,0,0-1.032-1.774,7.7,7.7,0,0,1-5.759.825v-1.623a8.2,8.2,0,0,0,1.38.119,8.332,8.332,0,0,0,4.195-1.138,1.026,1.026,0,0,0-1.033-1.774,6.255,6.255,0,0,1-4.542.7v-1.65a7.027,7.027,0,0,0,.979.086,7.1,7.1,0,0,0,3.58-.969,1.025,1.025,0,1,0-1.029-1.773,5.042,5.042,0,0,1-3.53.585v-1.665c.2.019.4.053.594.053a5.941,5.941,0,0,0,2.992-.811,1.025,1.025,0,1,0-1.031-1.772,3.886,3.886,0,0,1-2.555.475V848.47a4.983,4.983,0,0,0,2.861-1.156,1.026,1.026,0,1,0-1.325-1.566,2.926,2.926,0,0,1-1.536.661v-.891a3.639,3.639,0,0,0,2.178-1.793,1.026,1.026,0,0,0-1.816-.956,1.622,1.622,0,0,1-.362.443v-1.818a1.026,1.026,0,1,0-2.052,0v1.818a1.6,1.6,0,0,1-.361-.443,1.026,1.026,0,0,0-1.816.956,3.64,3.64,0,0,0,2.177,1.793v.891a2.933,2.933,0,0,1-1.536-.661,1.026,1.026,0,1,0-1.326,1.567,5.008,5.008,0,0,0,2.862,1.155v1.316a3.874,3.874,0,0,1-2.553-.475,1.026,1.026,0,0,0-1.035,1.772,5.936,5.936,0,0,0,2.992.811c.2,0,.4-.034.6-.053v1.665a5.042,5.042,0,0,1-3.53-.585,1.025,1.025,0,0,0-1.03,1.773,6.739,6.739,0,0,0,4.56.883v1.649a6.246,6.246,0,0,1-4.541-.7,1.026,1.026,0,0,0-1.032,1.774,8.314,8.314,0,0,0,4.193,1.138,8.208,8.208,0,0,0,1.38-.119v1.623a7.7,7.7,0,0,1-5.759-.825,1.026,1.026,0,0,0-1.032,1.774,9.671,9.671,0,0,0,6.791,1.149v1.6a8.608,8.608,0,0,1-6.49-.891,1.025,1.025,0,1,0-1.031,1.771,10.659,10.659,0,0,0,5.367,1.454,10.529,10.529,0,0,0,2.154-.232v1.6a9.547,9.547,0,0,1-7.292-.97,1.025,1.025,0,1,0-1.031,1.772,11.489,11.489,0,0,0,8.323,1.307v1.593a10.614,10.614,0,0,1-8.174-1.055,1.026,1.026,0,0,0-1.033,1.774,12.532,12.532,0,0,0,9.207,1.4v1.589a11.778,11.778,0,0,1-9.147-1.151,1.025,1.025,0,0,0-1.031,1.773,13.692,13.692,0,0,0,10.178,1.5v1.58A13.047,13.047,0,0,1,1917.4,878.2a1.026,1.026,0,0,0-1.031,1.774,15.016,15.016,0,0,0,11.247,1.611v1.482a1.026,1.026,0,1,0,2.052,0v-1.482a15.016,15.016,0,0,0,11.247-1.611A1.026,1.026,0,0,0,1941.29,878.574Z"/></g></g><g transform="translate(-1736.171 -432)"><path class="e" d="M2065.927,823.635a16.692,16.692,0,1,0,16.692-16.692A16.691,16.691,0,0,0,2065.927,823.635Zm32.02,0a15.326,15.326,0,1,1-15.328-15.328A15.327,15.327,0,0,1,2097.947,823.635Z"/><path class="p" d="M2067.3,823.635a15.326,15.326,0,1,0,15.323-15.328A15.323,15.323,0,0,0,2067.3,823.635Zm26.911,0a11.588,11.588,0,1,1-11.588-11.588A11.589,11.589,0,0,1,2094.207,823.635Z"/><path class="m" d="M2071.032,823.635a11.588,11.588,0,1,0,11.587-11.588A11.588,11.588,0,0,0,2071.032,823.635Zm15.08,0a3.493,3.493,0,1,1-3.493-3.493A3.492,3.492,0,0,1,2086.112,823.635Z"/><path class="u" d="M2079.127,823.635a3.493,3.493,0,1,0,3.492-3.493A3.491,3.491,0,0,0,2079.127,823.635Z"/><rect class="g" width="8.61" height="8.111" transform="translate(2015.865 817.34)"/><rect class="af" width="5.585" height="8.111" transform="translate(2024.475 817.34)"/><rect class="e" width="38.092" height="2.531" transform="translate(2015.865 829.074)"/><rect class="e" width="38.092" height="2.532" transform="translate(2015.865 832.959)"/><rect class="e" width="38.092" height="2.531" transform="translate(2015.865 836.845)"/><path class="ap" d="M2030.06,825.451V817.34h-14.2v8.111h14.2Z"/><rect class="ap" width="38.092" height="2.532" transform="translate(2015.865 832.959)"/><rect class="ap" width="38.092" height="2.531" transform="translate(2015.865 829.074)"/><rect class="ap" width="60.097" height="0.119" transform="translate(2029.307 843.593)"/><path class="ap" d="M2082.619,840.325a16.691,16.691,0,1,0-16.692-16.69A16.691,16.691,0,0,0,2082.619,840.325Z"/><rect class="ap" width="38.092" height="2.531" transform="translate(2015.865 836.845)"/><path class="z" d="M2029.307,843.593h60.1v.119h11.023v-.119h1.4a3.133,3.133,0,0,0,3.131-3.135V817.69a3.131,3.131,0,0,0-3.131-3.132h-1.791a19.633,19.633,0,0,0-34.821,0h-48.736a3.135,3.135,0,0,0-3.135,3.132v22.768a3.137,3.137,0,0,0,3.135,3.135h1.809v.119h11.023Zm53.312-36.65a16.691,16.691,0,1,1-16.692,16.692A16.691,16.691,0,0,1,2082.619,806.943Zm-66.754,10.4h14.2v8.111h-14.2Zm0,11.734h38.092V831.6h-38.092Zm0,3.885h38.092v2.532h-38.092Zm0,6.417v-2.531h38.092v2.531Z"/><path class="aq" d="M2089.4,847.171a1.411,1.411,0,0,0,1.413,1.413h8.192a1.415,1.415,0,0,0,1.418-1.413v-3.459H2089.4Z"/><path class="aq" d="M2019.7,848.584h8.2a1.414,1.414,0,0,0,1.413-1.413v-3.459h-11.023v3.459A1.413,1.413,0,0,0,2019.7,848.584Z"/><path class="aj" d="M2082.619,812.047a11.578,11.578,0,0,0-11.569,11.219l19.169-8.366A11.532,11.532,0,0,0,2082.619,812.047Z"/></g></g></svg>