<svg xmlns="http://www.w3.org/2000/svg" width="92.508" height="62.474" viewBox="0 0 92.508 62.474"><g transform="translate(-1405.503 -789.229)"><rect width="26.433" height="8.914" transform="translate(1458.363 824.878)" fill="#ff821e"/><rect width="26.431" height="8.914" transform="translate(1405.503 824.878)" fill="#fdafdc"/><rect width="26.43" height="8.914" transform="translate(1431.934 824.878)" fill="none"/><rect width="26.429" height="8.911" transform="translate(1471.582 815.925)" fill="#be643e"/><rect width="26.431" height="8.911" transform="translate(1418.718 815.967)" fill="#ff821e"/><rect width="26.434" height="8.911" transform="translate(1445.148 815.967)" fill="none"/><rect width="26.433" height="8.911" transform="translate(1458.363 807.056)" fill="#ff821e"/><rect width="26.431" height="8.911" transform="translate(1405.503 807.056)" fill="#fdafdc"/><rect width="26.43" height="8.911" transform="translate(1431.934 807.056)" fill="none"/><rect width="26.429" height="8.914" transform="translate(1471.582 798.1)" fill="#be643e"/><rect width="13.053" height="8.911" transform="translate(1405.662 815.925)" fill="#be643e"/><path d="M1418.715,798.143v8.913l-13.053-.042V798.1Z" fill="#be643e"/><rect width="26.431" height="8.913" transform="translate(1418.718 798.143)" fill="#ff821e"/><rect width="26.429" height="8.916" transform="translate(1471.582 833.831)" fill="#be643e"/><rect width="26.431" height="8.916" transform="translate(1418.718 833.872)" fill="#ff821e"/><rect width="26.434" height="8.916" transform="translate(1445.148 833.872)" fill="#fdafdc"/><rect width="13.053" height="8.916" transform="translate(1405.662 833.831)" fill="#be643e"/><rect width="26.434" height="8.913" transform="translate(1445.148 798.143)" fill="none"/><rect width="26.433" height="8.914" transform="translate(1458.363 789.229)" fill="none"/><rect width="26.431" height="8.914" transform="translate(1405.503 789.229)" fill="#fdafdc"/><rect width="26.43" height="8.914" transform="translate(1431.934 789.229)" fill="none"/><rect width="13.215" height="8.914" transform="translate(1484.796 824.878)" fill="#fdafdc"/><rect width="26.433" height="8.914" transform="translate(1458.363 842.789)" fill="#ff821e"/><rect width="26.431" height="8.914" transform="translate(1405.503 842.789)" fill="#fdafdc"/><rect width="26.43" height="8.914" transform="translate(1431.934 842.789)" fill="#be643e"/><rect width="13.215" height="8.914" transform="translate(1484.796 842.789)" fill="#fdafdc"/><rect width="13.215" height="8.911" transform="translate(1484.796 807.056)" fill="#fdafdc"/><rect width="13.215" height="8.914" transform="translate(1484.796 789.229)" fill="#fdafdc"/></g></svg>