<svg xmlns="http://www.w3.org/2000/svg" width="89.785" height="89.787" viewBox="0 0 89.785 89.787"><g transform="translate(-1588.99 -757.817)"><path d="M1633.885,780.254V757.817a22.443,22.443,0,0,0-1.7,44.822v.071h24.164V780.254Z" fill="#ffd32f"/><path d="M1656.33,780.264a22.445,22.445,0,0,0-22.445,22.446h44.89A22.447,22.447,0,0,0,1656.33,780.264Z" fill="#ea46a0"/><rect width="22.456" height="22.454" transform="translate(1634.025 802.722)" fill="#ea46a0"/><path d="M1635.081,802.736v-.046h-23.667v22.453h22.611V847.6a22.446,22.446,0,0,0,1.056-44.868Z" fill="#fdafdc"/><path d="M1632.186,802.69v-.051a22.448,22.448,0,0,1-20.75-22.375v-.021h-.007l0,22.447H1588.99a22.448,22.448,0,0,0,44.9,0Z" fill="#ff3823"/><path d="M1639.305,802.69a5.29,5.29,0,1,1-5.291-5.289A5.291,5.291,0,0,1,1639.305,802.69Z" fill="#dfddcd"/></g></svg>