<svg xmlns="http://www.w3.org/2000/svg" width="79.58" height="87.593" viewBox="0 0 79.58 87.593"><g transform="translate(-1229.047 -761.297)"><path d="M1303.3,809.161a4.322,4.322,0,0,1-.56-.413,4.826,4.826,0,0,1-.018-7.291c.231-.16.456-.33.677-.5a13.847,13.847,0,0,0-13.717-23.71,4.965,4.965,0,0,1-.8.346,4.837,4.837,0,0,1-6.265-3.7,6.914,6.914,0,0,1-.088-.735,13.846,13.846,0,0,0-27.387-.115c-.044.322-.085.65-.108.976a4.834,4.834,0,0,1-6.3,3.556,5.617,5.617,0,0,1-.755-.327,13.846,13.846,0,0,0-13.734,23.693c.251.2.507.384.772.569a4.847,4.847,0,0,1,.946,6.012,4.733,4.733,0,0,1-.949,1.171c-.262.183-.526.371-.771.567A13.848,13.848,0,0,0,1247.859,833c.349-.133.7-.286,1.037-.451a4.823,4.823,0,0,1,6.136,3.555c.031.361.067.713.118,1.063a13.849,13.849,0,0,0,27.4-.214,5.183,5.183,0,0,1,.072-.652,4.846,4.846,0,0,1,4.76-3.941,4.9,4.9,0,0,1,1.469.225c.3.142.595.278.9.393a13.846,13.846,0,0,0,13.546-23.815Z" fill="#fdafdc"/><path d="M1265.716,794.734a3.319,3.319,0,1,1-3.32-3.326A3.318,3.318,0,0,1,1265.716,794.734Z" fill="#ffd32f"/><path d="M1278.6,794.734a3.323,3.323,0,1,1-3.322-3.326A3.321,3.321,0,0,1,1278.6,794.734Z" fill="#ffd32f"/><path d="M1272.158,805.167a3.323,3.323,0,1,1-3.32-3.323A3.321,3.321,0,0,1,1272.158,805.167Z" fill="#ffd32f"/><path d="M1285.036,805.167a3.325,3.325,0,1,1-3.32-3.323A3.322,3.322,0,0,1,1285.036,805.167Z" fill="#ffd32f"/><path d="M1259.281,805.167a3.322,3.322,0,1,1-3.326-3.323A3.323,3.323,0,0,1,1259.281,805.167Z" fill="#ffd32f"/><path d="M1265.716,815.461a3.319,3.319,0,1,1-3.32-3.322A3.317,3.317,0,0,1,1265.716,815.461Z" fill="#ffd32f"/><path d="M1278.6,815.461a3.323,3.323,0,1,1-3.322-3.322A3.32,3.32,0,0,1,1278.6,815.461Z" fill="#ffd32f"/></g></svg>