<svg xmlns="http://www.w3.org/2000/svg" width="169.05" height="145.337" viewBox="0 0 169.05 145.337"><defs><style>.a{fill:#ff3823;}.b{fill:#ffd32f;}.c{fill:#32b9fd;}.d{fill:#dfddcd;}.e{fill:#5b3f34;}</style></defs><g transform="translate(0 0)"><path class="a" d="M1223.664,145.239a34.285,34.285,0,0,0-17.4,4.748l-9.169-8.517,9.1-8.446a34.429,34.429,0,1,0-14.085-15.83l-18.274,16.954,6.8,7.322-6.8,7.325,18.308,17a34.463,34.463,0,1,0,31.521-20.552Zm0-60.476a18.572,18.572,0,1,1-18.492,20.3c-.05-.566-.085-1.136-.085-1.716A18.578,18.578,0,0,1,1223.664,84.764Zm0,113.527a18.578,18.578,0,0,1-18.577-18.577c0-.618.032-1.227.091-1.824a18.566,18.566,0,0,1,13.771-16.129,18.265,18.265,0,0,1,4.715-.629,18.58,18.58,0,0,1,0,37.159Z" transform="translate(-1089.087 -68.845)"/><path class="b" d="M1208.489,123,1161.08,77.564a31.4,31.4,0,0,0-22.75-8.692,27.249,27.249,0,0,0-19.427,9.107.646.646,0,0,0-.052.059,2.871,2.871,0,0,0,.364,4.042l71.332,59.4-71.332,59.39a.449.449,0,0,1-.062.053,2.865,2.865,0,0,0-.25,4.045,27.236,27.236,0,0,0,19.427,9.111c.428.021.853.023,1.275.023a31.384,31.384,0,0,0,21.465-8.7l47.42-45.44Z" transform="translate(-1118.184 -68.854)"/><path class="a" d="M1202.514,122.753a18.085,18.085,0,1,1-18.085-18.082A18.082,18.082,0,0,1,1202.514,122.753Z" transform="translate(-1093.003 -50.128)"/><path class="c" d="M1190.126,119.586a8.862,8.862,0,1,1-8.863-8.857A8.863,8.863,0,0,1,1190.126,119.586Z" transform="translate(-1089.836 -46.96)"/></g><g transform="translate(73.155 54.408)"><path class="d" d="M1184.5,104.582a18.276,18.276,0,1,0,18.27,18.276A18.275,18.275,0,0,0,1184.5,104.582Z" transform="translate(-1166.222 -104.582)"/></g><path class="e" d="M1171.327,120.187a10.5,10.5,0,0,0,21,0h-10.506v-10.5A10.5,10.5,0,0,0,1171.327,120.187Z" transform="translate(-1090.398 -47.503)"/></svg>