<svg xmlns="http://www.w3.org/2000/svg" xmlns:xlink="http://www.w3.org/1999/xlink" width="340" height="167" viewBox="0 0 340 167"><defs><clipPath id="a"><rect width="340" height="167" transform="translate(412 1240)" fill="none" stroke="#707070" stroke-width="1"/></clipPath></defs><g transform="translate(-412 -1240)" clip-path="url(#a)"><path d="M-603.37,2511.786a8.9,8.9,0,0,0,7.472-5.337c1.456-3.736.728-5.046,2.717-8.782s4.221-7.812,4.221-7.812a5.9,5.9,0,0,0,.291-5.046c-1.067-3.008-3.542-3.736-5.435-4.27s-6.017-1.261-9.268-2.475-10.208-3.184-10.208-3.184a9.22,9.22,0,0,0-8.473,2.5c-3.833,3.785-1.747,9.171-1.747,9.171a29.89,29.89,0,0,0,5.871,6.987c4.076,3.688,3.93,6.162,3.93,6.162s-.631,8.3,2.572,10.238A12.309,12.309,0,0,0-603.37,2511.786Z" transform="translate(1043 -1121)"/><path d="M-603.37,2511.786a8.9,8.9,0,0,0,7.472-5.337c1.456-3.736.728-5.046,2.717-8.782s4.221-7.812,4.221-7.812a5.9,5.9,0,0,0,.291-5.046c-1.067-3.008-3.542-3.736-5.435-4.27s-6.017-1.261-9.268-2.475-10.208-3.184-10.208-3.184a9.22,9.22,0,0,0-8.473,2.5c-3.833,3.785-1.747,9.171-1.747,9.171a29.89,29.89,0,0,0,5.871,6.987c4.076,3.688,3.93,6.162,3.93,6.162s-.631,8.3,2.572,10.238A12.309,12.309,0,0,0-603.37,2511.786Z" transform="translate(1147 -1115)"/><path d="M-603.37,2511.786a8.9,8.9,0,0,0,7.472-5.337c1.456-3.736.728-5.046,2.717-8.782s4.221-7.812,4.221-7.812a5.9,5.9,0,0,0,.291-5.046c-1.067-3.008-3.542-3.736-5.435-4.27s-6.017-1.261-9.268-2.475-10.208-3.184-10.208-3.184a9.22,9.22,0,0,0-8.473,2.5c-3.833,3.785-1.747,9.171-1.747,9.171a29.89,29.89,0,0,0,5.871,6.987c4.076,3.688,3.93,6.162,3.93,6.162s-.631,8.3,2.572,10.238A12.309,12.309,0,0,0-603.37,2511.786Z" transform="translate(1170 -1211)"/><path d="M-603.37,2511.786a8.9,8.9,0,0,0,7.472-5.337c1.456-3.736.728-5.046,2.717-8.782s4.221-7.812,4.221-7.812a5.9,5.9,0,0,0,.291-5.046c-1.067-3.008-3.542-3.736-5.435-4.27s-6.017-1.261-9.268-2.475-10.208-3.184-10.208-3.184a9.22,9.22,0,0,0-8.473,2.5c-3.833,3.785-1.747,9.171-1.747,9.171a29.89,29.89,0,0,0,5.871,6.987c4.076,3.688,3.93,6.162,3.93,6.162s-.631,8.3,2.572,10.238A12.309,12.309,0,0,0-603.37,2511.786Z" transform="translate(1273 -1211)"/><ellipse cx="9.5" cy="7" rx="9.5" ry="7" transform="matrix(0.891, -0.454, 0.454, 0.891, 430.458, 1343.412)" fill="#070707"/><ellipse cx="9.5" cy="7" rx="9.5" ry="7" transform="matrix(0.891, -0.454, 0.454, 0.891, 534.458, 1349.412)" fill="#070707"/><ellipse cx="9.5" cy="7" rx="9.5" ry="7" transform="matrix(0.891, -0.454, 0.454, 0.891, 557.458, 1253.412)" fill="#070707"/><ellipse cx="9.5" cy="7" rx="9.5" ry="7" transform="matrix(0.891, -0.454, 0.454, 0.891, 660.458, 1253.412)" fill="#070707"/><ellipse cx="9.5" cy="7" rx="9.5" ry="7" transform="matrix(0.891, -0.454, 0.454, 0.891, 449.458, 1347.412)" fill="#070707"/><ellipse cx="9.5" cy="7" rx="9.5" ry="7" transform="matrix(0.891, -0.454, 0.454, 0.891, 553.458, 1353.412)" fill="#070707"/><ellipse cx="9.5" cy="7" rx="9.5" ry="7" transform="matrix(0.891, -0.454, 0.454, 0.891, 576.458, 1257.412)" fill="#070707"/><ellipse cx="9.5" cy="7" rx="9.5" ry="7" transform="matrix(0.891, -0.454, 0.454, 0.891, 679.458, 1257.412)" fill="#070707"/><ellipse cx="9.5" cy="7" rx="9.5" ry="7" transform="matrix(0.891, -0.454, 0.454, 0.891, 456.458, 1363.412)" fill="#070707"/><ellipse cx="9.5" cy="7" rx="9.5" ry="7" transform="matrix(0.891, -0.454, 0.454, 0.891, 560.458, 1369.412)" fill="#070707"/><ellipse cx="9.5" cy="7" rx="9.5" ry="7" transform="matrix(0.891, -0.454, 0.454, 0.891, 583.458, 1273.412)" fill="#070707"/><ellipse cx="9.5" cy="7" rx="9.5" ry="7" transform="matrix(0.891, -0.454, 0.454, 0.891, 686.458, 1273.412)" fill="#070707"/><ellipse cx="9.5" cy="7" rx="9.5" ry="7" transform="matrix(0.891, -0.454, 0.454, 0.891, 449.458, 1381.412)" fill="#070707"/><ellipse cx="9.5" cy="7" rx="9.5" ry="7" transform="matrix(0.891, -0.454, 0.454, 0.891, 553.458, 1387.412)" fill="#070707"/><ellipse cx="9.5" cy="7" rx="9.5" ry="7" transform="matrix(0.891, -0.454, 0.454, 0.891, 576.458, 1291.412)" fill="#070707"/><ellipse cx="9.5" cy="7" rx="9.5" ry="7" transform="matrix(0.891, -0.454, 0.454, 0.891, 679.458, 1291.412)" fill="#070707"/></g></svg>